<?xml version="1.0" ?><!DOCTYPE svg  PUBLIC '-//W3C//DTD SVG 1.1//EN'  'http://www.w3.org/Graphics/SVG/1.1/DTD/svg11.dtd'><svg height="349.000" viewBox="-166.000 -224.000 333.000 349.000" width="333.000" xmlns="http://www.w3.org/2000/svg"><line fill="none" stroke="none" stroke-linecap="round" stroke-width="2.0" x1="0.0" x2="0.0" y1="0.0" y2="0.0"/><polygon fill="none" fill-rule="evenodd" points="0.0,0.0 0.0,0.0 0.0,0.0" stroke-linejoin="round"/><polyline fill="none" points="0.0,-0.0 6.123233995736766e-15,-100.0 -95.10565162951535,-130.90169943749476 -153.88417685876266,-50.00000000000003 -95.10565162951536,30.901699437494713 0.0,-1.4210854715202004e-14 2.220446049250313e-14,-100.00000000000001 58.7785252292473,-19.098300562505244 153.88417685876266,-49.99999999999994 153.88417685876271,-149.99999999999994 58.77852522924738,-180.90169943749473 2.842170943040401e-14,-100.00000000000003 58.778525229247286,-19.098300562505273 -36.327126400268035,-50.00000000000008 -95.10565162951539,30.901699437494607 -36.327126400268156,111.80339887498937 58.778525229247194,80.90169943749471 58.77852522924728,-19.09830056250526 -36.327126400268014,-50.00000000000007 58.77852522924732,-80.9016994374947 58.77852522924743,-180.90169943749464 -36.32712640026784,-211.80339887498945 -95.1056516295152,-130.9016994374948 -36.327126400268014,-50.00000000000007 58.77852522924731,-80.90169943749467 -6.394884621840902e-14,-7.105427357601002e-14 58.778525229247094,80.90169943749467 153.88417685876243,50.000000000000085 153.88417685876257,-49.99999999999983 58.77852522924735,-80.90169943749468 -2.842170943040401e-14,-9.947598300641403e-14" stroke="#f00" stroke-linecap="round" stroke-linejoin="round" stroke-width="2.0"/></svg>