<?xml version="1.0" ?><!DOCTYPE svg  PUBLIC '-//W3C//DTD SVG 1.1//EN'  'http://www.w3.org/Graphics/SVG/1.1/DTD/svg11.dtd'><svg height="204.000" viewBox="-63.000 -191.000 231.000 204.000" width="231.000" xmlns="http://www.w3.org/2000/svg"><line fill="none" stroke="none" stroke-linecap="round" stroke-width="2.0" x1="0.0" x2="0.0" y1="0.0" y2="0.0"/><polygon fill="none" fill-rule="evenodd" points="0.0,0.0 0.0,0.0 0.0,0.0" stroke-linejoin="round"/><polyline fill="none" points="0.0,-0.0 4.082155997157844e-16,-6.666666666666667 -5.773502691896257,-10.000000000000002 0.0,-13.333333333333336 7.401486830834377e-16,-20.000000000000004 -5.7735026918962555,-23.33333333333334 -11.547005383792515,-20.000000000000007 -11.547005383792513,-26.66666666666667 -17.32050807568877,-30.000000000000007 -11.547005383792513,-33.33333333333334 -11.547005383792511,-40.00000000000001 -5.773502691896255,-36.66666666666667 1.7763568394002505e-15,-40.0 3.9968028886505635e-15,-46.666666666666664 -5.773502691896249,-50.0 7.105427357601002e-15,-53.33333333333333 9.695947748393035e-15,-59.99999999999999 -5.773502691896244,-63.33333333333333 -11.547005383792502,-60.0 -11.5470053837925,-66.66666666666666 -17.320508075688753,-69.99999999999999 -23.09401076758501,-66.66666666666666 -23.094010767585015,-59.99999999999999 -28.86751345948127,-63.33333333333333 -34.64101615137753,-60.0 -34.64101615137753,-66.66666666666666 -40.41451884327378,-69.99999999999999 -34.64101615137753,-73.33333333333331 -34.64101615137753,-79.99999999999997 -40.41451884327378,-83.3333333333333 -46.18802153517004,-79.99999999999997 -46.18802153517004,-86.66666666666663 -51.96152422706629,-89.99999999999996 -46.18802153517004,-93.33333333333329 -46.18802153517004,-99.99999999999994 -40.41451884327378,-96.66666666666661 -34.64101615137753,-99.99999999999994 -34.64101615137753,-106.6666666666666 -40.41451884327378,-109.99999999999993 -34.64101615137753,-113.33333333333326 -34.64101615137753,-119.99999999999991 -28.867513459481273,-116.66666666666659 -23.09401076758502,-119.99999999999991" stroke="#000" stroke-linecap="round" stroke-linejoin="round"/><polyline fill="none" points="-23.09401076758502,-119.99999999999991 -23.09401076758502,-113.33333333333326 -17.320508075688764,-109.99999999999993 -11.547005383792508,-113.33333333333326 -11.547005383792506,-119.99999999999991 -5.773502691896251,-116.66666666666659 5.329070518200751e-15,-119.99999999999991 7.919590908992784e-15,-126.66666666666657 -5.773502691896246,-129.99999999999991 1.0658141036401503e-14,-133.33333333333326 1.3248661427193536e-14,-139.99999999999991 -5.77350269189624,-143.33333333333326 -11.547005383792499,-139.99999999999994 -11.547005383792497,-146.6666666666666 -17.32050807568875,-149.99999999999994 -11.547005383792493,-153.3333333333333 -11.547005383792492,-159.99999999999994 -5.773502691896237,-156.6666666666666 1.9539925233402755e-14,-159.99999999999994 2.2130445624194788e-14,-166.6666666666666 -5.7735026918962316,-169.99999999999994 2.4868995751603507e-14,-173.3333333333333 2.745951614239554e-14,-179.99999999999994 5.773502691896282,-176.6666666666666 11.547005383792538,-179.99999999999994 11.547005383792538,-173.3333333333333 17.320508075688792,-169.99999999999994 23.094010767585047,-173.3333333333333 23.09401076758505,-179.99999999999994 28.867513459481305,-176.6666666666666 34.64101615137756,-179.99999999999994 34.64101615137756,-173.3333333333333 40.41451884327382,-169.99999999999994 34.64101615137756,-166.6666666666666 34.64101615137756,-159.99999999999994 40.41451884327382,-156.6666666666666 46.18802153517007,-159.99999999999994 46.18802153517007,-153.3333333333333 51.96152422706633,-149.99999999999994 57.73502691896258,-153.3333333333333 57.73502691896258,-159.99999999999994 63.50852961085884,-156.6666666666666 69.2820323027551,-159.99999999999994" stroke="#000" stroke-linecap="round" stroke-linejoin="round"/><polyline fill="none" points="69.2820323027551,-159.99999999999994 69.2820323027551,-166.6666666666666 63.508529610858844,-169.99999999999994 69.2820323027551,-173.3333333333333 69.2820323027551,-179.99999999999994 75.05553499465135,-176.6666666666666 80.82903768654761,-179.99999999999994 80.82903768654761,-173.3333333333333 86.60254037844386,-169.99999999999994 92.37604307034012,-173.3333333333333 92.37604307034012,-179.99999999999994 98.14954576223637,-176.6666666666666 103.92304845413263,-179.99999999999994 103.92304845413263,-173.3333333333333 109.69655114602888,-169.99999999999994 103.92304845413263,-166.6666666666666 103.92304845413263,-159.99999999999994 109.69655114602888,-156.6666666666666 115.47005383792514,-159.99999999999994 115.47005383792514,-153.3333333333333 121.24355652982139,-149.99999999999994 115.47005383792514,-146.6666666666666 115.47005383792514,-139.99999999999994 109.69655114602888,-143.3333333333333 103.92304845413263,-139.99999999999994 103.92304845413263,-133.3333333333333 109.69655114602888,-129.99999999999994 103.92304845413263,-126.66666666666661 103.92304845413263,-119.99999999999994 109.69655114602888,-116.66666666666661 115.47005383792514,-119.99999999999994 115.47005383792514,-113.33333333333329 121.24355652982139,-109.99999999999996 127.01705922171764,-113.33333333333329 127.01705922171764,-119.99999999999994 132.7905619136139,-116.66666666666661 138.56406460551017,-119.99999999999994 138.56406460551017,-113.33333333333329 144.33756729740642,-109.99999999999996 138.56406460551017,-106.66666666666663 138.56406460551017,-99.99999999999997 144.33756729740642,-96.66666666666664 150.11106998930268,-99.99999999999997" stroke="#000" stroke-linecap="round" stroke-linejoin="round"/><polyline fill="none" points="150.11106998930268,-99.99999999999997 150.11106998930268,-93.33333333333331 155.88457268119893,-89.99999999999999 150.11106998930268,-86.66666666666666 150.11106998930268,-80.0 144.33756729740642,-83.33333333333333 138.56406460551017,-80.0 138.56406460551017,-73.33333333333334 144.33756729740642,-70.00000000000001 138.56406460551017,-66.66666666666669 138.56406460551017,-60.00000000000002 132.7905619136139,-63.33333333333335 127.01705922171766,-60.000000000000014 127.01705922171766,-66.66666666666667 121.2435565298214,-70.0 115.47005383792515,-66.66666666666667 115.47005383792515,-60.00000000000001 109.6965511460289,-63.333333333333336 103.92304845413264,-60.0 103.92304845413264,-53.333333333333336 109.6965511460289,-50.0 103.92304845413264,-46.66666666666667 103.92304845413264,-40.00000000000001 109.6965511460289,-36.66666666666667 115.47005383792515,-40.0 115.47005383792515,-33.333333333333336 121.2435565298214,-30.000000000000004 115.47005383792515,-26.66666666666667 115.47005383792515,-20.000000000000007 109.6965511460289,-23.33333333333334 103.92304845413264,-20.000000000000007 103.92304845413264,-13.333333333333343 109.6965511460289,-10.000000000000009 103.92304845413264,-6.666666666666677 103.92304845413264,-1.2434497875801753e-14 98.14954576223639,-3.3333333333333437 92.37604307034013,-1.1546319456101628e-14 92.37604307034013,-6.666666666666676 86.60254037844388,-10.000000000000007 80.82903768654762,-6.666666666666675 80.82903768654762,-1.0658141036401503e-14 75.05553499465137,-3.3333333333333424 69.28203230275511,-1.021405182655144e-14" stroke="#000" stroke-linecap="round" stroke-linejoin="round"/><polyline fill="none" points="69.28203230275511,-1.021405182655144e-14 69.28203230275511,-6.666666666666675 63.50852961085886,-10.000000000000007 69.28203230275511,-13.333333333333341 69.28203230275511,-20.000000000000007 63.50852961085886,-23.33333333333334 57.7350269189626,-20.000000000000007 57.7350269189626,-26.66666666666667 51.96152422706635,-30.000000000000004 46.188021535170094,-26.66666666666667 46.188021535170094,-20.000000000000007 40.41451884327384,-23.33333333333334 34.641016151377585,-20.000000000000007 34.641016151377585,-13.333333333333343 40.41451884327384,-10.000000000000009 34.641016151377585,-6.666666666666677 34.641016151377585,-1.2434497875801753e-14 28.86751345948133,-3.3333333333333437 23.094010767585075,-1.1546319456101628e-14 23.094010767585075,-6.666666666666676 17.32050807568882,-10.000000000000007 11.547005383792564,-6.666666666666675 11.547005383792563,-1.0658141036401503e-14 5.773502691896307,-3.3333333333333424 5.062616992290714e-14,-1.021405182655144e-14" stroke="#000" stroke-linecap="round" stroke-linejoin="round"/></svg>