<?xml version="1.0" ?><!DOCTYPE svg  PUBLIC '-//W3C//DTD SVG 1.1//EN'  'http://www.w3.org/Graphics/SVG/1.1/DTD/svg11.dtd'><svg height="102.000" viewBox="-46.000 -79.000 103.000 102.000" width="103.000" xmlns="http://www.w3.org/2000/svg"><line fill="none" stroke="none" stroke-linecap="round" stroke-width="2.0" x1="0.0" x2="0.0" y1="0.0" y2="0.0"/><polygon fill="none" fill-rule="evenodd" points="0.0,0.0 0.0,0.0 0.0,0.0" stroke-linejoin="round"/><polyline fill="none" points="0.0,-0.0 10.0,-0.0 10.0,10.0 0.0,10.000000000000002 -1.8369701987210296e-15,1.7763568394002505e-15" stroke="#f00" stroke-linecap="round" stroke-linejoin="round" stroke-width="2.0"/><polyline fill="none" points="9.999999999999998,-6.72936758894456e-16 19.39692620785908,-3.42020143325669 22.81712764111577,5.976724774602394 13.420201433256688,9.396926207859085 9.999999999999996,1.7763568394002505e-15" stroke="#000" stroke-linecap="round" stroke-linejoin="round" stroke-width="2.0"/><polyline fill="none" points="19.39692620785908,-3.4202014332566897 27.05737063904886,-9.848077530122087 33.48524673591426,-2.1876330989323085 25.824802304724482,4.2402429979330885 19.396926207859085,-3.4202014332566897" stroke="#f00" stroke-linecap="round" stroke-linejoin="round" stroke-width="2.0"/><polyline fill="none" points="27.057370639048862,-9.848077530122087 32.057370639048855,-18.508331567966476 40.717624676893244,-13.50833156796648 35.71762467689325,-4.84807753012209 27.057370639048862,-9.848077530122085" stroke="#000" stroke-linecap="round" stroke-linejoin="round" stroke-width="2.0"/><polyline fill="none" points="32.057370639048855,-18.508331567966472 33.793852415718156,-28.356409098088555 43.64192994584024,-26.619927321419258 41.905448169170946,-16.77184979129718 32.05737063904886,-18.508331567966476" stroke="#f00" stroke-linecap="round" stroke-linejoin="round" stroke-width="2.0"/><polyline fill="none" points="33.793852415718156,-28.356409098088555 32.05737063904885,-38.20448662821063 41.905448169170924,-39.94096840487994 43.64192994584024,-30.09289087475786 33.79385241571816,-28.356409098088548" stroke="#000" stroke-linecap="round" stroke-linejoin="round" stroke-width="2.0"/><polyline fill="none" points="32.05737063904885,-38.20448662821063 27.05737063904884,-46.86474066605501 35.71762467689322,-51.86474066605502 40.71762467689323,-43.20448662821064 32.05737063904885,-38.20448662821063" stroke="#f00" stroke-linecap="round" stroke-linejoin="round" stroke-width="2.0"/><polyline fill="none" points="27.05737063904884,-46.86474066605501 19.396926207859053,-53.2926167629204 25.82480230472444,-60.95306119411019 33.485246735914224,-54.5251850972448 27.057370639048838,-46.86474066605501" stroke="#000" stroke-linecap="round" stroke-linejoin="round" stroke-width="2.0"/><polyline fill="none" points="19.396926207859053,-53.2926167629204 9.999999999999966,-56.71281819617708 13.420201433256645,-66.10974440403616 22.817127641115732,-62.689542970779485 19.396926207859053,-53.292616762920396" stroke="#f00" stroke-linecap="round" stroke-linejoin="round" stroke-width="2.0"/><polyline fill="none" points="9.999999999999966,-56.712818196177075 -3.375077994860476e-14,-56.71281819617707 -4.491022208211742e-14,-66.71281819617707 9.999999999999956,-66.71281819617708 9.999999999999968,-56.71281819617708" stroke="#000" stroke-linecap="round" stroke-linejoin="round" stroke-width="2.0"/><polyline fill="none" points="-3.197442310920451e-14,-56.71281819617707 -9.396926207859112,-53.29261676292037 -12.817127641115812,-62.68954297077945 -3.4202014332567323,-66.10974440403615 -3.108624468950438e-14,-56.71281819617707" stroke="#f00" stroke-linecap="round" stroke-linejoin="round" stroke-width="2.0"/><polyline fill="none" points="-9.39692620785911,-53.29261676292037 -17.057370639048884,-46.86474066605496 -23.485246735914288,-54.52518509724474 -15.824802304724516,-60.95306119411014 -9.39692620785911,-53.29261676292037" stroke="#000" stroke-linecap="round" stroke-linejoin="round" stroke-width="2.0"/><polyline fill="none" points="-17.057370639048884,-46.86474066605496 -22.057370639048873,-38.20448662821057 -30.717624676893266,-43.20448662821055 -25.71762467689328,-51.86474066605495 -17.057370639048884,-46.86474066605496" stroke="#f00" stroke-linecap="round" stroke-linejoin="round" stroke-width="2.0"/><polyline fill="none" points="-22.05737063904887,-38.20448662821057 -23.793852415718156,-28.356409098088484 -33.64192994584024,-30.09289087475777 -31.905448169170953,-39.940968404879854 -22.05737063904887,-38.20448662821057" stroke="#000" stroke-linecap="round" stroke-linejoin="round" stroke-width="2.0"/><polyline fill="none" points="-23.793852415718156,-28.356409098088484 -22.057370639048834,-18.508331567966408 -31.90544816917091,-16.771849791297086 -33.64192994584023,-26.619927321419162 -23.793852415718156,-28.356409098088484" stroke="#f00" stroke-linecap="round" stroke-linejoin="round" stroke-width="2.0"/><polyline fill="none" points="-22.057370639048834,-18.508331567966408 -17.057370639048816,-9.84807753012203 -25.717624676893195,-4.848077530122012 -30.717624676893212,-13.50833156796639 -22.057370639048834,-18.508331567966408" stroke="#000" stroke-linecap="round" stroke-linejoin="round" stroke-width="2.0"/><polyline fill="none" points="-17.057370639048816,-9.84807753012203 -9.396926207859021,-3.4202014332566506 -15.8248023047244,4.240242997933144 -23.485246735914195,-2.187633098932235 -17.057370639048816,-9.84807753012203" stroke="#f00" stroke-linecap="round" stroke-linejoin="round" stroke-width="2.0"/><polyline fill="none" points="-9.396926207859021,-3.4202014332566506 7.105427357601002e-14,1.9539925233402755e-14 -3.420201433256598,9.396926207859112 -12.81712764111569,5.9767247746024434 -9.396926207859021,-3.420201433256649" stroke="#000" stroke-linecap="round" stroke-linejoin="round" stroke-width="2.0"/><line fill="none" stroke="none" stroke-linecap="round" stroke-width="2.0" x1="0.0" x2="0.0" y1="0.0" y2="0.0"/></svg>