<?xml version="1.0" ?><!DOCTYPE svg  PUBLIC '-//W3C//DTD SVG 1.1//EN'  'http://www.w3.org/Graphics/SVG/1.1/DTD/svg11.dtd'><svg height="85.000" viewBox="-26.000 -53.000 85.000 85.000" width="85.000" xmlns="http://www.w3.org/2000/svg"><line fill="none" stroke="none" stroke-linecap="round" stroke-width="2.0" x1="0.0" x2="0.0" y1="0.0" y2="0.0"/><polygon fill="none" fill-rule="evenodd" points="0.0,0.0 0.0,0.0 0.0,0.0" stroke-linejoin="round"/><polyline fill="none" points="0.0,-0.0 -15.035081932574533,-5.472322293210702 0.9649180674254652,-5.472322293210702 -14.070163865149066,-10.944644586421404 1.929836134850932,-10.944644586421404 -13.1052457977236,-16.416966879632106 2.894754202276399,-16.416966879632106 -12.140327730298132,-21.88928917284281 3.859672269701866,-21.88928917284281 -11.175409662872665,-27.36161146605351 4.824590337127333,-27.36161146605351 10.296912630338033,-42.396693398628045 10.296912630338035,-26.396693398628045 15.769234923548735,-41.43177533120257 15.769234923548737,-25.431775331202573 21.24155721675944,-40.4668572637771 21.24155721675944,-24.4668572637771 26.71387950997014,-39.50193919635163 26.71387950997014,-23.50193919635163 32.18620180318084,-38.537021128926156 32.18620180318084,-22.537021128926156 47.22128373575538,-17.064698835715458 31.221283735755378,-17.064698835715454 46.256365668329906,-11.592376542504756 30.256365668329906,-11.592376542504754 45.291447600904434,-6.120054249294054 29.291447600904434,-6.120054249294053 44.32652953347896,-0.6477319560833532 28.32652953347896,-0.6477319560833514 43.36161146605349,4.824590337127348 27.36161146605349,4.82459033712735 21.88928917284279,19.859672269701882 21.889289172842787,3.8596722697018837 16.41696687963209,18.894754202276417 16.416966879632085,2.8947542022764203 10.944644586421388,17.92983613485095 10.944644586421383,1.9298361348509552 5.472322293210686,16.964918067425486 5.472322293210682,0.96491806742549 -1.509903313490213e-14,16.00000000000002 -1.9539925233402755e-14,2.4868995751603507e-14" stroke="#000" stroke-linecap="round" stroke-linejoin="round"/></svg>