<?xml version="1.0" ?><!DOCTYPE svg  PUBLIC '-//W3C//DTD SVG 1.1//EN'  'http://www.w3.org/Graphics/SVG/1.1/DTD/svg11.dtd'><svg height="85.000" viewBox="-53.000 -58.000 85.000 85.000" width="85.000" xmlns="http://www.w3.org/2000/svg"><line fill="none" stroke="none" stroke-linecap="round" stroke-width="2.0" x1="0.0" x2="0.0" y1="0.0" y2="0.0"/><polygon fill="none" fill-rule="evenodd" points="0.0,0.0 0.0,0.0 0.0,0.0" stroke-linejoin="round"/><polyline fill="none" points="0.0,-0.0 -5.472322293210703,15.035081932574533 -5.472322293210702,-0.9649180674254669 -10.944644586421404,14.070163865149066 -10.944644586421404,-1.9298361348509339 -16.416966879632106,13.1052457977236 -16.416966879632106,-2.894754202276401 -21.88928917284281,12.140327730298132 -21.88928917284281,-3.8596722697018677 -27.36161146605351,11.175409662872665 -27.36161146605351,-4.824590337127335 -42.396693398628045,-10.296912630338037 -26.396693398628045,-10.296912630338037 -41.43177533120257,-15.769234923548737 -25.431775331202573,-15.769234923548737 -40.4668572637771,-21.24155721675944 -24.4668572637771,-21.24155721675944 -39.50193919635163,-26.71387950997014 -23.50193919635163,-26.71387950997014 -38.537021128926156,-32.18620180318084 -22.537021128926156,-32.18620180318084 -17.064698835715454,-47.22128373575538 -17.064698835715454,-31.221283735755378 -11.592376542504754,-46.256365668329906 -11.592376542504752,-30.256365668329906 -6.120054249294052,-45.291447600904434 -6.120054249294051,-29.291447600904434 -0.6477319560833505,-44.32652953347896 -0.6477319560833497,-28.32652953347896 4.824590337127351,-43.36161146605349 4.8245903371273515,-27.36161146605349 19.859672269701882,-21.88928917284279 3.8596722697018837,-21.889289172842787 18.894754202276417,-16.41696687963209 2.8947542022764186,-16.416966879632085 17.92983613485095,-10.944644586421386 1.9298361348509534,-10.944644586421385 16.964918067425486,-5.472322293210685 0.9649180674254882,-5.472322293210683 16.00000000000002,1.5987211554602254e-14 2.3092638912203256e-14,1.7763568394002505e-14" stroke="#000" stroke-linecap="round" stroke-linejoin="round"/></svg>