<?xml version="1.0" ?><!DOCTYPE svg  PUBLIC '-//W3C//DTD SVG 1.1//EN'  'http://www.w3.org/Graphics/SVG/1.1/DTD/svg11.dtd'><svg height="86.000" viewBox="-54.000 -59.000 86.000 86.000" width="86.000" xmlns="http://www.w3.org/2000/svg"><line fill="none" stroke="none" stroke-linecap="round" stroke-width="2.0" x1="0.0" x2="0.0" y1="0.0" y2="0.0"/><polygon fill="none" fill-rule="evenodd" points="0.0,0.0 0.0,0.0 0.0,0.0" stroke-linejoin="round"/><line fill="none" stroke="#000" stroke-linecap="round" x1="0.0" x2="-5.472322293210703" y1="-0.0" y2="15.035081932574533"/><line fill="none" stroke="#f00" stroke-linecap="round" x1="-5.472322293210703" x2="-5.472322293210702" y1="15.035081932574533" y2="-0.9649180674254669"/><line fill="none" stroke="#000" stroke-linecap="round" x1="-5.472322293210702" x2="-10.944644586421404" y1="-0.9649180674254669" y2="14.070163865149066"/><line fill="none" stroke="#f00" stroke-linecap="round" x1="-10.944644586421404" x2="-10.944644586421404" y1="14.070163865149066" y2="-1.9298361348509339"/><line fill="none" stroke="#000" stroke-linecap="round" x1="-10.944644586421404" x2="-16.416966879632106" y1="-1.9298361348509339" y2="13.1052457977236"/><line fill="none" stroke="#f00" stroke-linecap="round" x1="-16.416966879632106" x2="-16.416966879632106" y1="13.1052457977236" y2="-2.894754202276401"/><line fill="none" stroke="#000" stroke-linecap="round" x1="-16.416966879632106" x2="-21.88928917284281" y1="-2.894754202276401" y2="12.140327730298132"/><line fill="none" stroke="#f00" stroke-linecap="round" x1="-21.88928917284281" x2="-21.88928917284281" y1="12.140327730298132" y2="-3.8596722697018677"/><line fill="none" stroke="#000" stroke-linecap="round" x1="-21.88928917284281" x2="-27.36161146605351" y1="-3.8596722697018677" y2="11.175409662872665"/><line fill="none" stroke="#f00" stroke-linecap="round" x1="-27.36161146605351" x2="-27.36161146605351" y1="11.175409662872665" y2="-4.824590337127335"/><line fill="none" stroke="#000" stroke-linecap="round" x1="-27.36161146605351" x2="-42.396693398628045" y1="-4.824590337127335" y2="-10.296912630338037"/><line fill="none" stroke="#f00" stroke-linecap="round" x1="-42.396693398628045" x2="-26.396693398628045" y1="-10.296912630338037" y2="-10.296912630338037"/><line fill="none" stroke="#000" stroke-linecap="round" x1="-26.396693398628045" x2="-41.43177533120257" y1="-10.296912630338037" y2="-15.769234923548737"/><line fill="none" stroke="#f00" stroke-linecap="round" x1="-41.43177533120257" x2="-25.431775331202573" y1="-15.769234923548737" y2="-15.769234923548737"/><line fill="none" stroke="#000" stroke-linecap="round" x1="-25.431775331202573" x2="-40.4668572637771" y1="-15.769234923548737" y2="-21.24155721675944"/><line fill="none" stroke="#f00" stroke-linecap="round" x1="-40.4668572637771" x2="-24.4668572637771" y1="-21.24155721675944" y2="-21.24155721675944"/><line fill="none" stroke="#000" stroke-linecap="round" x1="-24.4668572637771" x2="-39.50193919635163" y1="-21.24155721675944" y2="-26.71387950997014"/><line fill="none" stroke="#f00" stroke-linecap="round" x1="-39.50193919635163" x2="-23.50193919635163" y1="-26.71387950997014" y2="-26.71387950997014"/><line fill="none" stroke="#000" stroke-linecap="round" x1="-23.50193919635163" x2="-38.537021128926156" y1="-26.71387950997014" y2="-32.18620180318084"/><line fill="none" stroke="#f00" stroke-linecap="round" x1="-38.537021128926156" x2="-22.537021128926156" y1="-32.18620180318084" y2="-32.18620180318084"/><line fill="none" stroke="#000" stroke-linecap="round" x1="-22.537021128926156" x2="-17.064698835715454" y1="-32.18620180318084" y2="-47.22128373575538"/><line fill="none" stroke="#f00" stroke-linecap="round" x1="-17.064698835715454" x2="-17.064698835715454" y1="-47.22128373575538" y2="-31.221283735755378"/><line fill="none" stroke="#000" stroke-linecap="round" x1="-17.064698835715454" x2="-11.592376542504754" y1="-31.221283735755378" y2="-46.256365668329906"/><line fill="none" stroke="#f00" stroke-linecap="round" x1="-11.592376542504754" x2="-11.592376542504752" y1="-46.256365668329906" y2="-30.256365668329906"/><line fill="none" stroke="#000" stroke-linecap="round" x1="-11.592376542504752" x2="-6.120054249294052" y1="-30.256365668329906" y2="-45.291447600904434"/><line fill="none" stroke="#f00" stroke-linecap="round" x1="-6.120054249294052" x2="-6.120054249294051" y1="-45.291447600904434" y2="-29.291447600904434"/><line fill="none" stroke="#000" stroke-linecap="round" x1="-6.120054249294051" x2="-0.6477319560833505" y1="-29.291447600904434" y2="-44.32652953347896"/><line fill="none" stroke="#f00" stroke-linecap="round" x1="-0.6477319560833505" x2="-0.6477319560833497" y1="-44.32652953347896" y2="-28.32652953347896"/><line fill="none" stroke="#000" stroke-linecap="round" x1="-0.6477319560833497" x2="4.824590337127351" y1="-28.32652953347896" y2="-43.36161146605349"/><line fill="none" stroke="#f00" stroke-linecap="round" x1="4.824590337127351" x2="4.8245903371273515" y1="-43.36161146605349" y2="-27.36161146605349"/><line fill="none" stroke="#000" stroke-linecap="round" x1="4.8245903371273515" x2="19.859672269701882" y1="-27.36161146605349" y2="-21.88928917284279"/><line fill="none" stroke="#f00" stroke-linecap="round" x1="19.859672269701882" x2="3.8596722697018837" y1="-21.88928917284279" y2="-21.889289172842787"/><line fill="none" stroke="#000" stroke-linecap="round" x1="3.8596722697018837" x2="18.894754202276417" y1="-21.889289172842787" y2="-16.41696687963209"/><line fill="none" stroke="#f00" stroke-linecap="round" x1="18.894754202276417" x2="2.8947542022764186" y1="-16.41696687963209" y2="-16.416966879632085"/><line fill="none" stroke="#000" stroke-linecap="round" x1="2.8947542022764186" x2="17.92983613485095" y1="-16.416966879632085" y2="-10.944644586421386"/><line fill="none" stroke="#f00" stroke-linecap="round" x1="17.92983613485095" x2="1.9298361348509534" y1="-10.944644586421386" y2="-10.944644586421385"/><line fill="none" stroke="#000" stroke-linecap="round" x1="1.9298361348509534" x2="16.964918067425486" y1="-10.944644586421385" y2="-5.472322293210685"/><line fill="none" stroke="#f00" stroke-linecap="round" x1="16.964918067425486" x2="0.9649180674254882" y1="-5.472322293210685" y2="-5.472322293210683"/><line fill="none" stroke="#000" stroke-linecap="round" x1="0.9649180674254882" x2="16.00000000000002" y1="-5.472322293210683" y2="1.5987211554602254e-14"/><line fill="none" stroke="#f00" stroke-linecap="round" x1="16.00000000000002" x2="2.3092638912203256e-14" y1="1.5987211554602254e-14" y2="1.7763568394002505e-14"/></svg>