<?xml version="1.0" ?><!DOCTYPE svg  PUBLIC '-//W3C//DTD SVG 1.1//EN'  'http://www.w3.org/Graphics/SVG/1.1/DTD/svg11.dtd'><svg height="83.000" viewBox="-69.000 -46.000 82.000 83.000" width="82.000" xmlns="http://www.w3.org/2000/svg"><line fill="none" stroke="none" stroke-linecap="round" stroke-width="2.0" x1="0.0" x2="0.0" y1="0.0" y2="0.0"/><polygon fill="none" fill-rule="evenodd" points="0.0,0.0 0.0,0.0 0.0,0.0" stroke-linejoin="round"/><line fill="none" stroke="#f00" stroke-linecap="round" stroke-width="2.0" x1="0.0" x2="6.123233995736766e-16" y1="-0.0" y2="-10.0"/><line fill="none" stroke="#000" stroke-linecap="round" stroke-width="2.0" x1="6.123233995736766e-16" x2="-3.420201433256686" y1="-10.0" y2="-19.396926207859085"/><line fill="none" stroke="#f00" stroke-linecap="round" stroke-width="2.0" x1="-3.420201433256686" x2="-9.84807753012208" y1="-19.396926207859085" y2="-27.057370639048866"/><line fill="none" stroke="#000" stroke-linecap="round" stroke-width="2.0" x1="-9.84807753012208" x2="-18.508331567966465" y1="-27.057370639048866" y2="-32.05737063904887"/><line fill="none" stroke="#f00" stroke-linecap="round" stroke-width="2.0" x1="-18.508331567966465" x2="-28.356409098088548" y1="-32.05737063904887" y2="-33.79385241571818"/><line fill="none" stroke="#000" stroke-linecap="round" stroke-width="2.0" x1="-28.356409098088548" x2="-38.20448662821063" y1="-33.79385241571818" y2="-32.05737063904888"/><line fill="none" stroke="#f00" stroke-linecap="round" stroke-width="2.0" x1="-38.20448662821063" x2="-46.86474066605502" y1="-32.05737063904888" y2="-27.057370639048877"/><line fill="none" stroke="#000" stroke-linecap="round" stroke-width="2.0" x1="-46.86474066605502" x2="-53.29261676292042" y1="-27.057370639048877" y2="-19.396926207859096"/><line fill="none" stroke="#f00" stroke-linecap="round" stroke-width="2.0" x1="-53.29261676292042" x2="-56.71281819617711" y1="-19.396926207859096" y2="-10.00000000000001"/><line fill="none" stroke="#000" stroke-linecap="round" stroke-width="2.0" x1="-56.71281819617711" x2="-56.71281819617712" y1="-10.00000000000001" y2="-8.881784197001252e-15"/><line fill="none" stroke="#f00" stroke-linecap="round" stroke-width="2.0" x1="-56.71281819617712" x2="-53.29261676292044" y1="-8.881784197001252e-15" y2="9.39692620785908"/><line fill="none" stroke="#000" stroke-linecap="round" stroke-width="2.0" x1="-53.29261676292044" x2="-46.86474066605505" y1="9.39692620785908" y2="17.057370639048866"/><line fill="none" stroke="#f00" stroke-linecap="round" stroke-width="2.0" x1="-46.86474066605505" x2="-38.20448662821066" y1="17.057370639048866" y2="22.057370639048873"/><line fill="none" stroke="#000" stroke-linecap="round" stroke-width="2.0" x1="-38.20448662821066" x2="-28.356409098088577" y1="22.057370639048873" y2="23.793852415718185"/><line fill="none" stroke="#f00" stroke-linecap="round" stroke-width="2.0" x1="-28.356409098088577" x2="-18.50833156796649" y1="23.793852415718185" y2="22.057370639048887"/><line fill="none" stroke="#000" stroke-linecap="round" stroke-width="2.0" x1="-18.50833156796649" x2="-9.848077530122094" y1="22.057370639048887" y2="17.05737063904889"/><line fill="none" stroke="#f00" stroke-linecap="round" stroke-width="2.0" x1="-9.848077530122094" x2="-3.4202014332566897" y1="17.05737063904889" y2="9.396926207859112"/><line fill="none" stroke="#000" stroke-linecap="round" stroke-width="2.0" x1="-3.4202014332566897" x2="8.43769498715119e-15" y1="9.396926207859112" y2="2.4868995751603507e-14"/></svg>