<?xml version="1.0" ?><!DOCTYPE svg  PUBLIC '-//W3C//DTD SVG 1.1//EN'  'http://www.w3.org/Graphics/SVG/1.1/DTD/svg11.dtd'><svg height="82.000" viewBox="-36.000 -69.000 83.000 82.000" width="83.000" xmlns="http://www.w3.org/2000/svg"><line fill="none" stroke="none" stroke-linecap="round" stroke-width="2.0" x1="0.0" x2="0.0" y1="0.0" y2="0.0"/><polygon fill="none" fill-rule="evenodd" points="0.0,0.0 0.0,0.0 0.0,0.0" stroke-linejoin="round"/><line fill="none" stroke="#f00" stroke-linecap="round" stroke-width="2.0" x1="0.0" x2="10.0" y1="-0.0" y2="-0.0"/><line fill="none" stroke="#000" stroke-linecap="round" stroke-width="2.0" x1="10.0" x2="19.396926207859085" y1="-0.0" y2="-3.420201433256687"/><line fill="none" stroke="#f00" stroke-linecap="round" stroke-width="2.0" x1="19.396926207859085" x2="27.057370639048866" y1="-3.420201433256687" y2="-9.84807753012208"/><line fill="none" stroke="#000" stroke-linecap="round" stroke-width="2.0" x1="27.057370639048866" x2="32.05737063904887" y1="-9.84807753012208" y2="-18.508331567966465"/><line fill="none" stroke="#f00" stroke-linecap="round" stroke-width="2.0" x1="32.05737063904887" x2="33.79385241571818" y1="-18.508331567966465" y2="-28.356409098088548"/><line fill="none" stroke="#000" stroke-linecap="round" stroke-width="2.0" x1="33.79385241571818" x2="32.05737063904888" y1="-28.356409098088548" y2="-38.20448662821063"/><line fill="none" stroke="#f00" stroke-linecap="round" stroke-width="2.0" x1="32.05737063904888" x2="27.057370639048877" y1="-38.20448662821063" y2="-46.86474066605502"/><line fill="none" stroke="#000" stroke-linecap="round" stroke-width="2.0" x1="27.057370639048877" x2="19.396926207859096" y1="-46.86474066605502" y2="-53.29261676292042"/><line fill="none" stroke="#f00" stroke-linecap="round" stroke-width="2.0" x1="19.396926207859096" x2="10.00000000000001" y1="-53.29261676292042" y2="-56.71281819617711"/><line fill="none" stroke="#000" stroke-linecap="round" stroke-width="2.0" x1="10.00000000000001" x2="8.881784197001252e-15" y1="-56.71281819617711" y2="-56.71281819617712"/><line fill="none" stroke="#f00" stroke-linecap="round" stroke-width="2.0" x1="8.881784197001252e-15" x2="-9.396926207859078" y1="-56.71281819617712" y2="-53.29261676292043"/><line fill="none" stroke="#000" stroke-linecap="round" stroke-width="2.0" x1="-9.396926207859078" x2="-17.057370639048862" y1="-53.29261676292043" y2="-46.86474066605504"/><line fill="none" stroke="#f00" stroke-linecap="round" stroke-width="2.0" x1="-17.057370639048862" x2="-22.05737063904887" y1="-46.86474066605504" y2="-38.20448662821066"/><line fill="none" stroke="#000" stroke-linecap="round" stroke-width="2.0" x1="-22.05737063904887" x2="-23.79385241571818" y1="-38.20448662821066" y2="-28.356409098088577"/><line fill="none" stroke="#f00" stroke-linecap="round" stroke-width="2.0" x1="-23.79385241571818" x2="-22.057370639048884" y1="-28.356409098088577" y2="-18.50833156796649"/><line fill="none" stroke="#000" stroke-linecap="round" stroke-width="2.0" x1="-22.057370639048884" x2="-17.057370639048887" y1="-18.50833156796649" y2="-9.848077530122096"/><line fill="none" stroke="#f00" stroke-linecap="round" stroke-width="2.0" x1="-17.057370639048887" x2="-9.396926207859108" y1="-9.848077530122096" y2="-3.4202014332566932"/><line fill="none" stroke="#000" stroke-linecap="round" stroke-width="2.0" x1="-9.396926207859108" x2="-2.1316282072803006e-14" y1="-3.4202014332566932" y2="3.9968028886505635e-15"/></svg>