<?xml version="1.0" ?><!DOCTYPE svg  PUBLIC '-//W3C//DTD SVG 1.1//EN'  'http://www.w3.org/Graphics/SVG/1.1/DTD/svg11.dtd'><svg height="86.000" viewBox="-27.000 -54.000 86.000 86.000" width="86.000" xmlns="http://www.w3.org/2000/svg"><line fill="none" stroke="none" stroke-linecap="round" stroke-width="2.0" x1="0.0" x2="0.0" y1="0.0" y2="0.0"/><polygon fill="none" fill-rule="evenodd" points="0.0,0.0 0.0,0.0 0.0,0.0" stroke-linejoin="round"/><line fill="none" stroke="#000" stroke-linecap="round" x1="0.0" x2="-15.035081932574533" y1="-0.0" y2="-5.472322293210702"/><line fill="none" stroke="#f00" stroke-linecap="round" x1="-15.035081932574533" x2="0.9649180674254652" y1="-5.472322293210702" y2="-5.472322293210702"/><line fill="none" stroke="#000" stroke-linecap="round" x1="0.9649180674254652" x2="-14.070163865149066" y1="-5.472322293210702" y2="-10.944644586421404"/><line fill="none" stroke="#f00" stroke-linecap="round" x1="-14.070163865149066" x2="1.929836134850932" y1="-10.944644586421404" y2="-10.944644586421404"/><line fill="none" stroke="#000" stroke-linecap="round" x1="1.929836134850932" x2="-13.1052457977236" y1="-10.944644586421404" y2="-16.416966879632106"/><line fill="none" stroke="#f00" stroke-linecap="round" x1="-13.1052457977236" x2="2.894754202276399" y1="-16.416966879632106" y2="-16.416966879632106"/><line fill="none" stroke="#000" stroke-linecap="round" x1="2.894754202276399" x2="-12.140327730298132" y1="-16.416966879632106" y2="-21.88928917284281"/><line fill="none" stroke="#f00" stroke-linecap="round" x1="-12.140327730298132" x2="3.859672269701866" y1="-21.88928917284281" y2="-21.88928917284281"/><line fill="none" stroke="#000" stroke-linecap="round" x1="3.859672269701866" x2="-11.175409662872665" y1="-21.88928917284281" y2="-27.36161146605351"/><line fill="none" stroke="#f00" stroke-linecap="round" x1="-11.175409662872665" x2="4.824590337127333" y1="-27.36161146605351" y2="-27.36161146605351"/><line fill="none" stroke="#000" stroke-linecap="round" x1="4.824590337127333" x2="10.296912630338033" y1="-27.36161146605351" y2="-42.396693398628045"/><line fill="none" stroke="#f00" stroke-linecap="round" x1="10.296912630338033" x2="10.296912630338035" y1="-42.396693398628045" y2="-26.396693398628045"/><line fill="none" stroke="#000" stroke-linecap="round" x1="10.296912630338035" x2="15.769234923548735" y1="-26.396693398628045" y2="-41.43177533120257"/><line fill="none" stroke="#f00" stroke-linecap="round" x1="15.769234923548735" x2="15.769234923548737" y1="-41.43177533120257" y2="-25.431775331202573"/><line fill="none" stroke="#000" stroke-linecap="round" x1="15.769234923548737" x2="21.24155721675944" y1="-25.431775331202573" y2="-40.4668572637771"/><line fill="none" stroke="#f00" stroke-linecap="round" x1="21.24155721675944" x2="21.24155721675944" y1="-40.4668572637771" y2="-24.4668572637771"/><line fill="none" stroke="#000" stroke-linecap="round" x1="21.24155721675944" x2="26.71387950997014" y1="-24.4668572637771" y2="-39.50193919635163"/><line fill="none" stroke="#f00" stroke-linecap="round" x1="26.71387950997014" x2="26.71387950997014" y1="-39.50193919635163" y2="-23.50193919635163"/><line fill="none" stroke="#000" stroke-linecap="round" x1="26.71387950997014" x2="32.18620180318084" y1="-23.50193919635163" y2="-38.537021128926156"/><line fill="none" stroke="#f00" stroke-linecap="round" x1="32.18620180318084" x2="32.18620180318084" y1="-38.537021128926156" y2="-22.537021128926156"/><line fill="none" stroke="#000" stroke-linecap="round" x1="32.18620180318084" x2="47.22128373575538" y1="-22.537021128926156" y2="-17.064698835715458"/><line fill="none" stroke="#f00" stroke-linecap="round" x1="47.22128373575538" x2="31.221283735755378" y1="-17.064698835715458" y2="-17.064698835715454"/><line fill="none" stroke="#000" stroke-linecap="round" x1="31.221283735755378" x2="46.256365668329906" y1="-17.064698835715454" y2="-11.592376542504756"/><line fill="none" stroke="#f00" stroke-linecap="round" x1="46.256365668329906" x2="30.256365668329906" y1="-11.592376542504756" y2="-11.592376542504754"/><line fill="none" stroke="#000" stroke-linecap="round" x1="30.256365668329906" x2="45.291447600904434" y1="-11.592376542504754" y2="-6.120054249294054"/><line fill="none" stroke="#f00" stroke-linecap="round" x1="45.291447600904434" x2="29.291447600904434" y1="-6.120054249294054" y2="-6.120054249294053"/><line fill="none" stroke="#000" stroke-linecap="round" x1="29.291447600904434" x2="44.32652953347896" y1="-6.120054249294053" y2="-0.6477319560833532"/><line fill="none" stroke="#f00" stroke-linecap="round" x1="44.32652953347896" x2="28.32652953347896" y1="-0.6477319560833532" y2="-0.6477319560833514"/><line fill="none" stroke="#000" stroke-linecap="round" x1="28.32652953347896" x2="43.36161146605349" y1="-0.6477319560833514" y2="4.824590337127348"/><line fill="none" stroke="#f00" stroke-linecap="round" x1="43.36161146605349" x2="27.36161146605349" y1="4.824590337127348" y2="4.82459033712735"/><line fill="none" stroke="#000" stroke-linecap="round" x1="27.36161146605349" x2="21.88928917284279" y1="4.82459033712735" y2="19.859672269701882"/><line fill="none" stroke="#f00" stroke-linecap="round" x1="21.88928917284279" x2="21.889289172842787" y1="19.859672269701882" y2="3.8596722697018837"/><line fill="none" stroke="#000" stroke-linecap="round" x1="21.889289172842787" x2="16.41696687963209" y1="3.8596722697018837" y2="18.894754202276417"/><line fill="none" stroke="#f00" stroke-linecap="round" x1="16.41696687963209" x2="16.416966879632085" y1="18.894754202276417" y2="2.8947542022764203"/><line fill="none" stroke="#000" stroke-linecap="round" x1="16.416966879632085" x2="10.944644586421388" y1="2.8947542022764203" y2="17.92983613485095"/><line fill="none" stroke="#f00" stroke-linecap="round" x1="10.944644586421388" x2="10.944644586421383" y1="17.92983613485095" y2="1.9298361348509552"/><line fill="none" stroke="#000" stroke-linecap="round" x1="10.944644586421383" x2="5.472322293210686" y1="1.9298361348509552" y2="16.964918067425486"/><line fill="none" stroke="#f00" stroke-linecap="round" x1="5.472322293210686" x2="5.472322293210682" y1="16.964918067425486" y2="0.96491806742549"/><line fill="none" stroke="#000" stroke-linecap="round" x1="5.472322293210682" x2="-1.509903313490213e-14" y1="0.96491806742549" y2="16.00000000000002"/><line fill="none" stroke="#f00" stroke-linecap="round" x1="-1.509903313490213e-14" x2="-1.9539925233402755e-14" y1="16.00000000000002" y2="2.4868995751603507e-14"/></svg>