<?xml version="1.0" ?><!DOCTYPE svg  PUBLIC '-//W3C//DTD SVG 1.1//EN'  'http://www.w3.org/Graphics/SVG/1.1/DTD/svg11.dtd'><svg height="216.000" viewBox="-103.000 -203.000 216.000 216.000" width="216.000" xmlns="http://www.w3.org/2000/svg"><line fill="none" stroke="none" stroke-linecap="round" stroke-width="2.0" x1="0.0" x2="0.0" y1="0.0" y2="0.0"/><polygon fill="none" fill-rule="evenodd" points="0.0,0.0 0.0,0.0 0.0,0.0" stroke-linejoin="round"/><line fill="none" stroke="#f00" stroke-linecap="round" stroke-width="2.0" x1="0.0" x2="10.0" y1="-0.0" y2="-0.0"/><line fill="none" stroke="#000" stroke-linecap="round" stroke-width="2.0" x1="10.0" x2="19.945218953682733" y1="-0.0" y2="-1.0452846326765346"/><line fill="none" stroke="#f00" stroke-linecap="round" stroke-width="2.0" x1="19.945218953682733" x2="29.72669496102079" y1="-1.0452846326765346" y2="-3.1244015408541275"/><line fill="none" stroke="#000" stroke-linecap="round" stroke-width="2.0" x1="29.72669496102079" x2="39.23726012397233" y1="-3.1244015408541275" y2="-6.214571484603601"/><line fill="none" stroke="#f00" stroke-linecap="round" stroke-width="2.0" x1="39.23726012397233" x2="48.37271470039833" y1="-6.214571484603601" y2="-10.281937915361603"/><line fill="none" stroke="#000" stroke-linecap="round" stroke-width="2.0" x1="48.37271470039833" x2="57.032968738242715" y1="-10.281937915361603" y2="-15.2819379153616"/><line fill="none" stroke="#f00" stroke-linecap="round" stroke-width="2.0" x1="57.032968738242715" x2="65.12313868199219" y1="-15.2819379153616" y2="-21.15979043828633"/><line fill="none" stroke="#000" stroke-linecap="round" stroke-width="2.0" x1="65.12313868199219" x2="72.55458693676613" y1="-21.15979043828633" y2="-27.85109650187491"/><line fill="none" stroke="#f00" stroke-linecap="round" stroke-width="2.0" x1="72.55458693676613" x2="79.24589300035471" y1="-27.85109650187491" y2="-35.282544756648846"/><line fill="none" stroke="#000" stroke-linecap="round" stroke-width="2.0" x1="79.24589300035471" x2="85.12374552327944" y1="-35.282544756648846" y2="-43.37271470039832"/><line fill="none" stroke="#f00" stroke-linecap="round" stroke-width="2.0" x1="85.12374552327944" x2="90.12374552327944" y1="-43.37271470039832" y2="-52.0329687382427"/><line fill="none" stroke="#000" stroke-linecap="round" stroke-width="2.0" x1="90.12374552327944" x2="94.19111195403744" y1="-52.0329687382427" y2="-61.16842331466871"/><line fill="none" stroke="#f00" stroke-linecap="round" stroke-width="2.0" x1="94.19111195403744" x2="97.28128189778691" y1="-61.16842331466871" y2="-70.67898847762024"/><line fill="none" stroke="#000" stroke-linecap="round" stroke-width="2.0" x1="97.28128189778691" x2="99.36039880596451" y1="-70.67898847762024" y2="-80.4604644849583"/><line fill="none" stroke="#f00" stroke-linecap="round" stroke-width="2.0" x1="99.36039880596451" x2="100.40568343864105" y1="-80.4604644849583" y2="-90.40568343864102"/><line fill="none" stroke="#000" stroke-linecap="round" stroke-width="2.0" x1="100.40568343864105" x2="100.40568343864105" y1="-90.40568343864102" y2="-100.40568343864102"/><line fill="none" stroke="#f00" stroke-linecap="round" stroke-width="2.0" x1="100.40568343864105" x2="99.36039880596452" y1="-100.40568343864102" y2="-110.35090239232375"/><line fill="none" stroke="#000" stroke-linecap="round" stroke-width="2.0" x1="99.36039880596452" x2="97.28128189778693" y1="-110.35090239232375" y2="-120.1323783996618"/><line fill="none" stroke="#f00" stroke-linecap="round" stroke-width="2.0" x1="97.28128189778693" x2="94.19111195403745" y1="-120.1323783996618" y2="-129.64294356261334"/><line fill="none" stroke="#000" stroke-linecap="round" stroke-width="2.0" x1="94.19111195403745" x2="90.12374552327945" y1="-129.64294356261334" y2="-138.77839813903935"/><line fill="none" stroke="#f00" stroke-linecap="round" stroke-width="2.0" x1="90.12374552327945" x2="85.12374552327945" y1="-138.77839813903935" y2="-147.43865217688375"/><line fill="none" stroke="#000" stroke-linecap="round" stroke-width="2.0" x1="85.12374552327945" x2="79.24589300035473" y1="-147.43865217688375" y2="-155.5288221206332"/><line fill="none" stroke="#f00" stroke-linecap="round" stroke-width="2.0" x1="79.24589300035473" x2="72.55458693676616" y1="-155.5288221206332" y2="-162.96027037540713"/><line fill="none" stroke="#000" stroke-linecap="round" stroke-width="2.0" x1="72.55458693676616" x2="65.12313868199223" y1="-162.96027037540713" y2="-169.6515764389957"/><line fill="none" stroke="#f00" stroke-linecap="round" stroke-width="2.0" x1="65.12313868199223" x2="57.032968738242765" y1="-169.6515764389957" y2="-175.52942896192044"/><line fill="none" stroke="#000" stroke-linecap="round" stroke-width="2.0" x1="57.032968738242765" x2="48.37271470039839" y1="-175.52942896192044" y2="-180.52942896192044"/><line fill="none" stroke="#f00" stroke-linecap="round" stroke-width="2.0" x1="48.37271470039839" x2="39.23726012397239" y1="-180.52942896192044" y2="-184.59679539267844"/><line fill="none" stroke="#000" stroke-linecap="round" stroke-width="2.0" x1="39.23726012397239" x2="29.726694961020865" y1="-184.59679539267844" y2="-187.68696533642793"/><line fill="none" stroke="#f00" stroke-linecap="round" stroke-width="2.0" x1="29.726694961020865" x2="19.94521895368282" y1="-187.68696533642793" y2="-189.7660822446055"/><line fill="none" stroke="#000" stroke-linecap="round" stroke-width="2.0" x1="19.94521895368282" x2="10.000000000000096" y1="-189.7660822446055" y2="-190.81136687728204"/><line fill="none" stroke="#f00" stroke-linecap="round" stroke-width="2.0" x1="10.000000000000096" x2="1.0658141036401503e-13" y1="-190.81136687728204" y2="-190.81136687728204"/><line fill="none" stroke="#000" stroke-linecap="round" stroke-width="2.0" x1="1.0658141036401503e-13" x2="-9.945218953682616" y1="-190.81136687728204" y2="-189.7660822446055"/><line fill="none" stroke="#f00" stroke-linecap="round" stroke-width="2.0" x1="-9.945218953682616" x2="-19.726694961020662" y1="-189.7660822446055" y2="-187.68696533642793"/><line fill="none" stroke="#000" stroke-linecap="round" stroke-width="2.0" x1="-19.726694961020662" x2="-29.237260123972185" y1="-187.68696533642793" y2="-184.59679539267847"/><line fill="none" stroke="#f00" stroke-linecap="round" stroke-width="2.0" x1="-29.237260123972185" x2="-38.372714700398184" y1="-184.59679539267847" y2="-180.52942896192047"/><line fill="none" stroke="#000" stroke-linecap="round" stroke-width="2.0" x1="-38.372714700398184" x2="-47.03296873824256" y1="-180.52942896192047" y2="-175.52942896192047"/><line fill="none" stroke="#f00" stroke-linecap="round" stroke-width="2.0" x1="-47.03296873824256" x2="-55.123138681992025" y1="-175.52942896192047" y2="-169.65157643899576"/><line fill="none" stroke="#000" stroke-linecap="round" stroke-width="2.0" x1="-55.123138681992025" x2="-62.55458693676596" y1="-169.65157643899576" y2="-162.9602703754072"/><line fill="none" stroke="#f00" stroke-linecap="round" stroke-width="2.0" x1="-62.55458693676596" x2="-69.24589300035453" y1="-162.9602703754072" y2="-155.52882212063327"/><line fill="none" stroke="#000" stroke-linecap="round" stroke-width="2.0" x1="-69.24589300035453" x2="-75.12374552327925" y1="-155.52882212063327" y2="-147.4386521768838"/><line fill="none" stroke="#f00" stroke-linecap="round" stroke-width="2.0" x1="-75.12374552327925" x2="-80.12374552327925" y1="-147.4386521768838" y2="-138.77839813903944"/><line fill="none" stroke="#000" stroke-linecap="round" stroke-width="2.0" x1="-80.12374552327925" x2="-84.19111195403725" y1="-138.77839813903944" y2="-129.64294356261345"/><line fill="none" stroke="#f00" stroke-linecap="round" stroke-width="2.0" x1="-84.19111195403725" x2="-87.28128189778673" y1="-129.64294356261345" y2="-120.13237839966193"/><line fill="none" stroke="#000" stroke-linecap="round" stroke-width="2.0" x1="-87.28128189778673" x2="-89.36039880596432" y1="-120.13237839966193" y2="-110.35090239232389"/><line fill="none" stroke="#f00" stroke-linecap="round" stroke-width="2.0" x1="-89.36039880596432" x2="-90.40568343864086" y1="-110.35090239232389" y2="-100.40568343864118"/><line fill="none" stroke="#000" stroke-linecap="round" stroke-width="2.0" x1="-90.40568343864086" x2="-90.40568343864086" y1="-100.40568343864118" y2="-90.40568343864119"/><line fill="none" stroke="#f00" stroke-linecap="round" stroke-width="2.0" x1="-90.40568343864086" x2="-89.36039880596434" y1="-90.40568343864119" y2="-80.46046448495848"/><line fill="none" stroke="#000" stroke-linecap="round" stroke-width="2.0" x1="-89.36039880596434" x2="-87.28128189778676" y1="-80.46046448495848" y2="-70.67898847762044"/><line fill="none" stroke="#f00" stroke-linecap="round" stroke-width="2.0" x1="-87.28128189778676" x2="-84.1911119540373" y1="-70.67898847762044" y2="-61.16842331466892"/><line fill="none" stroke="#000" stroke-linecap="round" stroke-width="2.0" x1="-84.1911119540373" x2="-80.12374552327931" y1="-61.16842331466892" y2="-52.03296873824293"/><line fill="none" stroke="#f00" stroke-linecap="round" stroke-width="2.0" x1="-80.12374552327931" x2="-75.12374552327933" y1="-52.03296873824293" y2="-43.37271470039856"/><line fill="none" stroke="#000" stroke-linecap="round" stroke-width="2.0" x1="-75.12374552327933" x2="-69.24589300035461" y1="-43.37271470039856" y2="-35.2825447566491"/><line fill="none" stroke="#f00" stroke-linecap="round" stroke-width="2.0" x1="-69.24589300035461" x2="-62.55458693676605" y1="-35.2825447566491" y2="-27.851096501875176"/><line fill="none" stroke="#000" stroke-linecap="round" stroke-width="2.0" x1="-62.55458693676605" x2="-55.12313868199213" y1="-27.851096501875176" y2="-21.159790438286606"/><line fill="none" stroke="#f00" stroke-linecap="round" stroke-width="2.0" x1="-55.12313868199213" x2="-47.03296873824268" y1="-21.159790438286606" y2="-15.281937915361885"/><line fill="none" stroke="#000" stroke-linecap="round" stroke-width="2.0" x1="-47.03296873824268" x2="-38.37271470039832" y1="-15.281937915361885" y2="-10.281937915361894"/><line fill="none" stroke="#f00" stroke-linecap="round" stroke-width="2.0" x1="-38.37271470039832" x2="-29.237260123972334" y1="-10.281937915361894" y2="-6.214571484603898"/><line fill="none" stroke="#000" stroke-linecap="round" stroke-width="2.0" x1="-29.237260123972334" x2="-19.726694961020822" y1="-6.214571484603898" y2="-3.124401540854427"/><line fill="none" stroke="#f00" stroke-linecap="round" stroke-width="2.0" x1="-19.726694961020822" x2="-9.94521895368279" y1="-3.124401540854427" y2="-1.0452846326768341"/><line fill="none" stroke="#000" stroke-linecap="round" stroke-width="2.0" x1="-9.94521895368279" x2="-8.348877145181177e-14" y1="-1.0452846326768341" y2="-2.973177259946169e-13"/></svg>