<?xml version="1.0" ?><!DOCTYPE svg  PUBLIC '-//W3C//DTD SVG 1.1//EN'  'http://www.w3.org/Graphics/SVG/1.1/DTD/svg11.dtd'><svg height="92.000" viewBox="-31.000 -79.000 63.000 92.000" width="63.000" xmlns="http://www.w3.org/2000/svg"><line fill="none" stroke="none" stroke-linecap="round" stroke-width="2.0" x1="0.0" x2="0.0" y1="0.0" y2="0.0"/><polygon fill="none" fill-rule="evenodd" points="0.0,0.0 0.0,0.0 0.0,0.0" stroke-linejoin="round"/><polyline fill="none" points="0.0,-0.0 4.898587196589413e-16,-8.0 4.134647531457998,-9.504888630632943 4.134647531457998,-11.924888630632942 5.3853784097240425,-12.380117441399408 6.636109287990086,-12.835346252165873 4.134647531457999,-11.924888630632942 4.134647531457999,-14.344888630632942 2.883916653191955,-14.800117441399408 1.633185774925911,-15.255346252165873 4.134647531457999,-14.344888630632942 4.307701999093308,-15.75430416596362 4.480756466728618,-17.163719701294294 4.134647531457999,-14.34488863063294 4.134647531457997,-9.504888630632944 8.26929506291599,-11.009777261265885 9.824841078357414,-9.155949708917959 11.075571956623458,-9.611178519684422 12.326302834889502,-10.066407330450886 9.824841078357416,-9.155949708917957 11.38038709379884,-7.302122156570031 10.71488709379884,-6.149442344132945 10.04938709379884,-4.996762531695858 11.38038709379884,-7.302122156570032 12.41890935009806,-6.333684485281285 13.45743160639728,-5.365246813992538 11.38038709379884,-7.302122156570032 8.269295062915994,-11.009777261265882 11.29871724515644,-12.553344960380338 11.070821572988816,-14.409406263949608 11.987221783116551,-14.87633549293173 12.903621993244286,-15.343264721913853 11.070821572988816,-14.409406263949608 10.842925900821191,-16.265467567518876 9.840786289189579,-16.496829726911542 8.838646677557966,-16.72819188630421 10.842925900821191,-16.26546756751888 11.298717245156439,-12.55334496038034 14.328139427396884,-14.096912659494794 15.695770849424731,-12.821575726177924 16.612171059552466,-13.288504955160047 17.5285712696802,-13.75543418414217 15.69577084942473,-12.821575726177924" stroke="#000" stroke-linecap="round" stroke-linejoin="round"/><polyline fill="none" points="15.69577084942473,-12.821575726177924 17.063402271452574,-11.546238792861054 16.661535305801358,-10.59949955108522 16.259668340150142,-9.652760309309386 17.063402271452578,-11.546238792861052 14.328139427396886,-14.096912659494793 16.31782960152898,-15.43897562782458 15.99849269933742,-16.719765986508893 15.67915579714586,-18.000556345193207 16.31782960152898,-15.438975627824583 18.307519775661078,-16.78103859615437 19.375422208236007,-16.00516206312831 20.443324640810935,-15.229285530102247 18.30751977566108,-16.78103859615437 19.364113187972958,-17.699521236741077 20.420706600284834,-18.618003877327784 18.307519775661078,-16.78103859615437 14.32813942739689,-14.096912659494794 8.269295062916008,-11.009777261265889 4.085620730620576e-14,-8.000000000000016 4.3520742565306136e-14,-15.999999999999988 -4.134647531457938,-17.504888630632927 -4.134647531457937,-19.924888630632918 -5.385378409723977,-20.38011744139938 -6.636109287990016,-20.835346252165845 -4.134647531457938,-19.924888630632918 -4.134647531457937,-22.34488863063291 -2.883916653191898,-22.800117441399372 -1.633185774925859,-23.255346252165836 -4.134647531457937,-22.344888630632912 -4.307701999093245,-23.754304165963582 -4.480756466728553,-25.163719701294255 -4.134647531457937,-22.344888630632912 -4.13464753145794,-17.504888630632934 -8.269295062915916,-19.00977726126587 -9.824841078357334,-17.155949708917955 -11.075571956623373,-17.61117851968442 -12.326302834889411,-18.066407330450883 -9.824841078357336,-17.155949708917955 -11.380387093798754,-15.30212215657004 -10.714887093798758,-14.149442344132957 -10.049387093798762,-12.996762531695875 -11.380387093798753,-15.30212215657004" stroke="#000" stroke-linecap="round" stroke-linejoin="round"/><polyline fill="none" points="-11.380387093798753,-15.30212215657004 -12.41890935009797,-14.333684485281298 -13.457431606397186,-13.365246813992556 -11.380387093798753,-15.30212215657004 -8.269295062915917,-19.00977726126587 -11.29871724515635,-20.553344960380322 -11.070821572988725,-22.409406263949585 -11.987221783116457,-22.876335492931705 -12.903621993244188,-23.343264721913826 -11.070821572988727,-22.409406263949585 -10.842925900821102,-24.265467567518844 -9.840786289189495,-24.496829726911507 -8.838646677557886,-24.72819188630417 -10.842925900821102,-24.265467567518844 -11.298717245156352,-20.553344960380326 -14.328139427396781,-22.096912659494777 -15.695770849424623,-20.821575726177915 -16.612171059552352,-21.288504955160036 -17.528571269680082,-21.755434184142157 -15.695770849424623,-20.821575726177915 -17.063402271452464,-19.546238792861054 -16.661535305801248,-18.599499551085227 -16.259668340150032,-17.6527603093094 -17.06340227145246,-19.546238792861057 -14.328139427396781,-22.09691265949478 -16.317829601528864,-23.438975627824565 -15.998492699337303,-24.71976598650887 -15.679155797145743,-26.00055634519318 -16.317829601528864,-23.43897562782457 -18.307519775660946,-24.781038596154353 -19.375422208235868,-24.005162063128296 -20.44332464081079,-23.22928553010224 -18.307519775660946,-24.781038596154353 -19.36411318797282,-25.699521236741056 -20.42070660028469,-26.61800387732776 -18.307519775660946,-24.781038596154353 -14.328139427396783,-22.096912659494787 -8.269295062915937,-19.009777261265892 -1.7763568394002505e-14,-16.00000000000003 0.8530854038360116,-22.94782306148922 4.604410153259135,-23.81388462071309 4.862468487919534,-25.91560109681357 5.9972442246200295,-26.17758471847879" stroke="#000" stroke-linecap="round" stroke-linejoin="round"/><polyline fill="none" points="5.9972442246200295,-26.17758471847879 7.132019961320525,-26.43956834014401 4.862468487919536,-25.915601096813567 5.120526822579935,-28.01731757291405 4.082838349347066,-28.546046258673215 3.045149876114197,-29.07477494443238 5.120526822579934,-28.01731757291405 5.390874540912561,-29.101623047027466 5.661222259245188,-30.185928521140884 5.120526822579935,-28.017317572914052 4.6044101532591375,-23.813884620713093 8.355734902682258,-24.679946179936962 9.509008059326566,-22.904061252312545 10.64378379602706,-23.166044873977764 11.778559532727554,-23.428028495642984 9.509008059326566,-22.90406125231254 10.662281215970875,-21.128176324688123 9.961392394632428,-20.198065443799305 9.260503573293981,-19.267954562910486 10.662281215970875,-21.128176324688123 11.380596369795576,-20.272121659502673 12.098911523620275,-19.416066994317223 10.662281215970875,-21.128176324688123 8.355734902682261,-24.679946179936955 11.033858871922071,-25.6547035884151 11.033858871922073,-27.22220358841508 11.033858871922074,-28.789703588415062 11.033858871922073,-25.654703588415096 13.71198284116188,-26.62946099689324 14.719552419345519,-25.428686332304256 15.727121997529157,-24.227911667715272 13.71198284116188,-26.62946099689324 15.360344910910342,-27.46934342141139 15.236342853995607,-28.479259130706424 15.112340797080872,-29.489174840001457 15.360344910910344,-27.46934342141139 17.008706980658804,-28.309225845929543 17.7528593720563,-27.615292514565958 18.497011763453795,-26.921359183202373 17.0087069806588,-28.309225845929543 13.711982841161877,-26.62946099689324 8.355734902682261,-24.679946179936955 0.8530854038360403,-22.947823061489217" stroke="#000" stroke-linecap="round" stroke-linejoin="round"/><polyline fill="none" points="0.8530854038360403,-22.947823061489217 1.7061708076720654,-29.895646122978384 -1.724204310453108,-31.64350954697562 -1.4661459757927102,-33.74522602307609 -2.5038344490255753,-34.273954708835255 -3.54152292225844,-34.80268339459442 -1.4661459757927102,-33.74522602307609 -1.2080876411323125,-35.84694249917656 -0.07331190443182178,-36.10892612084179 1.061463832268669,-36.37090974250701 -1.2080876411323125,-35.84694249917657 -1.2080876411323118,-36.964442499176556 -1.2080876411323112,-38.08194249917654 -1.2080876411323125,-35.84694249917657 -1.724204310453108,-31.643509546975626 -5.154579428578279,-33.39137297097286 -6.703220891756853,-31.947241443540538 -7.740909364989718,-32.475970129299704 -8.778597838222582,-33.004698815058866 -6.703220891756853,-31.947241443540538 -8.251862354935428,-30.503109916108215 -7.7968071144186135,-29.43106695115618 -7.341751873901799,-28.359023986204143 -8.251862354935426,-30.50310991610821 -9.155938846149418,-29.84625989667138 -10.06001533736341,-29.18940987723455 -8.251862354935426,-30.503109916108208 -5.154579428578279,-33.391372970972846 -7.517336510360115,-34.98507274586446 -7.138123939007641,-36.50601129680206 -6.758911367655166,-38.02694984773966 -7.517336510360115,-34.98507274586445 -9.88009359214195,-36.57877252075606 -11.148227730824663,-35.65741913778762 -12.416361869507377,-34.73606575481918 -9.88009359214195,-36.578772520756054 -11.276306315554057,-37.79248172438848 -10.91166692689172,-38.74239980834937 -10.547027538229381,-39.69231789231026 -11.276306315554057,-37.79248172438848 -12.672519038966165,-39.0061909280209 -13.562444590980487,-38.51289713942026 -14.452370142994809,-38.01960335081962" stroke="#000" stroke-linecap="round" stroke-linejoin="round"/><polyline fill="none" points="-14.452370142994809,-38.01960335081962 -12.672519038966163,-39.0061909280209 -9.880093592141948,-36.578772520756054 -5.154579428578281,-33.39137297097284 1.7061708076720494,-29.895646122978377 3.1577021812700368,-35.71742048063427 6.439624435985291,-36.06236440941752 6.878712676498682,-37.82345115260843 7.3178009170120735,-39.584537895799336 6.439624435985291,-36.06236440941752 9.721546690700542,-36.40730833820077 10.517190322122705,-34.77599714416781 11.312833953544867,-33.14468595013485 9.72154669070054,-36.40730833820078 11.962597839706547,-36.92469576319166 12.116762559114056,-38.18026664501791 12.270927278521565,-39.43583752684416 11.962597839706547,-36.92469576319166 14.203648988712551,-37.442083188182536 14.89261736800655,-36.38116491973159 15.581585747300547,-35.32024665128064 14.203648988712551,-37.44208318818253 15.425249395734212,-37.88670937450589 16.646849802755874,-38.33133556082925 14.203648988712551,-37.44208318818253 9.721546690700542,-36.40730833820077 3.157702181270044,-35.717420480634274 4.6092335548680285,-41.53919483829016 1.873409565436436,-43.384531419743595 2.3124978059498265,-45.145618162934504 2.751586046463217,-46.90670490612541 1.873409565436436,-43.3845314197436 -0.8624144239951561,-45.22986800119704 -2.330780268785663,-44.16303776828622 -3.7991461135761693,-43.096207535375406 -0.862414423995157,-45.22986800119705 -2.598246458507503,-46.73880376787519 -2.144911002332705,-47.91978300739413 -1.6915755461579074,-49.10076224691307 -2.5982464585075027,-46.73880376787519 -4.334078493019848,-48.24773953455333 -5.440472422551165,-47.63445536494173 -6.546866352082483,-47.021171195330126" stroke="#000" stroke-linecap="round" stroke-linejoin="round"/><polyline fill="none" points="-6.546866352082483,-47.021171195330126 -4.334078493019849,-48.24773953455334 -5.203948281286349,-49.21382780767394 -6.07381806955285,-50.179916080794534 -4.33407849301985,-48.24773953455334 -0.862414423995161,-45.229868001197055 4.609233554868016,-41.539194838290186 6.4010733025944875,-46.207096970776114 9.150654464274513,-46.159102853073584 9.69268598796177,-47.57114324815058 10.234717511649027,-48.98318364322757 9.150654464274513,-46.159102853073584 11.900235625954538,-46.111108735371054 12.392657459570978,-44.68101188977711 12.885079293187419,-43.250915044183174 11.900235625954538,-46.111108735371054 13.640648942848983,-46.294033546089445 15.381062259743429,-46.476958356807835 11.900235625954538,-46.111108735371054 6.401073302594492,-46.207096970776114 8.19291305032096,-50.874999103262034 6.117461704708378,-52.67916143298589 6.659493228395635,-54.091201828062886 7.201524752082892,-55.50324222313988 6.117461704708378,-52.6791614329859 4.042010359095796,-54.48332376270976 2.7191480520474847,-53.75004921208719 1.3962857449991732,-53.01677466146462 4.042010359095795,-54.483323762709766 2.8710317979678166,-55.78382720729518 1.7000532368398384,-57.0843306518806 4.042010359095794,-54.48332376270977 8.192913050320955,-50.874999103262056 10.070799301464483,-54.40678947469769 12.249389052695893,-54.10060865258555 12.81744964366681,-55.16897523994483 13.385510234637728,-56.23734182730411 12.249389052695895,-54.10060865258555 14.427978803927305,-53.79442783047341 14.679551949816789,-52.61086923358553 14.931125095706273,-51.427310636697655 14.427978803927306,-53.79442783047342 15.627796038114951,-53.773484942748674" stroke="#000" stroke-linecap="round" stroke-linejoin="round"/><polyline fill="none" points="15.627796038114951,-53.773484942748674 16.827613272302596,-53.75254205502393 14.427978803927308,-53.79442783047341 10.070799301464493,-54.40678947469769 11.948685552608017,-57.93857984613332 10.476598218618562,-59.57349846218356 11.044658809589478,-60.64186504954284 11.612719400560394,-61.710231636902115 10.476598218618562,-59.57349846218356 9.004510884629108,-61.20841707823379 7.882618420603319,-60.75514310020055 6.760725956577531,-60.301869122167304 9.004510884629108,-61.208417078233786 8.316219161007869,-62.191399531380554 7.62792743738663,-63.17438198452732 9.004510884629108,-61.208417078233786 11.948685552608014,-57.93857984613332 13.669414861661116,-60.39603597900024 15.263192475038043,-59.96898455458109 16.85697008841497,-59.541933130161944 13.669414861661116,-60.396035979000246 15.390144170714217,-62.85349211186716 14.443743050735014,-64.20509298494397 13.49734193075581,-65.55669385802078 15.390144170714217,-62.85349211186717 16.728405383431905,-64.33978176282193 17.748307623455347,-63.92771451006443 18.768209863478788,-63.51564725730694 16.728405383431905,-64.33978176282193 18.06666659614959,-65.82607141377669 17.550247877085123,-66.79731376592149 17.033829158020655,-67.76855611806629 18.066666596149588,-65.82607141377669 18.821376176372343,-66.48213044276719 19.5760857565951,-67.13818947175767 18.066666596149588,-65.82607141377669 15.390144170714217,-62.85349211186718 11.94868555260802,-57.93857984613335 8.192913050320977,-50.87499910326211 4.609233554868052,-41.53919483829033 1.7061708076720987,-29.895646122978658 6.283862319378386e-14,-16.00000000000049 4.796163466380676e-14,-8.828493491819245e-13" stroke="#000" stroke-linecap="round" stroke-linejoin="round"/><line fill="none" stroke="none" stroke-linecap="round" stroke-width="2.0" x1="0.0" x2="0.0" y1="0.0" y2="0.0"/></svg>