<?xml version="1.0" ?><!DOCTYPE svg  PUBLIC '-//W3C//DTD SVG 1.1//EN'  'http://www.w3.org/Graphics/SVG/1.1/DTD/svg11.dtd'><svg height="149.000" viewBox="-14.000 -59.000 114.000 149.000" width="114.000" xmlns="http://www.w3.org/2000/svg"><line fill="none" stroke="none" stroke-linecap="round" stroke-width="2.0" x1="0.0" x2="0.0" y1="0.0" y2="0.0"/><polygon fill="none" fill-rule="evenodd" points="0.0,0.0 0.0,0.0 0.0,0.0" stroke-linejoin="round"/><polyline fill="none" points="0.0,-0.0 3.061616997868383e-16,-5.0 6.123233995736766e-16,-10.0 0.13705371129833244,-14.998121275061196 0.5477613326259613,-19.981224650447203 1.3662771895237262,-24.91377285517941 2.7192785777348054,-29.727231823893995 4.716545138331051,-34.31099951935196 7.436194747015726,-38.50665274691752 10.904449297008496,-42.10820940709301 15.071246119519115,-44.871867171707756 19.785166552378897,-46.53888671348495 24.773899374668197,-46.87436372881304 29.63927859387888,-45.72193800310538 33.87777530141599,-43.0695531026437 36.936564635009816,-39.11432772187302 38.310031865312084,-34.30666844034258 37.67038390686496,-29.34775217877348 35.00915422326983,-25.114803257376934 30.74728614617554,-22.50013683631198 25.75780789918975,-22.17593501204872 21.248021279789732,-24.335060910990364 18.47853888496552,-28.497988638534856 18.35798103194213,-33.496535007638016 21.032174176048102,-37.72130612901449 25.65153075596063,-39.6348224701046 30.500783076603412,-38.416318497710336 33.569404899923484,-34.4687166807278 33.43031011453967,-29.47065179112512 30.055367466735877,-25.781510681864713 25.076698052645174,-25.320153049221936 21.154902963105144,-28.421688681075896 20.57489193824292,-33.38793346068939 23.768193360936312,-37.23537755044877 28.762985569557753,-37.46352397863594 32.210941751239076,-33.84252989286259 31.625022617067643,-28.876978687989986 27.36860810884114,-26.253443756993455 22.708636859200947,-28.0658090492364 21.44959948783527,-32.90469579078188 24.718356197621198,-36.68824301160912 29.675991026208415,-36.03873788739604 31.76415629112944,-31.495658994577056" stroke="#f00" stroke-linecap="round" stroke-linejoin="round" stroke-width="2.0"/><polyline fill="none" points="31.76415629112944,-31.495658994577056 28.942197077096765,-27.368123871245444 23.958175734718225,-27.767537514872252 21.921437826252184,-32.33390354183696 25.03270849486161,-36.247980039128585 29.921248613505888,-35.198134570306905 31.057809248875053,-30.329024803406053 27.08134333640885,-27.29789978998375 22.732403491903185,-29.765028126506003 23.384156504414793,-34.72236793840937 28.244655315812683,-35.895206931792416 31.013285406232217,-31.731712315196454 27.98348522862078,-27.754236874198014 23.26089073373944,-29.396522244319943 23.434226739876596,-34.393516803950405 28.27952876206387,-35.62763523983408 30.755021743165777,-31.28345125426035 27.170219333150918,-27.797882192951754 22.935928531943688,-30.456976288844537 24.586316464194883,-35.17674531635845 29.54671728842903,-34.548713738380705 29.901458704724774,-29.561313761682975 25.0629826331004,-28.300699108302176 22.996460397297906,-32.853663620456196 27.164871939386366,-35.614885309452525 30.507503060766084,-31.896442465144734 27.27583949314338,-28.081163892654892 23.08777536806626,-30.812485712624493 25.323266042437204,-35.28491027261436 30.004180780861386,-33.52734456641635 28.697258274046373,-28.70117076503079 23.777037724399968,-29.590794136372423 24.286138060170344,-34.564808294787994 29.283356011160585,-34.39803674355411 29.420786140355844,-29.399925804450277 24.43718496417521,-28.995303367144786 23.800555601159118,-33.95460806177142 28.73021837043666,-34.79032630448179 29.734625060894587,-29.892248395733972 24.86756991337676,-28.746921284808785 23.606432892391243,-33.58526122887016 28.41948034575782,-34.93972577681579 29.847360257454483,-30.147945423150446" stroke="#f00" stroke-linecap="round" stroke-linejoin="round" stroke-width="2.0"/><polyline fill="none" points="29.847360257454483,-30.147945423150446 25.0726262669185,-28.664060212084454 23.547709978122853,-33.42584877439649 28.30029856368133,-34.97920054924316 29.87182413691544,-30.23259045648525 25.12860809725589,-28.650850401635402 23.542330046992173,-33.39255072401466 28.28365073269323,-34.979963132729964 29.87106314140853,-30.23864244702891 25.130122363758606,-28.65009577071872 23.53703987231831,-33.38951431896559 28.27301797811903,-34.99279576068949 29.894409294848472,-30.26298707554858 25.17437667714735,-28.613353150146487 23.484188509248536,-33.31901611694457 28.169739855522618,-35.06418332424282 29.986327834032696,-30.40585657353794 25.36400116974852,-28.499526012316316 23.347917007005346,-33.07504834848037 27.863357989169625,-35.22232400302296 30.164333847303695,-30.78323512124956 25.821452865287405,-28.305456927778394 23.143808816903814,-32.52804172268257 27.21709798410033,-35.42775125303204 30.359147420237978,-31.538339299938475 26.69438272735387,-28.136942565391024 23.02156260405059,-31.529639478152095 26.08790981462534,-35.4790083877629 30.309614058768418,-32.79997623510322 28.08480805162905,-28.322226997975644 23.382399936706776,-30.02144973814633 24.48272403511198,-34.89887599371072 29.464211724877302,-34.46901508979347 29.769486458031817,-29.478343057161247 24.89007220178442,-28.386868588412803 22.983242612795408,-33.008989413159384 27.17882632087641,-35.72874626782219 30.666982132545396,-32.14646081946385 27.892395044625854,-27.98693362379002 23.219820496518157,-29.766553552981694 23.84427128867621,-34.72740642402849 28.803240354533763,-35.366644880215134 30.73533478567843,-30.75502790683803" stroke="#f00" stroke-linecap="round" stroke-linejoin="round" stroke-width="2.0"/><polyline fill="none" points="30.73533478567843,-30.75502790683803 26.85005374392698,-27.60787185309573 22.69529445795719,-30.3895934918741 24.046662991999217,-35.20351113608044 29.03787000933269,-35.49991037717448 31.02804075188167,-30.913057380238335 27.462482265375552,-27.407805223929998 22.874143198999803,-29.39454743467858 22.89993515839341,-34.394480911719114 27.471819500626076,-36.41880143012716 31.253487261359464,-33.14787053091364 30.00179162617264,-28.30707947604934 25.129611045325916,-27.183755663598035 21.809763764364448,-30.922554137853204 23.406085470031762,-35.66088264187395 28.290638533167034,-36.72912483043226 31.7942735873704,-33.161977313583904 30.74161842830253,-28.274041438790963 26.12011942506486,-26.365705262150893 21.86727303560533,-28.995020303689476 21.399079990514526,-33.97305156840935 25.01083406615992,-37.430685513328754 29.977935463582032,-36.8580567437692 32.80321796079692,-32.73279568403841 31.65411419603163,-27.866630814472 27.339782905063174,-25.33946926210332 22.502116922100253,-26.603189103398613 19.87274029218516,-30.85599741533278 20.786084598229678,-35.77186988912785 24.692837337487433,-38.89233187965137 29.692302812402666,-38.81922261121961 33.584973413423334,-35.681211203982635 34.83858490684197,-30.840915941958976 33.07565693873482,-26.162018103870864 29.01217916216775,-23.24857540504434 24.020911569735553,-22.953197984214523 19.581636475841123,-25.253814562597064 16.836245156530683,-29.43266925064915 16.357687733754503,-34.40971483946043 18.13495042469681,-39.08318649631088 21.709056192597053,-42.57972306266654 26.374522765033298,-44.377894817944664 31.374154682921354,-44.317226163476256" stroke="#f00" stroke-linecap="round" stroke-linejoin="round" stroke-width="2.0"/><polyline fill="none" points="31.374154682921354,-44.317226163476256 36.04390498119886,-42.53020849379943 39.89352830548203,-39.33953454287072 42.62946857131975,-35.15448605309574 44.13682377939461,-30.387109386973204 44.43918127995307,-25.39625976573074 43.65194970142421,-20.45862202671353 41.939639740152145,-15.76096361038221 39.482498094410566,-11.40637351110049 36.4540472929595,-7.427870558582995 33.008692994478984,-3.8044007080196067 29.277427701791222,-0.4760889264126442 25.369400983524745,2.642777401167838 21.37735224566203,5.653349917239945 17.385303507799318,8.66392243331205 13.477276789532837,11.782788760892531 9.74601149684507,15.11110054249949 6.300657198364548,18.73457039306287 3.2722063969134707,22.713073345580355 0.8150647511718723,27.067663444862063 -0.8972452101002122,31.765321861193375 -1.6844767886290941,36.702959600210576 -1.3821192880706534,41.693809221453044 0.1252359200041886,46.46118588757558 2.861176185841889,50.646234377350574 6.7107995101250495,53.83690832827929 11.380549808402542,55.62392599795614 16.380181726290598,55.68459465242458 21.045648298726853,53.88642289714648 24.61975406662712,50.389886330790844 26.397016757569467,45.716414673940406 25.91845933479333,40.73936908512912 23.173068015482922,36.560514397077014 18.733792921588506,34.25989781869444 13.742525329156303,34.555275239524214 9.679047552589214,37.46871793835071 7.91611958448202,42.147615776438805 9.169731077900611,46.98791103846248 13.062401678921253,50.12592244569949 18.061867153836484,50.1990317141313 21.968619893094274,47.07856972360782 22.88196419913885,42.16269724981276 20.252587569223806,37.909888937878556" stroke="#f00" stroke-linecap="round" stroke-linejoin="round" stroke-width="2.0"/><polyline fill="none" points="20.252587569223806,37.909888937878556 15.414921586260899,36.64616909658321 11.100590295292413,39.17333064895183 9.951486530527063,44.03949551851822 12.7767690277419,48.164756578249055 17.743870425164005,48.737385347808676 21.35562450080944,45.27975140288932 20.8874314557187,40.30172013816943 16.634585066259202,37.67240509663079 12.013086063021506,39.580741273270796 10.960430903953563,44.46867714806372 14.464065958156874,48.03582466491213 19.348619021292166,46.96758247635389 20.944940726959555,42.229253972333176 17.625093445998147,38.49045549807796 12.752912865151409,39.61377931052918 11.50121722996451,44.454570365393465 15.282884990697848,47.72550126460704 19.854769332930545,45.701180746199064 19.880561292324238,40.70124726915853 15.292222225948525,38.71450505840987 11.726663739442346,42.21975721471814 13.71683448199124,46.80661021165432 18.708041499324718,46.51021097056037 20.05941003336683,41.69629332635405 15.904650747397088,38.91457168757561 12.019369705645584,42.06172774131784 13.951464136790163,46.67334471469498 18.91043320264773,46.03410625850843 19.534883994805877,41.07325338746165 14.862309446698216,39.29363345826989 12.087722358778596,43.45316065394366 15.57587817044751,47.035446102302075 19.771461878528566,44.315689247639355 17.864632289539646,39.69356842289274 12.985218033292227,40.78504289164108 13.290492766446643,45.775714924273316 18.27198045621196,46.20557582819066 19.372304554617262,41.3281495726263 14.669896439695023,39.62892683245552 12.44509043255556,44.10667606958305 16.66679467669858,46.785708222242825 19.73314188727342,42.836339312632084" stroke="#f00" stroke-linecap="round" stroke-linejoin="round" stroke-width="2.0"/><polyline fill="none" points="19.73314188727342,42.836339312632084 16.060321763970215,39.44364239987093 12.395557071086031,42.8450391344183 15.537606507223593,46.734451087511935 19.610895674420174,43.83474155716256 16.933251626036675,39.61215676225832 12.590370644020329,42.08993495572939 14.891346502154299,46.52902383750284 19.406787484318627,44.38174818296035 17.390703321575558,39.80622584679625 12.76837665729134,41.71255640801777 14.584964635801311,46.37088315872269 19.27051598207543,44.62571595142455 17.580327814176727,39.92005298462644 12.860295196475565,41.569686910028416 14.481686513204895,46.29949559516936 19.21766461900565,44.696214153445574 17.624582127565468,39.95679560519867 12.883641349915505,41.545342281508745 14.471053758630694,46.286662967209836 19.212374444331786,44.69925055849465 17.62609639406818,39.95755023611535 12.882880354408595,41.539290290965084 14.45440592764259,46.28590038372303 19.206994513201103,44.73254860887648 17.682078224405565,39.97076004656441 12.90734423386955,41.45464525763029 14.335224145566098,46.24642561129566 19.148271598932702,44.89196106335015 17.8871345779473,40.05362111928875 13.020079430429448,41.19894823021382 14.024486120887259,46.09702613896166 18.954148890164817,45.2613078962514 18.317519527148843,40.30200320162476 13.333918350968203,40.706625638930134 13.471348480163343,45.704736578033966 18.468566431153576,45.871508129267966 18.97766676692407,40.897493970852416 14.057446217277688,40.00787059951067 12.750523710462563,44.8340444008962 17.431438448886702,46.59161010709431 19.66692912325775,42.11918554710449 15.478864998180693,39.3878637271348" stroke="#f00" stroke-linecap="round" stroke-linejoin="round" stroke-width="2.0"/><polyline fill="none" points="15.478864998180693,39.3878637271348 12.247201430557903,43.20314229962457 15.589832551937535,46.92158514393243 19.758244094026054,44.160363454936196 17.69172185822366,39.60739894278213 12.853245786599258,40.868013596162825 13.207987202894897,45.85541357286056 18.16838802712903,46.48344515083841 19.818775959380325,41.76367612332454 15.584485158173148,39.10458202743167 11.999682748158218,42.59015108874019 14.475175729260037,46.934335074313964 19.320477751447335,45.70021663843039 19.493813757584594,40.70322207879993 14.77121926270329,39.06093670867791 11.741419085091776,43.03841214967629 14.510049175511229,47.2019067662723 19.370547986909138,46.02906777288935 20.022300999420835,41.071727960985996 15.673361154915213,38.60459962446367 11.696895242448958,41.6357246378859 12.833455877818036,46.50483440478677 17.721995996462297,47.554679873608535 20.83326666507179,43.64060337631696 18.796528756605827,39.074237349352224 13.812507414227294,38.67482370572534 10.990548200194558,42.80235882905691 13.078713465115516,47.34543772187592 18.03634829370272,47.99494284608907 21.305105003488702,44.21139562526188 20.046067632123098,39.37250888371638 15.386096382482933,37.56014359147336 11.129681874256393,40.18367852246983 10.543762740084892,45.14922972734243 13.991718921766166,48.77022381311582 18.98651113038761,48.54207738492871 22.17981255308105,44.694633295169375 21.59980152821889,39.72838851555587 17.6780064386789,36.626852883701865 12.699337024588193,37.08821051634459 9.324394376784358,40.77735162560496 9.185299591400495,45.77541651520764 12.25392141472053,49.7230183321902" stroke="#f00" stroke-linecap="round" stroke-linejoin="round" stroke-width="2.0"/><polyline fill="none" points="12.25392141472053,49.7230183321902 17.1031737353633,50.94152230458452 21.722530315275844,49.02800596349446 24.396723459381857,44.80323484211801 24.276165606358514,39.80468847301485 21.50668321153434,35.641760745470336 16.99689659213434,33.482634846528654 12.007418345148551,33.80683667079188 7.745550268054241,36.421503091856806 5.084320584459082,40.654452013253334 4.444672626011929,45.61336827482243 5.818139856314163,50.42102755635288 8.876929189907969,54.37625293712359 13.11542589744506,57.02863783758529 17.980805116655738,58.18106356329298 22.969537938945038,57.84558654796491 27.68345837180483,56.17856700618774 31.850255194315462,53.414909241573014 35.318509744308244,49.81335258139754 38.038159352992935,45.61769935383199 40.03542591358919,41.03393165837402 41.38842730180027,36.22047268965944 42.20694315869804,31.28792448492723 42.61765078002568,26.304821109541226 42.75470449132402,21.306699834480032 42.75470449132403,16.306699834480032 42.754704491324034,11.306699834480032 42.89175820262237,6.308578559418836 43.302465823949994,1.3254751840328307 44.12098168084775,-3.607073020699378 45.47398306905882,-8.420531989413966 47.471249629655055,-13.004299684871938 50.19089923833972,-17.199952912437507 53.659153788332475,-20.801509572613014 57.82595061084308,-23.56516733722779 62.53987104370285,-25.23218687900502 67.52860386599215,-25.56766389433315 72.39398308520285,-24.41523816862554 76.63247979273999,-21.7628532681639 79.69126912633385,-17.80762788739324 81.06473635663615,-12.999968605862808 80.42508839818906,-8.041052344293707 77.76385871459395,-3.8081034228971484" stroke="#f00" stroke-linecap="round" stroke-linejoin="round" stroke-width="2.0"/><polyline fill="none" points="77.76385871459395,-3.8081034228971484 73.50199063749967,-1.1934370018321703 68.51251239051389,-0.8692351775688759 64.00272577111386,-3.0283610765104862 61.23324337628962,-7.191288804054959 61.112685523266194,-12.189835173158116 63.786878667372136,-16.414606294534607 68.40623524728464,-18.328122635624748 73.25548756792743,-17.109618663230517 76.32410939124753,-13.162016846248013 76.18501460586377,-8.163951956645334 72.81007195806,-4.474810847384896 67.83140254396932,-4.013453214742067 63.909607454429256,-7.114988846595978 63.329596429566976,-12.081233626209462 66.52289785226031,-15.928677715968885 71.51769006088175,-16.156824144156136 74.96564624256312,-12.535830058382844 74.37972710839178,-7.570278853510229 70.12331260016532,-4.946743922513633 65.4633413505251,-6.759109214756505 64.20430397915935,-11.597995956301961 67.47306068894522,-15.381543177129242 72.43069551753244,-14.732038052916236 74.51886078245353,-10.18895916009729 71.69690156842091,-6.061424036765638 66.71288022604237,-6.460837680392373 64.67614231757626,-11.027203707357042 67.78741298618563,-14.941280204648711 72.67595310482992,-13.891434735827108 73.81251374019915,-9.022324968926277 69.836047827733,-5.991199955503912 65.48710798322729,-8.458328292026092 66.13886099573881,-13.415668103929463 70.99935980713667,-14.588507097312586 73.76798989755628,-10.425012480716676 70.73818971994491,-6.447537039718185 66.01559522506355,-8.089822409840023 66.18893123120061,-13.086816969470485 71.03423325338785,-14.32093540535425 73.50972623448985,-9.97675141978058 69.92492382447506,-6.491182358471914 65.69063302326778,-9.150276454364608" stroke="#f00" stroke-linecap="round" stroke-linejoin="round" stroke-width="2.0"/><polyline fill="none" points="65.69063302326778,-9.150276454364608 67.34102095551889,-13.870045481878549 72.30142177975304,-13.242013903900894 72.65616319604888,-8.254613927203176 67.81768712442454,-6.993999273822288 65.75116488862196,-11.546963785976263 69.91957643071036,-14.30818547497267 73.26220755209015,-10.589742630664947 70.03054398446751,-6.774464058175049 65.84247985939035,-9.505785878144568 68.0779705337612,-13.978210438134475 72.75888527218541,-12.220644731936561 71.4519627653705,-7.394470930550977 66.53174221572408,-8.284094301892512 67.04084255149436,-13.258108460308083 72.0380605024846,-13.091336909074299 72.17549063167996,-8.093225969970474 67.19188945549935,-7.68860353266488 66.55526009248315,-12.647908227291493 71.48492286176067,-13.483626470001969 72.48932955221869,-8.585548561254178 67.62227440470089,-7.440221450328886 66.36113738371527,-12.278561394390227 71.17418483708181,-13.633025942335959 72.60206474877857,-8.841245588670652 67.82733075824262,-7.357360377604561 66.30241446944687,-12.11914893991656 71.05500305500532,-13.672500714763325 72.62652862823953,-8.925890622005458 67.88331258858001,-7.34415056715551 66.2970345383162,-12.08585088953473 71.03835522401721,-13.67326329825013 72.62576763273262,-8.931942612549117 67.88482685508274,-7.343395936238829 66.29174436364234,-12.082814484485652 71.02772246944302,-13.686095926209655 72.64911378617256,-8.956287241068782 67.92908116847148,-7.306653315666594 66.23889300057257,-12.012316282464631 70.92444434684661,-13.75748348976298 72.74103232535678,-9.099156739058142 68.11870566107265,-7.192826177836423 66.10262149832938,-11.768348514000433" stroke="#f00" stroke-linecap="round" stroke-linejoin="round" stroke-width="2.0"/><polyline fill="none" points="66.10262149832938,-11.768348514000433 70.61806248049362,-13.915624168543111 72.91903833862779,-9.476535286769764 68.57615735661155,-6.9987570932985115 65.89851330822788,-11.22134188820263 69.97180247542433,-14.121051418552181 73.11385191156205,-10.231639465458683 69.44908721867802,-6.830242730911156 65.77626709537466,-10.222939643672145 68.84261430594933,-14.172308553283015 73.06431855009245,-11.493276400623428 70.83951254295319,-7.015527163495807 66.13710442803088,-8.714749903666394 67.23742852643598,-13.592176159230796 72.21891621620131,-13.162315255313656 72.52419094935593,-8.171643222681443 67.64477669310855,-7.080168753932901 65.73794710411946,-11.70228957867944 69.9335308122004,-14.422046433342322 73.42168662386945,-10.83976098498405 70.64709953594998,-6.680233789310177 65.97452498784226,-8.459853718501769 66.59897578000023,-13.420706589548566 71.55794484585778,-14.059945045735285 73.49003927700251,-9.448328072358217 69.60475823525111,-6.301172018615857 65.44999894928128,-9.082893657394155 66.80136748332323,-13.896811301600511 71.7925745006567,-14.193210542694628 73.78274524320575,-9.606357545758522 70.2171867566997,-6.1011053894501295 65.62884769032392,-8.08784760019863 65.65463964971744,-13.08778107723916 70.22652399195006,-15.112101595647282 74.0081917526835,-11.841170696433831 72.75649611749675,-7.000379641569514 67.88431553665005,-5.87705582911814 64.56446825568852,-9.615854303373254 66.16078996135577,-14.35418280739401 71.04534302449102,-15.422424995952388 74.54897807869442,-11.855277479104078 73.4963229196266,-6.967341604311135 68.87482391638896,-5.059005427671012" stroke="#f00" stroke-linecap="round" stroke-linejoin="round" stroke-width="2.0"/><polyline fill="none" points="68.87482391638896,-5.059005427671012 64.62197752692941,-7.688320469209546 64.15378448183856,-12.666351733929416 67.76553855748392,-16.123985678848843 72.73263995490603,-15.55135690928932 75.55792245212095,-11.426095849558553 74.4088186873557,-6.559930979992143 70.09448739638728,-4.0327694276234345 65.25682141342435,-5.296489268918686 62.62744478350922,-9.549297580852823 63.54078908955369,-14.465170054647896 67.44754182881141,-17.585632045171458 72.44700730372664,-17.512522776739747 76.33967790474733,-14.374511369502818 77.59328939816601,-9.534216107479175 75.8303614300589,-4.855318269391056 71.76688365349187,-1.941875570564494 66.77561606105968,-1.6464981497346338 62.33634096716523,-3.9471147281171297 59.59094964785476,-8.12596941616919 59.112392225078544,-13.10301500498046 60.889654916020824,-17.776486661830916 64.46376068392104,-21.273023228186588 69.12922725635727,-23.071194983464736 74.12885917424532,-23.01052632899634 78.79860947252283,-21.22350865931953 82.648232796806,-18.032834708390837 85.38417306264373,-13.847786218615868 86.8915282707186,-9.080409552493343 87.19388577127707,-4.089559931250886 86.40665419274822,0.8480778077663178 84.69434423147617,5.545736224097635 82.23720258573461,9.900326323379359 79.20875178428356,13.87882927589686 75.76339748580307,17.50229912646026 72.03213219311533,20.830610908067236 68.12410547484888,23.949477235647734 64.13205673698617,26.96004975171985 60.14000799912347,29.970622267791963 56.231981280857006,33.08948859537245 52.500715988169254,36.417800376979415 49.05536168968875,40.0412702275428 46.02691088823769,44.01977318006029" stroke="#f00" stroke-linecap="round" stroke-linejoin="round" stroke-width="2.0"/><polyline fill="none" points="46.02691088823769,44.01977318006029 43.5697692424961,48.374363279342 41.85745928122402,53.0720216956733 41.07022770269512,58.0096594346905 41.37258520325355,63.00050905593296 42.87994041132837,67.7678857220555 45.61588067716605,71.9529342118305 49.465504001449176,75.14360816275924 54.135254299726654,76.9306258324361 59.13488621761471,76.99129448690458 63.800352790050965,75.1931227316265 67.37445855795124,71.69658616527089 69.15172124889361,67.02311450842046 68.67316382611749,62.04606891960918 65.9277725068071,57.867214231557064 61.4884974129127,55.56659765317447 56.4972298204805,55.861975074004214 52.433752043913394,58.77541777283068 50.670824075806166,63.454315610918755 51.92443556922472,68.29461087294243 55.81710617024534,71.43262228017946 60.816571645160565,71.50573154861131 64.72332438441838,68.38526955808786 65.636668690463,63.46939708429281 63.007292060548,59.21658877235859 58.16962607758511,57.952868931063186 53.8552947866166,60.480030483431754 52.70619102185118,65.34619535299812 55.531473519065955,69.47145641272898 60.498574916488046,70.04408518228868 64.11032899213353,66.58645123736939 63.64213594704287,61.6084199726495 59.38928955758341,58.9791049311108 54.767790554345694,60.88744110775073 53.715135395277684,65.77537698254363 57.21877044948094,69.34252449939208 62.103323512616235,68.27428231083391 63.699645218283685,63.535953806813225 60.37979793732233,59.79715533255796 55.507617356475585,60.92047914500912 54.255921721288615,65.76127019987338 58.0375894820219,69.032201099087 62.60947382425462,67.0078805806791" stroke="#f00" stroke-linecap="round" stroke-linejoin="round" stroke-width="2.0"/><polyline fill="none" points="62.60947382425462,67.0078805806791 62.635265783648386,62.00794710363857 58.04692671727271,60.02120489288985 54.481368230766485,63.526457049198065 56.471538973315305,68.11331004613427 61.462745990648784,67.81691080504041 62.81411452469098,63.00299316083412 58.6593552387213,60.2212715220556 54.774074196969735,63.36842757579775 56.70616862811422,67.98004454917492 61.66513769397179,67.34080609298847 62.28958848613004,62.37995322194171 57.617013938022424,60.60033329274986 54.842426850102726,64.75986048842357" stroke="#f00" stroke-linecap="round" stroke-linejoin="round" stroke-width="2.0"/></svg>