<?xml version="1.0" ?><!DOCTYPE svg  PUBLIC '-//W3C//DTD SVG 1.1//EN'  'http://www.w3.org/Graphics/SVG/1.1/DTD/svg11.dtd'><svg height="153.000" viewBox="-15.000 -60.000 294.000 153.000" width="294.000" xmlns="http://www.w3.org/2000/svg"><line fill="none" stroke="none" stroke-linecap="round" stroke-width="2.0" x1="0.0" x2="0.0" y1="0.0" y2="0.0"/><polygon fill="none" fill-rule="evenodd" points="0.0,0.0 0.0,0.0 0.0,0.0" stroke-linejoin="round"/><polyline fill="none" points="0.0,-0.0 3.061616997868383e-16,-5.0 6.123233995736766e-16,-10.0 0.13705371129833244,-14.998121275061196 0.5477613326259613,-19.981224650447203 1.3662771895237262,-24.91377285517941 2.7192785777348054,-29.727231823893995 4.716545138331051,-34.31099951935196 7.436194747015726,-38.50665274691752 10.904449297008496,-42.10820940709301 15.071246119519115,-44.871867171707756 19.785166552378897,-46.53888671348495 24.773899374668197,-46.87436372881304 29.63927859387888,-45.72193800310538 33.87777530141599,-43.0695531026437 36.936564635009816,-39.11432772187302 38.310031865312084,-34.30666844034258 37.67038390686496,-29.34775217877348 35.00915422326983,-25.114803257376934 30.74728614617554,-22.50013683631198 25.75780789918975,-22.17593501204872 21.248021279789732,-24.335060910990364 18.47853888496552,-28.497988638534856 18.35798103194213,-33.496535007638016 21.032174176048102,-37.72130612901449 25.65153075596063,-39.6348224701046 30.500783076603412,-38.416318497710336 33.569404899923484,-34.4687166807278 33.43031011453967,-29.47065179112512 30.055367466735877,-25.781510681864713 25.076698052645174,-25.320153049221936 21.154902963105144,-28.421688681075896 20.57489193824292,-33.38793346068939 23.768193360936312,-37.23537755044877 28.762985569557753,-37.46352397863594 32.210941751239076,-33.84252989286259 31.625022617067643,-28.876978687989986 27.36860810884114,-26.253443756993455 22.708636859200947,-28.0658090492364 21.44959948783527,-32.90469579078188 24.718356197621198,-36.68824301160912 29.675991026208415,-36.03873788739604 31.76415629112944,-31.495658994577056" stroke="#000" stroke-linecap="round" stroke-linejoin="round" stroke-width="3.0"/><polyline fill="none" points="31.76415629112944,-31.495658994577056 28.942197077096765,-27.368123871245444 23.958175734718225,-27.767537514872252 21.921437826252184,-32.33390354183696 25.03270849486161,-36.247980039128585 29.921248613505888,-35.198134570306905 31.057809248875053,-30.329024803406053 27.08134333640885,-27.29789978998375 22.732403491903185,-29.765028126506003 23.384156504414793,-34.72236793840937 28.244655315812683,-35.895206931792416 31.013285406232217,-31.731712315196454 27.98348522862078,-27.754236874198014 23.26089073373944,-29.396522244319943 23.434226739876596,-34.393516803950405 28.27952876206387,-35.62763523983408 30.755021743165777,-31.28345125426035 27.170219333150918,-27.797882192951754 22.935928531943688,-30.456976288844537 24.586316464194883,-35.17674531635845 29.54671728842903,-34.548713738380705 29.901458704724774,-29.561313761682975 25.0629826331004,-28.300699108302176 22.996460397297906,-32.853663620456196 27.164871939386366,-35.614885309452525 30.507503060766084,-31.896442465144734 27.27583949314338,-28.081163892654892 23.08777536806626,-30.812485712624493 25.323266042437204,-35.28491027261436 30.004180780861386,-33.52734456641635 28.697258274046373,-28.70117076503079 23.777037724399968,-29.590794136372423 24.286138060170344,-34.564808294787994 29.283356011160585,-34.39803674355411 29.420786140355844,-29.399925804450277 24.43718496417521,-28.995303367144786 23.800555601159118,-33.95460806177142 28.73021837043666,-34.79032630448179 29.734625060894587,-29.892248395733972 24.86756991337676,-28.746921284808785 23.606432892391243,-33.58526122887016 28.41948034575782,-34.93972577681579 29.847360257454483,-30.147945423150446" stroke="#000" stroke-linecap="round" stroke-linejoin="round" stroke-width="3.0"/><polyline fill="none" points="29.847360257454483,-30.147945423150446 25.0726262669185,-28.664060212084454 23.547709978122853,-33.42584877439649 28.30029856368133,-34.97920054924316 29.87182413691544,-30.23259045648525 25.12860809725589,-28.650850401635402 23.542330046992173,-33.39255072401466 28.28365073269323,-34.979963132729964 29.87106314140853,-30.23864244702891 25.130122363758606,-28.65009577071872 23.53703987231831,-33.38951431896559 28.27301797811903,-34.99279576068949 29.894409294848472,-30.26298707554858 25.17437667714735,-28.613353150146487 23.484188509248536,-33.31901611694457 28.169739855522618,-35.06418332424282 29.986327834032696,-30.40585657353794 25.36400116974852,-28.499526012316316 23.347917007005346,-33.07504834848037 27.863357989169625,-35.22232400302296 30.164333847303695,-30.78323512124956 25.821452865287405,-28.305456927778394 23.143808816903814,-32.52804172268257 27.21709798410033,-35.42775125303204 30.359147420237978,-31.538339299938475 26.69438272735387,-28.136942565391024 23.02156260405059,-31.529639478152095 26.08790981462534,-35.4790083877629 30.309614058768418,-32.79997623510322 28.08480805162905,-28.322226997975644 23.382399936706776,-30.02144973814633 24.48272403511198,-34.89887599371072 29.464211724877302,-34.46901508979347 29.769486458031817,-29.478343057161247 24.89007220178442,-28.386868588412803 22.983242612795408,-33.008989413159384 27.17882632087641,-35.72874626782219 30.666982132545396,-32.14646081946385 27.892395044625854,-27.98693362379002 23.219820496518157,-29.766553552981694 23.84427128867621,-34.72740642402849 28.803240354533763,-35.366644880215134 30.73533478567843,-30.75502790683803" stroke="#000" stroke-linecap="round" stroke-linejoin="round" stroke-width="3.0"/><polyline fill="none" points="30.73533478567843,-30.75502790683803 26.85005374392698,-27.60787185309573 22.69529445795719,-30.3895934918741 24.046662991999217,-35.20351113608044 29.03787000933269,-35.49991037717448 31.02804075188167,-30.913057380238335 27.462482265375552,-27.407805223929998 22.874143198999803,-29.39454743467858 22.89993515839341,-34.394480911719114 27.471819500626076,-36.41880143012716 31.253487261359464,-33.14787053091364 30.00179162617264,-28.30707947604934 25.129611045325916,-27.183755663598035 21.809763764364448,-30.922554137853204 23.406085470031762,-35.66088264187395 28.290638533167034,-36.72912483043226 31.7942735873704,-33.161977313583904 30.74161842830253,-28.274041438790963 26.12011942506486,-26.365705262150893 21.86727303560533,-28.995020303689476 21.399079990514526,-33.97305156840935 25.01083406615992,-37.430685513328754 29.977935463582032,-36.8580567437692 32.80321796079692,-32.73279568403841 31.65411419603163,-27.866630814472 27.339782905063174,-25.33946926210332 22.502116922100253,-26.603189103398613 19.87274029218516,-30.85599741533278 20.786084598229678,-35.77186988912785 24.692837337487433,-38.89233187965137 29.692302812402666,-38.81922261121961 33.584973413423334,-35.681211203982635 34.83858490684197,-30.840915941958976 33.07565693873482,-26.162018103870864 29.01217916216775,-23.24857540504434 24.020911569735553,-22.953197984214523 19.581636475841123,-25.253814562597064 16.836245156530683,-29.43266925064915 16.357687733754503,-34.40971483946043 18.13495042469681,-39.08318649631088 21.709056192597053,-42.57972306266654 26.374522765033298,-44.377894817944664 31.374154682921354,-44.317226163476256" stroke="#000" stroke-linecap="round" stroke-linejoin="round" stroke-width="3.0"/><polyline fill="none" points="31.374154682921354,-44.317226163476256 36.04390498119886,-42.53020849379943 39.89352830548203,-39.33953454287072 42.62946857131975,-35.15448605309574 44.13682377939461,-30.387109386973204 44.43918127995307,-25.39625976573074 43.65194970142421,-20.45862202671353 41.939639740152145,-15.76096361038221 39.482498094410566,-11.40637351110049 36.4540472929595,-7.427870558582995 33.008692994478984,-3.8044007080196067 29.277427701791222,-0.4760889264126442 25.369400983524745,2.642777401167838 21.37735224566203,5.653349917239945 17.385303507799318,8.66392243331205 13.477276789532837,11.782788760892531 9.74601149684507,15.11110054249949 6.300657198364548,18.73457039306287 3.2722063969134707,22.713073345580355" stroke="#000" stroke-linecap="round" stroke-linejoin="round" stroke-width="3.0"/><polyline fill="none" points="3.2722063969134707,22.713073345580355 0.8150647511718723,27.067663444862063 -1.0247861962396017,31.716851383772376 -2.0799538169193035,36.604245504596804 -2.1859471713539653,41.60312191923397 -1.205284239810289,46.506008845800416 0.938602737225563,51.02305972327524 4.220105046692972,54.79555791319662 8.469161081704371,57.43099389445916 13.339104071520007,58.563979011724854 18.300235719643158,57.9417469248064 22.67664037500837,55.5236728373356 25.740108614039542,51.57207033348387 26.862922148514357,46.69977213173142 25.709591875295615,41.834607254681806 22.419572252551195,38.069534761095966 17.707853711215865,36.396301846276 12.8036001063052,37.37010705201316 9.175760067004955,40.81085938969311 8.06788767657542,45.68657664631535 9.970356832953627,50.310493936776936 14.254870155404593,52.88788517400504 19.217534771397975,52.278000013366345 22.66186290253835,48.65355471442264 22.89575943455684,43.65902846939101 19.710576041124433,39.80486101711257 14.74570644719615,39.213193952551386 10.816641696066611,42.305515116569026 10.342407711155678,47.28297452148189 13.7042567133421,50.98405156560002 18.703032828048695,50.87342898635477 21.80910641035119,46.955226987819906 20.66590901654228,42.0876711618649 16.094015150097057,40.06337215382271 11.776201544613661,42.58457933854643 11.400484957544894,47.570443059728696 15.35816989183829,50.62604937613582 20.051229460045498,48.90117492004958 20.985943576174027,43.98932094002227 17.1869004155878,40.73858701304469 12.513614920133518,42.51633915492968 11.934286054010588,47.482663556826594 16.126975566748794,50.20687989364258" stroke="#f00" stroke-linecap="round" stroke-linejoin="round" stroke-width="3.0"/><polyline fill="none" points="16.126975566748794,50.20687989364258 20.37980958544815,47.577544842837234 19.722985978924463,42.62087431213689 14.906434740452944,41.278922685893036 11.852623282985403,45.23799272597063 14.450170959661822,49.510315989417926 19.354225101637425,48.53550679138379 20.03596184924018,43.582201328668205 15.540437369459033,41.39353514770582 12.121023147974563,45.0414943555246 14.664417621550951,49.34627594717139 19.48974590119588,48.03623511053349 19.431313238742256,43.03657655979639 14.559582043731755,41.91130540866809 12.378634366084809,46.4105794864907 16.323050867069632,49.48329464848646 20.108194358232684,46.21638651520417 17.588394800325744,41.897751292362116 12.903596620743166,43.64493932362257 13.887125252471161,48.54725218905367 18.880668569163017,48.29323418905736 19.305042388708834,43.311276053817345 14.414729111132619,42.26972142387141 12.821848252426364,47.0092077430802 17.369676587135405,49.0870088495429 19.868336173109892,44.75610821879439 15.766857622364503,41.89641003580802 12.600594361172842,45.76613573162006 16.244058505543286,49.19033914682293 19.883492390109282,45.7618524544362 16.654618007391175,41.94421310260806 12.690531020456408,44.99150934026112 15.575809344782208,49.075033429963014 19.755947621061306,46.331596900501026 17.134275359424546,42.0740348571992 12.815368117381936,44.593368148892054 15.250711693706489,48.960186403096685 19.654247079278512,46.59187981229914 17.337660337876322,42.16091762903018 12.886928248715432,44.43929070438758 15.138657178473295,48.90356184611851 19.61151159067468,46.66893136050111 17.38651508657584,42.19127677838472" stroke="#f00" stroke-linecap="round" stroke-linejoin="round" stroke-width="3.0"/><polyline fill="none" points="17.38651508657584,42.19127677838472 12.906733485206804,44.411987656467566 15.126372557295298,48.8923004122535 19.60668531308123,46.67266134016501 17.38811817402974,42.19181768639612 12.905153654641062,44.40609615079536 15.109776420448451,48.8938170044675 19.605900127239035,46.70638206526686 17.445379029252507,42.19726368301572 12.917836560862884,44.31890436817625 14.986322402977525,48.870977118140964 19.569482746360364,46.87231725041887 17.659825331894773,42.25136404146115 12.994620249314744,44.05021410121307 14.65810232359242,48.765384022706556 19.42758361160789,47.2647014302606 18.120081650107778,42.438684581898656 13.238332124321955,43.51966634284095 14.056601863158313,48.452255382534474 19.029822700503836,47.935462868083725 18.8553226742919,42.938508821781916 13.859726391130419,42.72870468535177 13.223692481432707,47.688085782395504 18.100675943218278,48.79037082423814 19.704868189951252,44.054701152953854 15.183228894017322,41.92050854743154 12.502499567047202,46.14113531078344 16.321335317720404,49.368594607100015 20.073901902836937,46.06431798062534 17.40534211931187,41.83598631414591 12.784182765510078,43.745144826886595 13.816268675502943,48.637465204212084 18.81596810280093,48.582641517030495 19.80677549872857,43.681794579594566 15.249199455229684,41.62546274651775 12.173637851009321,45.56766020715382 15.218848087949246,49.53334988397377 19.85038563920313,47.649508088247494 19.34012664563682,42.675612657150786 14.437586488567177,41.6932176203557 11.978967861048094,46.04697398060557 15.28991252506848,49.79365857258752 19.944867887369245,47.968448838067296" stroke="#f00" stroke-linecap="round" stroke-linejoin="round" stroke-width="3.0"/><polyline fill="none" points="19.944867887369245,47.968448838067296 19.91396143679544,42.968544359848444 15.269007934608304,41.118029036345426 11.743426503925136,44.66348747999161 13.533872521122314,49.33192437680223 18.519951375269233,49.70477509790782 21.067930674010615,45.40270565481588 18.427047540368132,41.15703300205016 13.435149618218283,41.441559160489106 11.20290689060053,45.91560569634428 13.891558039271452,50.131190472001215 18.891447989492885,50.09801690308383 21.61325397770713,45.903762241940676 19.705601941944465,41.28198079855215 14.841887142054404,40.12255061724307 10.983349980053768,43.30243913249956 11.0805949837193,48.30149338398174 14.990470816829184,51.418041309116745 19.90739152065369,50.51035700700398 22.545727803835923,46.26310122746301 21.293367259257494,41.42248214862782 16.984980049910263,38.88520020640437 12.115859171281956,40.02171323726056 9.275976565381843,44.13693702032583 9.820302469459792,49.10721963906591 13.398967600640319,52.59908960784663 18.369144211283803,53.14438261074731 22.684128467924317,50.61833612167698 24.756717285879965,46.0681300173686 23.955102528121543,41.13280694991457 20.643390901591115,37.38680026242678 15.881130766744329,35.86335731697425 10.982583623290465,36.86547302055343 7.11743357526114,40.03732029087067 5.058803001285927,44.593858468028245 5.101916390987377,49.59367258813596 7.118665778690904,54.16890175258199 10.688630858486839,57.66966585903612 15.249457806247335,59.71877726464142 20.226592282055265,60.196409350795776 25.12286217508304,59.183225687963706 29.565166538454005,56.888463839061885 33.315801044989634,53.58199430217147" stroke="#f00" stroke-linecap="round" stroke-linejoin="round" stroke-width="3.0"/><polyline fill="none" points="33.315801044989634,53.58199430217147 36.260075693682225,49.54080056849993 38.38166956607525,45.013236163588125 39.73467095428634,40.19977719487353 40.41808787640949,35.24670326946562 40.55576739382903,30.24859919387024 40.28255481964528,25.256069285165847 39.736199243928766,20.2860093675307 39.05381592716397,15.33279293686657" stroke="#f00" stroke-linecap="round" stroke-linejoin="round" stroke-width="3.0"/><polyline fill="none" points="39.05381592716397,15.33279293686657 38.37143261039917,10.37957650620244 37.68904929363437,5.426360075538311 37.14269371791785,0.45630015790316225 36.86948114373409,-4.536229750801232 37.007160661153634,-9.534333826396612 37.690577583276784,-14.487407751804525 39.04357897148787,-19.300866720519114 41.16517284388088,-23.828431125430924 44.109447492573466,-27.869624859102476 47.860081999109084,-31.176094395992898 52.30238636248004,-33.47085624489474 57.198656255507814,-34.48403990772683 62.17579073131574,-34.006407821572495 66.73661767907625,-31.95729641596722 70.3065827588722,-28.4565323095131 72.32333214657575,-23.881303145067086 72.36644553627723,-18.88148902495937 70.30781496230203,-14.324950847801782 66.44266491427273,-11.153103577484519 61.544117770818865,-10.150987873905308 56.78185763597207,-11.674430819357811 53.470146009441606,-15.420437506845571 52.66853125168314,-20.3557605742996 54.741120069638754,-24.905966678608 59.05610432627925,-27.432013167678367 64.02628093692275,-26.88672016477773 67.6049460681033,-23.39485019599704 68.1492719721813,-18.424567577256965 65.30938936628122,-14.30934379419167 60.44026848765293,-13.172830763335432 56.13188127830567,-15.710112705558839 54.87952073372718,-20.550731784394014 57.51785701690937,-24.797987563935017 62.43477772073386,-25.70567186604784 66.34465355384378,-22.58912394091288 66.44189855750938,-17.590069689430695 62.58336139550878,-14.410181174174154 57.719646595618705,-15.569611355483165 55.81199455985597,-20.191392798871668 58.533800548070154,-24.385647460014866 63.53369049829159,-24.41882102893232 66.22234164696258,-20.20323625327542" stroke="#000" stroke-linecap="round" stroke-linejoin="round" stroke-width="3.0"/><polyline fill="none" points="66.22234164696258,-20.20323625327542 63.99009891934489,-15.729189717420214 58.99820099719504,-15.444663558981196 56.35731786355249,-19.69033621174687 58.9052971622938,-23.992405654838855 63.891376016440724,-23.619554933733347 65.68182203363799,-18.951118036922757 62.156240602954874,-15.40565959327651 57.5112871007677,-17.25617491677945 57.48038065019381,-22.256079394998302 62.13533601249454,-24.081289129518606 65.446280676515,-20.334604537536716 62.987662048996,-15.980848177286799 58.08512189192634,-16.963243214081782 57.57486289835993,-21.937138645178482 62.206400449613774,-23.820980440904854 65.25161068655378,-19.855290764084966 62.17604908233349,-15.913093303448832 57.618473038834566,-17.969425136525555 58.609280434762105,-22.8702720739615 63.608979862060096,-22.925095761143194 64.64106577205307,-18.032775383817725 60.01990641825132,-16.123616871076944 57.35134663472616,-20.35194853755631 61.103913219842624,-23.656225164031063 64.9227489705159,-20.428765867714574 62.24201964354587,-16.208139104362612 57.72038034761189,-18.342331709884824 59.32457259434476,-23.07800138116915 64.20155605613036,-21.975716339326624 63.56552214643276,-17.016335242282878 58.56992586327127,-17.226139378712904 58.39542583705922,-22.223093425014714 63.36864667440473,-22.739885939465577 64.1869164132412,-17.80729689977207 59.30516688745541,-16.726315138829662 57.997664925955185,-21.55233198719158 62.76714621397062,-23.053014579637647 64.4306282882484,-18.337844658144203 59.76542320566841,-16.538994598392176 57.855765791202714,-21.159947807349845 62.43892613458551,-23.158607675072048 64.50741197670025,-18.606534925107383" stroke="#000" stroke-linecap="round" stroke-linejoin="round" stroke-width="3.0"/><polyline fill="none" points="64.50741197670025,-18.606534925107383 59.979869508310685,-16.48489423994675 57.819348410324054,-20.994012622197836 62.31547211711459,-23.181447561398578 64.52009488292208,-18.69372670772649 60.03713036353346,-16.479448243327145 57.818563224481856,-20.960291897095978 62.29887598026774,-23.17993096918458 64.51851505235634,-18.6996182133987 60.03873345098735,-16.478907335315746 57.813736946888405,-20.95656191743209 62.28659135908973,-23.191192403049588 64.5383202888477,-18.72692126131872 60.08758819968686,-16.44854818596121 57.77100145828457,-20.879510369230115 62.174536843856544,-23.247816960027755 64.6098804201812,-18.88099870582318 60.29097317813865,-16.361665414130236 57.6693009165018,-20.619227457432 61.849439192780835,-23.36266398689408 64.73471751710673,-19.27913989719225 60.770630530172035,-16.231843659539106 57.541756147453846,-20.049483011367176 61.181190032019764,-23.477969703753985 64.82465417639028,-20.053766288551202 61.65839091519871,-16.184040592739095 57.55691236445326,-19.043738775725373 60.05557195042765,-23.374639406473936 64.60340028513673,-21.296838300011334 63.01051942643058,-16.557351980802515 58.120206148854344,-17.59890661074835 58.54457996840006,-22.580864745988368 63.538123285091906,-22.834882745984782 64.52165191682,-17.932569880553707 59.83685373723746,-16.185381849293158 57.317054179330434,-20.504017072135156 61.10219767049342,-23.770925205417527 65.0466141714783,-20.698210043421845 62.86566649383144,-16.198935965599205 57.99393529882092,-17.324207116727404 57.935502636367204,-22.3238656674645 62.760830916012104,-23.633906504102498 65.30422538958857,-19.329124912455754" stroke="#000" stroke-linecap="round" stroke-linejoin="round" stroke-width="3.0"/><polyline fill="none" points="65.30422538958857,-19.329124912455754 61.88481116810417,-15.681165704636918 57.38928668832299,-17.86983188559922 58.07102343592565,-22.823137348314813 62.97507757790123,-23.797946546349046 65.57262525457773,-19.525623282901797 62.51881379711026,-15.566553242824149 57.70226255863872,-16.908504869067915 57.04543895211495,-21.865175399768248 61.29827297081425,-24.49451045057366 65.4909624835525,-21.770294113757743 64.91163361742964,-16.803969711860823 60.23834812197539,-15.02621756997576 56.43930496138912,-18.276951496953274 57.374019077517566,-23.18880547698059 62.06707864572474,-24.913679933066906 66.02476358001819,-21.85807361665985 65.6490469929495,-16.87220989547759 61.33123338746614,-14.351002710753807 56.75933952102089,-16.375301718795928 55.616142127211916,-21.24285754475092 58.72221570951436,-25.161059543285816 63.720991824220945,-25.271682122531136 67.0828408264074,-21.570605078413053 66.60860684149654,-16.593145673500185 62.67954209036704,-13.500824509482502 57.71467249643876,-14.092491574043622 54.529489103006306,-17.946659026322013 54.76338563502473,-22.94118527135364 58.20771376616506,-26.565630570297376 63.170378382158425,-27.175515730936123 67.45489170460941,-24.598124493708063 69.35736086098765,-19.9742072032465 68.24948847055816,-15.098489946624248 64.62164843125795,-11.657737608944272 59.7173948263473,-10.683932403207073 55.005676285011965,-12.357165318026995 51.71565666226751,-16.122237811612802 50.56232638904873,-20.987402688662403 51.6851399235235,-25.859700890414864 54.74860816255464,-29.811303394266616 59.12501281791983,-32.229377481737444 64.08614446604298,-32.851609568655924" stroke="#000" stroke-linecap="round" stroke-linejoin="round" stroke-width="3.0"/><polyline fill="none" points="64.08614446604298,-32.851609568655924 68.95608745585862,-31.718624451390255 73.20514349087003,-29.083188470127745 76.48664580033746,-25.310690280206387 78.63053277737333,-20.793639402731575 79.61119570891702,-15.890752476165137 79.50520235448238,-10.891876061527977 78.4500347338027,-6.00448194070355 76.61018378639125,-1.355294001793232 74.15304214064967,2.999296097488485 71.23444411147602,7.059072636179216 67.99232808704653,10.865472994015668 64.54652012640024,14.48851142858224 61.00269673809717,18.01573637073098 57.4588733497941,21.54296131287972 54.013065389147805,25.16599974744629 50.770949364718305,28.972400105282738 47.852351335544654,33.032176643973465 45.39520968980306,37.38676674325517" stroke="#000" stroke-linecap="round" stroke-linejoin="round" stroke-width="3.0"/><polyline fill="none" points="45.39520968980306,37.38676674325517 43.55535874239159,42.03595468216548 42.36722841105661,46.89273821818619 41.98894893398651,51.878408146814394 42.5661773026246,56.84497712453326 44.206794100252324,61.56815153623369 46.947093372233816,65.7503471198928 50.71274956900262,69.0396986377055 55.28172391169187,71.07057860851799 60.26072626683533,71.52832913825648 65.09051786661583,70.23484040514367 69.09596307265554,67.24211444017236 71.59146579131003,62.90939402671523 72.03881847938077,57.92944668035946 70.23229811844114,53.267206426413885 66.45921773671752,49.986373539317626 61.563228152369156,48.9718362112945 56.83776393040645,50.605845968594146 53.713450950780285,54.509519674904574 53.2813662279456,59.49081496752605 55.79709132820871,63.81182494436088 60.393269441653445,65.78036418691906 65.22626473306377,64.49889763908972 68.14371307051124,60.43829482690469 67.69378482265441,55.458579516590206 64.01240036495828,52.075177608061836 59.013236888421076,52.166635439090285 55.54296494641433,55.76624828612269 55.75247528476362,60.76185689950752 59.587979073565414,63.96949009020858 64.52488566997374,63.17768628980094 67.0671534754133,58.87223922759874 65.27034487470137,54.20624749460054 60.46495933674926,52.82484609325452 56.53163222189677,55.911743857607306 56.83988515202789,60.902232824739244 61.17755811539815,63.38911707271836 65.59130095759463,61.039888662588915 65.84691577911984,56.04642683105194 61.639769858554104,53.34458982577811 57.25283263889345,55.74350246086011 57.35671177070511,60.74242325698941 61.88196344323899,62.86894560585607" stroke="#f00" stroke-linecap="round" stroke-linejoin="round" stroke-width="3.0"/><polyline fill="none" points="61.88196344323899,62.86894560585607 65.73616203632989,59.683799894116 64.40901428498371,54.86314860553509 59.454385057946325,54.19110007857675 56.96946790954107,58.52990023133344 60.125783499611,62.40774394864356 64.85091310343753,60.77276681515142 64.85026043324082,55.77276685774926 60.098097432128654,54.21811358101499 57.20853899183878,58.29861012189694 60.315637879165756,62.21599911258595 64.9170269405424,60.25967125002216 64.17680429888316,55.31476776858038 59.19708324662883,54.864903075883745 57.6505879860126,59.61972719554281 61.97745162316798,62.12537103804368 65.281321888227,58.372446675408746 62.19570644833398,54.43811352262494 57.79319297759987,56.80831923943619 59.43657031592694,61.53053386012774 64.34872294755007,60.59739050370393 64.08920499943198,55.604130002327636 59.10250108332005,55.23973453990541 58.17135363388583,60.152265906463 62.96020060227109,61.58995318587649 64.84441407805035,56.958566829968376 60.39102982232614,54.68538213204616 57.782519631553235,58.95102095696253 61.859216781188195,61.84593725111651 64.99668910013084,57.952832134648595 61.277007690502415,54.61157934402279 57.76589635401191,58.17136826792935 61.18148369711378,61.82291083260559 64.94809455195491,58.534652529461965 61.76989466583575,54.674724358644255 57.83522840460007,57.7599150193156 60.84375395271534,61.75350663919084 64.88286813637171,58.80637979913357 61.98323410004162,54.733036890004016 57.885090992736465,57.597512945419254 60.72501996891849,61.71270472834283 64.85104824971151,58.888542794937415 62.03577504424265,54.75644444439334" stroke="#f00" stroke-linecap="round" stroke-linejoin="round" stroke-width="3.0"/><polyline fill="none" points="62.03577504424265,54.75644444439334 57.900984688417424,57.56776241171307 60.711313368507355,61.703225228601156 64.84677618539544,58.892896548511224 62.0374369533865,54.75676150725647 57.89861558683797,57.56214164117795 60.69507949640931,61.706992615877155 64.85060043836025,58.92640891798075 62.09490528661844,54.75434177678243 57.899280179171626,57.474034766397594 60.569663491378414,61.70121502821368 64.83717008489666,59.09576161771517 62.31472851297384,54.77866901780078 57.93867547351042,57.197379375781445 60.23010348002358,61.64140431843953 64.75014994336335,59.503840291503806 62.79624322684816,54.901422606943136 58.107699618425144,56.6385348174568 59.591496335277796,61.413296309202465 64.44765405023198,60.2226106884398 63.592819155667776,55.29622689268906 58.61533186902612,55.77016814571598 58.66208893105154,60.76994951865127 63.6438760386248,61.19632636466526 64.58674992203846,56.286032194253835 59.816150825452915,54.78890686227352 57.73652137367107,59.33589942255791 61.96009824678826,62.01197834457602 65.2265964913239,58.226481122486746 62.00593706073996,54.401908880759485 57.688572156377056,56.92388435299856 59.378688694974855,61.62957304711744 64.32412521141049,60.892920033884614 64.63681066841212,55.90270683152745 59.841237252555345,54.487618278422815 57.33247075395266,58.81267211109228 60.890411925025816,62.32565583197438 65.22151306208197,59.827343813712666 64.03720776361399,54.969626143857745 59.046465275300086,54.66550541891725 57.20503737988584,59.31406899339811 60.99633749380458,62.57383024941054 65.35863923622917,60.13040570422003" stroke="#f00" stroke-linecap="round" stroke-linejoin="round" stroke-width="3.0"/><polyline fill="none" points="65.35863923622917,60.13040570422003 64.6456516881992,55.181501910817474 59.79160753002314,53.98222908511144 56.782886294447714,57.97567327861127 59.19371231131792,62.3560748488308 64.18402327465265,62.04495350719512 66.1210297770503,57.43539758393427 62.92542139390758,53.58986939373881 58.01906241300981,54.5530108945391 56.41830908477585,59.28984409638903 59.6571322382232,63.09904671382662 64.6057122308157,62.38381524296332 66.72963317779084,57.85734202300496 64.20906518614464,53.53915525081821 59.23262361143291,53.054357093354014 55.844170251999586,56.73109257893697 56.62275960615352,61.67010043655353 60.921387911838835,64.22388090667249 65.66842467059985,62.653644615227265 67.70242349889664,58.0860578600044 65.80114939315025,53.46164905726882 61.18679475668951,51.536102046943384 56.51834035521563,53.326502421540965 54.26666172913878,57.79079893553605 55.48422211920864,62.64028825880845 59.50596146693187,65.6110815230688 64.50405332674585,65.47295925527202 68.43391711405283,62.38165360664825 69.86611636479029,57.59116247251732 68.3984456621369,52.81141951828088 64.6064782801003,49.55243449628852 59.68086284069237,48.693183343792256 54.96491540874276,50.354459906887 51.568813595884635,54.02413189177908 50.15130616600717,58.818990876800655 50.87637410455465,63.766139195225165 53.498665355734374,68.0233200222498 57.51299989819751,71.00411155826625 62.310808380685614,72.4116035708067 67.30655886675362,72.20550388387989 72.01873983770881,70.53357371279985 76.10629738991301,67.65401241680034 79.37058235267762,63.866606486368696" stroke="#f00" stroke-linecap="round" stroke-linejoin="round" stroke-width="3.0"/><polyline fill="none" points="79.37058235267762,63.866606486368696 81.73577962920163,59.46140026609667 83.21961547169033,54.686650933142545 83.90303239381349,49.73357700773464 83.90407577666413,44.73357711659942 83.35834249890571,39.76344882956829 82.40632247297368,34.85491973520363 81.18678179582575,30.005928032098588 79.83478489318156,25.192186828498162" stroke="#f00" stroke-linecap="round" stroke-linejoin="round" stroke-width="3.0"/><polyline fill="none" points="79.83478489318156,25.192186828498162 78.48278799053737,20.378445624897736 77.13079108789319,15.56470442129731 75.91125041074525,10.715712718192268 74.95923038481321,5.807183623827609 74.4134971070548,0.8370553367964755 74.41454048990543,-4.162944554338744 75.09795741202859,-9.116018479746652 76.58179325451728,-13.890767812700776 78.94699053104128,-18.29597403297281 82.21127549380587,-22.083379963404475 86.29883304601006,-24.962941259403994 91.01101401696525,-26.634871430484054 96.00676450303325,-26.840971117410895 100.80457298552136,-25.433479104870454 104.81890752798452,-22.452687568854042 107.44119877916427,-18.195506741829412 108.16626671771178,-13.248358423404904 106.74875928783435,-8.453499438383318 103.35265747497624,-4.783827453491224 98.63671004302664,-3.122550890396452 93.7110946036187,-3.981802042892681 89.91912722158209,-7.24078706488501 88.45145651892865,-12.020530019121436 89.88365576966606,-16.81102115325238 93.81351955697302,-19.90232680187618 98.81161141678699,-20.040449069673002 102.83335076451024,-17.06965580541268 104.05091115458015,-12.2201664821403 101.79923252850335,-7.755869968145194 97.13077812702949,-5.965469593547573 92.51642349056873,-7.89101660387296 90.6151493848223,-12.515425406608514 92.64914821311903,-17.083012161831398 97.39618497188003,-18.65324845327668 101.69481327756537,-16.09946798315777 102.47340263171938,-11.160460125541219 99.08494927228611,-7.483724639958212 94.10850769757438,-7.96852279742234 91.58793970592812,-12.286709569609055 93.7118606529032,-16.813182789567442 98.66044064549568,-17.5284142604308 101.89926379894308,-13.719211642993262" stroke="#000" stroke-linecap="round" stroke-linejoin="round" stroke-width="3.0"/><polyline fill="none" points="101.89926379894308,-13.719211642993262 100.29851047070919,-8.98237844114331 95.39215148981144,-8.019236940342948 92.19654310666867,-11.864765130538359 94.13354960906625,-16.474321053799237 99.12386057240097,-16.785442395435005 101.53468658927125,-12.405040825215515 98.52596535369588,-8.411596631715643 93.67192119551981,-9.610869457421593 92.95893364748976,-14.559773250824135 97.32123538991429,-17.00319779601472 101.11253550383309,-13.74343654000236 99.27110760841893,-9.094872965521471 94.28036512010502,-9.39899369046187 93.09605982163696,-14.256711360316762 97.42716095869307,-16.755023378578557 100.98510212976629,-13.24203965769653 98.47633563116369,-8.916985825027016 93.68076221530688,-10.332074378131558 93.99344767230842,-15.32228758048872 98.93888418874404,-16.05894059372164 100.62900072734193,-11.353251899602803 96.31163582297908,-8.831276427363639 93.09097639239506,-12.655848669090833 96.35747463693062,-16.441345891180173 100.58105151004787,-13.765266969162155 98.50142205826613,-9.218274408877727 93.73082296168054,-10.715399740857933 94.6736968450941,-15.625693911269378 99.65548395266737,-15.199317065255507 99.7022410146929,-10.199535692320215 94.72475372805127,-9.72559443929319 93.86991883348696,-14.651978235043902 98.72607654844111,-15.842663855806677 100.20987326529388,-11.067902364061048 95.5213296568709,-9.330790153547275 93.56742294035561,-13.9332078381079 98.08746940369534,-16.07077186504372 100.3788974102086,-11.626746922385694 96.00284437074524,-9.208036564404933 93.48040279882233,-13.525129164319264 97.7479093923405,-16.130582574817872 100.41829270454738,-11.903402313001848" stroke="#000" stroke-linecap="round" stroke-linejoin="round" stroke-width="3.0"/><polyline fill="none" points="100.41829270454738,-11.903402313001848 96.22266759710062,-9.183709323386593 93.46697244535872,-13.355776464584848 97.62249338730959,-16.13636016248134 100.41895729688102,-11.991509187782198 96.28013593033255,-9.186129053860622 93.47079669832353,-13.322264095115308 97.60625951521155,-16.13259277520533 100.41658819530157,-11.997129958317307 96.28179783947641,-9.185811990997484 93.46652463400746,-13.317910341541495 97.59255291480041,-16.142072274947 100.43248189098253,-12.026880492023494 96.33433878367744,-9.162404436608165 93.43470474734725,-13.235747345737655 97.47381893100356,-16.182874185795008 100.48234447911892,-12.189282565919838 96.54767821788332,-9.104091905248412 93.36947833176407,-12.964020076066051 97.13608918660513,-16.252278379209752 100.55167652970708,-12.600735814533593 97.04056519321665,-9.040946890626957 93.32088378358816,-12.382199681252677 96.45835610253071,-16.27530479772066 100.53505325216574,-13.38038850356677 97.92654306139293,-9.114749678650345 93.47315880566867,-11.387934376572467 95.35737228144784,-16.01932073248062 100.14621924983312,-14.58163345306723 99.215071800399,-9.669102086509628 94.22836788428707,-10.033497548931749 93.96884993616888,-15.026758050308029 98.881002567792,-15.959901406731937 100.52437990611915,-11.237686786040422 96.1218664353851,-8.867481069229086 93.036250995492,-12.801814222012833 96.34012126055094,-16.55473858464783 100.66698489770637,-14.049094742147041 99.12048963709023,-9.294270622487954 94.1407685848359,-9.744135315184497 93.40054594317655,-14.68903879662626 98.00193500455316,-16.645366659190135 101.10903389188022,-12.727977668501183" stroke="#000" stroke-linecap="round" stroke-linejoin="round" stroke-width="3.0"/><polyline fill="none" points="101.10903389188022,-12.727977668501183 98.21947545159041,-8.647481127619184 93.46731245047822,-10.202134404353375 93.46665978028142,-15.202134361755535 98.19178938410792,-16.837111495247758 101.34810497417791,-12.9592677779377 98.86318782577274,-8.620467625180964 93.90855859873534,-9.292516152139216 92.5814108473891,-14.113167440720105 96.43560944047994,-17.298313152460235 100.96086111301385,-15.171790803593648 101.06474024482559,-10.172870007464343 96.67780302516496,-7.773957372382279 92.47065710459918,-10.475794377656047 92.72627192612433,-15.469256209193029 97.14001476832077,-17.818484619322543 101.47768773169106,-15.331600371343486 101.78594066182225,-10.341111404211555 97.8526135469698,-7.254213639858718 93.04722800901769,-8.635615041204675 91.25041940830569,-13.301606774202856 93.7926872137452,-17.607053836405086 98.72959381015352,-18.398857636812785 102.56509759895535,-15.191224446111768 102.7746079373047,-10.195615832726936 99.30433599529799,-6.5960029856944935 94.30517251876078,-6.504545154665988 90.62378806106462,-9.887947063194314 90.17385981320773,-14.867662373508791 93.09130815065515,-18.928265185693853 97.92430344206547,-20.209731733523242 102.52048155551022,-18.241192490965105 105.03620665577336,-13.920182514130296 104.60412193293871,-8.93888722150882 101.47980895331257,-5.035213515198365 96.75434473134989,-3.401203757898684 91.85835514700152,-4.415741085921775 88.08527476527787,-7.696573973018004 86.2787544043382,-12.358814226963567 86.7261070924089,-17.33876157331934 89.22160981106336,-21.671481986776477 93.22705501710305,-24.66420795174781 98.05684661688355,-25.957696684860636" stroke="#000" stroke-linecap="round" stroke-linejoin="round" stroke-width="3.0"/><polyline fill="none" points="98.05684661688355,-25.957696684860636 103.03584897202701,-25.499946155122167 107.60482331471627,-23.4690661843097 111.37047951148509,-20.179714666497016 114.1107787834666,-15.997519082837927 115.75139558109433,-11.274344671137499 116.32862394973245,-6.307775693418639 115.95034447266237,-1.3221057647904342 114.7622141413274,3.5346777712302773 112.92236319391596,8.183865710140594 110.58513840735372,12.603976602084272 107.89284275511203,16.817234738125837 104.9737364303439,20.876645811754468 101.94445547448079,24.85451671092214 98.91517451861768,28.832387610089814 95.99606819384955,32.89179868371844 93.30377254160786,37.10505681976001 90.96654775504562,41.52516771170368 89.12669680763416,46.17435565061399" stroke="#000" stroke-linecap="round" stroke-linejoin="round" stroke-width="3.0"/><polyline fill="none" points="89.12669680763416,46.17435565061399 87.93856647629917,51.0311391866347 87.4243907521351,56.0046312520431 87.73007832433214,60.99527801455838 88.97972649468026,65.83659802570673 91.24959559450986,70.29167313951108 94.53502676904027,74.06075021452874 98.71436851799983,76.8054000183113 103.51775999718492,78.19371925310281 108.51264751689408,77.9676691138555 113.12071711225745,76.02712934248065 116.68024725956455,72.51575566108303 118.56108504805594,67.8829973883709 118.32460538752262,62.8885927821987 115.89870112708718,58.51652364742954 111.71316725344364,55.78132599596401 106.72452737335706,55.444469725709475 102.26628216757128,57.708106111061156 99.7039628527829,62.001650070200554 99.95575158377893,66.99530628933934 103.03765478806368,70.93254804460652 107.85948744552205,72.25539717563694 112.47237150422306,70.32632987225375 114.8083445893461,65.9055573441111 113.68301126136585,61.03384051111097 109.57431706141746,58.18451919344417 104.6344111867217,58.957390430550554 101.68787273704304,62.996933865713146 102.57720674207624,67.91720672679429 106.81458989451684,70.5713702521658 111.59724052780378,69.1132025937945 113.52812801152194,64.50108014038756 111.11133265180885,60.12396919945069 106.16238067735001,59.41131616009706 102.68714608584779,63.006138065842364 103.67360006424688,67.90786312427849 108.31008832715874,69.77948717517137 112.36191818562905,66.84986692708316 111.93365028306052,61.8682420311652 107.39713172366764,59.765862579143295 103.37863741243586,62.74104382918468 104.16378060755584,67.67901407647828 108.93691146973168,69.16804791509462" stroke="#f00" stroke-linecap="round" stroke-linejoin="round" stroke-width="3.0"/><polyline fill="none" points="108.93691146973168,69.16804791509462 112.32034937036848,65.48669653651984 110.34771295773744,60.892275399579724 105.34772383812484,60.90270630345012 103.4782023162644,65.54004274577352 107.13422033602627,68.95083916877746 111.59200203032708,66.68629012626224 110.90897215602746,61.73316281204809 105.98909989248743,60.84161533128807 103.6834707764487,65.27828912809514 107.2961296070348,68.73497774204176 111.58747168846546,66.16897245363288 110.1793111705126,61.371360135439716 105.18478791106303,61.60532041159175 104.30168529477858,66.52671551553449 108.93002561811421,68.4183988535658 111.69079591962036,64.24968834043088 108.09710703929169,60.773282116842786 104.05926439509014,63.72215084580775 106.33173721695523,68.17589839970935 111.07057595021767,66.58109199762427 110.13202270480356,61.66997014966299 105.14224647352266,61.98955294291725 104.89025739386548,66.98319905610283 109.83050725425322,67.75386845145921 111.06501452712217,62.90866548427263 106.34306265086192,61.264533348985964 104.34111969745713,65.84626057911576 108.77476087485208,68.15771594535322 111.35155876666231,63.872845746063355 107.21067831937745,61.07050580927947 104.21824756159387,65.07617156666248 108.10022657655632,68.22739972841008 111.382823809924,64.45585423571258 107.70757131321665,61.06579242426336 104.23077712552632,64.65910596143803 107.7561848200007,68.20473715880485 111.35529213035478,64.73394091463322 107.9268728910917,61.09444348781029 104.25800907052586,64.49141835762357 107.63299328746558,68.18052143769707 111.33498330478773,64.81967780675451 107.98211680963183,61.110461411656885" stroke="#f00" stroke-linecap="round" stroke-linejoin="round" stroke-width="3.0"/><polyline fill="none" points="107.98211680963183,61.110461411656885 104.26969379987085,64.45977707259378 107.61812120529758,68.17300126601211 111.33134539871591,64.82457386058537 107.983806440449,61.11054869603879 104.2665797612889,64.454532221079 107.60255338934071,68.1789489476206 111.33970752560622,64.85725074311833 108.04040682218914,61.1003085199225 104.25521360293375,64.36715903577152 107.4775223600967,68.19034177708942 111.34951552750668,65.02685178792706 108.26149332619694,61.09440739744699 104.2564832821658,64.087715692162 107.1329767485061,68.1774327163706 111.31900282432255,65.44298840489073 108.75525564493144,61.15029689487465 104.3476566758668,63.51103223114179 106.46921344810247,68.03861402081506 111.11743268419991,66.19631710305895 109.59825981230767,61.43269308501274 104.73202737082306,62.58151066210786 105.46070041967033,67.52812926352475 110.4540648600058,67.2706189414146 110.71797597782029,62.27758870698842 105.78769134202662,61.44554699525939 104.3480787608932,66.23381553579075 108.89735915585884,68.30843547399179 111.61666168097008,64.11255728499206 107.90417218083844,60.76331532427733 103.97139442205504,63.85091295026726 106.28791371555009,68.28191039586179 111.08654125225823,66.87721335950614 110.71525335363067,61.89101788636906 105.7714241819784,61.143653770612836 103.87640040956737,65.77062739297087 107.8804912397858,68.76516519092243 111.83010621450576,65.69913493153688 109.99391702275442,61.04849957149245 105.00836610209205,61.42834429961523 103.81858836663149,66.2847245298075 108.01929570974754,68.99656114315479 112.00731021388364,65.98064663594475" stroke="#f00" stroke-linecap="round" stroke-linejoin="round" stroke-width="3.0"/><polyline fill="none" points="112.00731021388364,65.98064663594475 110.62558400935305,61.17535448086058 105.65328499976144,60.649766658309154 103.2177274467085,65.0164655723364 106.20381864480493,69.0268594877331 111.10497589374317,68.03758823009946 112.39476156859352,63.20680641832708 108.7042287224958,59.8333857045895 103.97522347707792,61.45711886887796 103.03591512995617,66.36809635091016 106.76430080515358,69.69963357222149 111.5689659460381,68.31572863185562 113.05525601061944,63.54174268257521 109.9689405300509,59.60795865769498 104.97289846030009,59.80686475936112 102.11793848050704,63.91164289146278 103.5633021095357,68.69817858859084 108.17024081764116,70.64140161741679 112.65856030200132,68.43799784000491 114.05015858532757,63.63555531376439 111.53555027399432,59.31389532707251 106.70157860245013,58.03611683347191 102.32115346220377,60.44690002378529 100.69981544120026,65.17672697851084 102.56782558889026,69.814672438316 106.95737862450619,72.20879527299155 111.88985430266237,71.38984247557423 115.36105639864621,67.79112659225733 116.1260647249856,62.849996937954444 114.01980322706915,58.315279471298474 109.81854079710114,55.60430289549792 104.8217452017046,55.425323070305836 100.37664902272603,57.71467231400591 97.51314815089252,61.81349687197478 96.76329028796472,66.75694841774776 98.15674426888775,71.55885283194112 101.33550532571631,75.4183188757858 105.71908737148478,77.82335701436412 110.66409394638019,78.56289063377639 115.58497282700839,77.67691600536577 120.02488381781986,75.37752687047114 123.68120234599414,71.96705258959328 126.39805180423271,67.76958561280017" stroke="#f00" stroke-linecap="round" stroke-linejoin="round" stroke-width="3.0"/><polyline fill="none" points="126.39805180423271,67.76958561280017 128.13991076027642,63.08280341418562 128.95822091805275,58.15022107978105 128.95926430090338,53.15022118864583 128.27791461921194,48.19686246841782 127.05898108653113,43.347718106480734 125.44596916680774,38.61504523094516 123.5760651745593,33.97786299819074 121.5797551823704,29.393678619799452" stroke="#f00" stroke-linecap="round" stroke-linejoin="round" stroke-width="3.0"/><polyline fill="none" points="121.5797551823704,29.393678619799452 119.58344519018151,24.809494241408167 117.58713519799261,20.225309863016882 115.71723120574416,15.588127630262463 114.10421928602076,10.855454754726885 112.88528575333996,6.006310392789801 112.2039360716485,1.0529516725617887 112.20497945449914,-3.9470482185734257 113.02328961227545,-8.879630552977996 114.76514856831915,-13.566412751592548 117.4819980265577,-17.763879728385675 121.13831655473197,-21.17435400926356 125.57822754554343,-23.473743144158206 130.4991064261716,-24.359717772568853 135.44411300106702,-23.6201841531566 139.82769504683552,-21.215146014578302 143.0064561036641,-17.355679970733643 144.39991008458716,-12.553775556540288 143.6500522216594,-7.610324010767301 140.7865513498259,-3.511499452798417 136.34145517084735,-1.222150209098321 131.34465957545083,-1.401130034290375 127.14339714548281,-4.11210661009089 125.03713564756633,-8.646824076746839 125.80214397390567,-13.58795373104973 129.27334606988947,-17.186669614366657 134.20582174804565,-18.00562241178403 138.5953747836616,-15.611499577108512 140.46338493135164,-10.973554117303387 138.8420469103482,-6.243727162577821 134.46162177010186,-3.832943972264396 129.62765009855767,-5.110722465864942 127.11304178722438,-9.432382452556794 128.50464007055055,-14.234824978797326 132.99295955491067,-16.438228756209256 137.59989826301614,-14.495005727383354 139.04526189204486,-9.708470030255329 136.19030191225187,-5.603691898153629 131.19425984250105,-5.4047857964874195 128.10794436193245,-9.338569821367606 129.59423442651374,-14.11255577064803 134.39889956739825,-15.496460711013963 138.1272852425957,-12.164923489702701" stroke="#000" stroke-linecap="round" stroke-linejoin="round" stroke-width="3.0"/><polyline fill="none" points="138.1272852425957,-12.164923489702701 137.187976895474,-7.253946007670488 132.45897165005616,-5.63021284338196 128.7684388039584,-9.003633557119478 130.05822447880865,-13.834415368891872 134.9593817277469,-14.823686626525603 137.9454729258434,-10.813292711128948 135.50991537279054,-6.446593797101666 130.53761636319894,-6.972181619653004 129.15589015866826,-11.777473774737148 133.14390466280432,-14.793388281947259 137.3446120059204,-12.08155166860005 136.15483427045993,-7.225171438407762 131.16928334979758,-6.84532671028488 129.33309415804615,-11.495962070329263 133.28270913276606,-14.561992329714888 137.28679996298456,-11.567454531763401 135.3917761905736,-6.940480909405332 130.44794701892133,-7.687845025161462 130.07665912029367,-12.674040498298531 134.8752866570018,-14.078737534654262 137.19180595049693,-9.647740089059793 133.2590281917136,-6.560142463069788 129.5465386915819,-9.909384423784443 132.26584121669305,-14.105262612784221 136.81512161165872,-12.03064267458328 135.37550903052542,-7.2423741340518895 130.44522439473175,-8.074415845780806 130.7091355125461,-13.067446080206981 135.70249995288157,-13.324956402317246 136.43117300172895,-8.378337800900375 131.56494056024437,-7.229520223805142 130.04576768835202,-11.993144241851308 134.6939869244494,-13.835441159607527 136.81554369668518,-9.307859369934313 132.4079447276206,-6.947124033667075 129.84419754822937,-11.23981554368309 134.03022362404576,-13.974259855163059 136.90671709038614,-9.88454283095453 132.90170704635509,-6.891234536239426 129.81368484504526,-10.82367892671942 133.68567801245516,-13.987168915881856 136.9079867696182,-10.163986174564043" stroke="#000" stroke-linecap="round" stroke-linejoin="round" stroke-width="3.0"/><polyline fill="none" points="136.9079867696182,-10.163986174564043 133.12279355036287,-6.897135658714939 129.82349284694573,-10.654077881910691 133.56064698321114,-13.975776086413038 136.89662061126305,-10.251359359871527 133.179393932103,-6.907375834831238 129.83185497383602,-10.621400999377743 133.54507916725424,-13.96982840480456 136.89350657268105,-10.256604211386318 133.18108356292015,-6.907288550449337 129.82821706776417,-10.616504945546879 133.53020708508623,-13.977348576489515 136.90519130202603,-10.288245496416103 133.23632748146025,-6.891270626602739 129.8079082421971,-10.530768053425593 133.4070155525511,-14.001564297597286 136.93242324702555,-10.45593310023056 133.4556290593353,-6.862619563055816 129.78037656262788,-10.252681374504949 133.06297379599548,-14.024226867202518 136.94495281095797,-10.872998705455004 133.95252205317448,-6.867332948071937 129.81164160588958,-9.669672884855734 132.38843949769972,-13.954543084145644 136.82208067509472,-11.643087717908289 134.82013772169003,-7.061360487778456 130.09818584542975,-8.705492623065023 131.3326931182986,-13.550695590251623 136.27294297868636,-12.780026194895347 136.02095389902928,-7.786380081709763 131.0311776677484,-7.466797288455403 130.0926244223342,-12.377919136416658 134.83146315559662,-13.97272553850184 137.1039359774618,-9.51897798460029 133.0660933332603,-6.570109255635257 129.47240445293158,-10.046515479223276 132.23317475443764,-14.21522599235825 136.8615150777733,-12.32354265432702 135.97841246148894,-7.402147550384274 130.98388920203936,-7.168187274232146 129.5757286840864,-11.965799592425274 133.867070765517,-14.531804880834244 137.47972959610317,-11.075116266887687" stroke="#000" stroke-linecap="round" stroke-linejoin="round" stroke-width="3.0"/><polyline fill="none" points="137.47972959610317,-11.075116266887687 135.1741004800645,-6.638442470080585 130.25422821652447,-7.5299899508405215 129.57119834222476,-12.483117265054648 134.02898003652552,-14.747666307569945 137.68499805628744,-11.33686988456607 135.8154765344271,-6.6995334422426485 130.8154874148145,-6.689102538372172 128.8428510021834,-11.283523675312257 132.22628890282016,-14.964875053887084 136.99941976499602,-13.47584121527083 137.78456296011606,-8.537870967977252 133.76606864888433,-5.562689717935809 129.22955008949143,-7.665069169957647 128.8012821869228,-12.646694065875584 132.85311204539306,-15.576314313963858 137.48960030830494,-13.704690263071054 138.4760542867041,-8.802965204634955 135.00081969520193,-5.208143298889605 130.05186772074308,-5.920796338243176 127.63507236102993,-10.297907279180007 129.56595984474802,-14.91002973258697 134.34861047803494,-16.36819739095834 138.58599363047557,-13.714033865586883 139.47532763550885,-8.793761004505761 136.52878918583022,-4.7542175693431385 131.58888331113448,-3.9813463322366953 127.48018911118606,-6.830667649903445 126.35485578320575,-11.702384482903561 128.69082886832874,-16.123157011046224 133.30371292702972,-18.052224314429463 138.1255455844881,-16.729375183399092 141.20744878877287,-12.792133428131944 141.45923751976895,-7.798477208993176 138.8969182049806,-3.5049332498537646 134.43867299919484,-1.241296864502051 129.45003311910827,-1.5781531347565483 125.26449924546472,-4.313350786222041 122.83859498502925,-8.685419920991176 122.6021153244959,-13.679824527163364 124.48295311298726,-18.312582799875514 128.04248326029435,-21.82395648127315 132.6505528556577,-23.764496252648023" stroke="#000" stroke-linecap="round" stroke-linejoin="round" stroke-width="3.0"/><polyline fill="none" points="132.6505528556577,-23.764496252648023 137.64544037536686,-23.99054639189537 142.44883185455194,-22.60222715710389 146.6281736035115,-19.857577353321346 149.91360477804193,-16.0885002783037 152.18347387787153,-11.633425164499371 153.43312204821967,-6.792105153351021 153.73880962041673,-1.8014583908357462 153.22463389625267,3.1720336745726527 152.0365035649177,8.028817210593358 150.32438950810916,12.726547030035778 148.232296308183,17.26781844262748 145.8945181045505,21.687636659547795 143.43646781138193,26.041713916126255 140.97841751821335,30.395791172704712 138.64063931458085,34.815609389625024 136.5485461146547,39.35688080221672 134.83643205784614,44.05461062165914 133.64830172651116,48.91139415767984" stroke="#000" stroke-linecap="round" stroke-linejoin="round" stroke-width="3.0"/><polyline fill="none" points="133.64830172651116,48.91139415767984 133.1341260023471,53.88488622308823 133.30352687561083,58.88201573353094 134.2874610347834,63.7842472223953 136.1861438061124,68.40972057480568 139.04278817677778,72.51332666452065 142.81186957499636,75.79875287942833 147.32668706635036,77.94733916342159 152.27460776270576,78.66711745051964 157.19190898033932,77.76149681523164 161.4920237939179,75.210220156372 164.53902787231252,71.24590859618321 165.77000380860585,66.39980725136317 164.85411714450652,61.484407815048264 161.85422596864336,57.48432619925861 157.33456428875402,55.345948707013676 152.34662866481793,55.693077229998 148.23903152468955,58.54397984748759 146.2866556520686,63.147047134852336 147.21760600667355,68.05961585572138 150.8080143420823,71.53941010036105 155.76526852657182,72.19181407824672 160.07171848008406,69.65124548088623 161.78250224936485,64.95303104402137 160.0028226851714,60.28047920923215 155.54370649496403,58.01855905099701 150.75550079371033,59.45838062413779 148.38783567070428,63.86226094327689 149.94035085478652,68.6151228814352 154.50031740745996,70.66614824414998 159.03921229062084,68.5689040429145 160.3225859292279,63.73641481853661 157.33103033582637,59.73009541893953 152.3311237799956,59.69952692272988 149.37901526323162,63.73500152991669 151.02521035466066,68.4562346020023 155.87374932906494,69.67757395438667 159.4878425785607,66.22238510514138 158.3837063123441,61.34582042233186 153.6027089263508,59.882241249507466 150.02785732644202,63.37801527518899 151.47957186442733,68.16262862426979 156.41126027678922,68.98630902550285" stroke="#f00" stroke-linecap="round" stroke-linejoin="round" stroke-width="3.0"/><polyline fill="none" points="156.41126027678922,68.98630902550285 159.2606217643247,64.87764268308106 156.67941147936273,60.59542906570903 151.7276294022373,61.28814420244236 150.50848866281882,66.13723647393917 154.59579248326432,69.01715791025849 158.7028058924476,66.16541443357819 157.35018064423818,61.351849752605645 152.35466679233627,61.14009197717281 150.67611322439387,65.84991765542756 154.72672676828407,68.78121940005457 158.6277161498445,65.65355544033117 156.57796926568912,61.09301405680057 151.66210844912754,62.0064211030808 151.45892435416673,67.00229101967739 156.3021292515119,68.24461397379663 158.4681361139368,63.738128173094694 154.43362403033424,60.784704355342676 150.8360140891902,64.25705265460377 153.69505663866306,68.35898825871844 158.17190155738516,66.13236310532777 156.57187656300792,61.39528383457791 151.6724038334727,62.39286439400194 152.1042887030246,67.3741770181455 157.1034924466628,67.4634066634077 157.6651916539831,62.495057440527354 152.7630360623883,61.510745215775636 151.40512356113842,66.32282102969931 156.11274014252015,68.00756021506298 158.08064288606357,63.41110954177666 153.59605346812913,61.200123844728765 151.1783019257883,65.57670669890946 155.45402747884856,68.16865017724912 158.1911824446352,63.984396039022144 154.08765390934227,61.12764026366495 151.13379453197584,65.16183346413817 155.11011191068468,68.19315332581198 158.201860713176,64.26363817222197 154.30881374665694,61.12609369979186 151.13788623080373,64.99199834026153 154.98476816525286,68.18597695359142 158.1934429964417,64.35134452952582 154.3657268364588,61.13442224283537" stroke="#f00" stroke-linecap="round" stroke-linejoin="round" stroke-width="3.0"/><polyline fill="none" points="154.3657268364588,61.13442224283537 151.14514333247456,64.95905842080896 154.96900890896293,68.18055683815254 158.19050732630652,64.35669126166418 154.3674125701651,61.13427811534606 151.14134263122608,64.95428763746429 154.9543984763461,68.18857351258353 158.20325084306506,64.38792116078068 154.42208581326003,61.11640912238324 151.11815842196515,64.86928319341885 154.83209218201932,68.21692356029368 158.2361136589948,64.55459673376802 154.64029830860443,61.08039006664288 151.0812787260399,64.59228123963246 154.48900859959662,68.25115772140511 158.26267939142588,64.97100395139756 155.13706824672954,61.068369588284625 151.09289520181287,64.00855060019006 153.81251043009,68.20422611315853 158.16580707256256,65.74479358864461 156.01072515509642,61.23307308211826 151.34681144790113,63.03526866857267 152.7437645131287,67.83615630874415 157.65526332162088,66.89957771931353 157.23527299220467,61.91724813133997 152.2375653424446,61.76586039230663 151.46490971796212,66.70579999577907 156.2547610048617,68.14013769987328 158.37598033925704,63.61239780723509 154.24113417355295,60.801161924929566 150.7665393127333,64.39660216962362 153.66611134473155,68.46998921620457 158.22813113207997,66.42353485320461 157.17981794708282,61.53466591794351 152.18024900956976,61.46901198390713 150.93443035377027,66.31131885944299 155.30974057874093,68.73137266778429 158.80395855671676,65.15500010296525 156.3502468654285,60.79847638146032 151.4631842592874,61.85517836577638 150.947321503453,66.82849573119184 155.4788264424678,68.94165994338275 159.01792428708876,65.40969357233682" stroke="#f00" stroke-linecap="round" stroke-linejoin="round" stroke-width="3.0"/><polyline fill="none" points="159.01792428708876,65.40969357233682 156.9933162595347,60.837936543057644 151.99581115671714,60.995869273396195 150.17899491644857,65.65410700338555 153.6844712939275,69.21944504723739 158.40475737647657,67.57053652979516 159.02318591276048,62.608929315846275 154.90679112342443,59.77074434331067 150.44363551140194,62.024683557857514 150.18334982426654,67.01790409785696 154.33152714531542,69.8094314420067 158.9023656805903,67.782750637231 159.72321128106202,62.85058959969521 156.12890385328217,59.37482290519363 151.20675436072233,60.253711051030656 148.93871384783586,64.7097173607104 151.02380404391755,69.25420840748384 155.85284153985245,70.55050963129514 159.9984519074925,67.75517160527481 160.72160807193794,62.807743469179805 157.64072249593215,58.869705370385 152.67759396884986,58.26360700900973 148.66717085913874,61.249658998023804 147.70651423509756,66.15650511856659 150.19001726750184,70.49611485770657 154.86524040749237,72.26876501814348 159.63979637683616,70.78430710509792 162.58737869192237,66.7455252967068 162.67088016583256,61.74622259494381 159.96544324498396,57.54139072347626 155.4335057879608,55.42915425810828 150.45903720985345,55.93379508624499 146.36797526996347,58.80837543891971 144.09066125578687,63.259649512804046 144.02248537073768,68.25918469606836 146.0582490936631,72.82598511478832 149.73399444081878,76.21551253654837 154.40479214406147,77.99979077028395 159.40445878817903,78.05752678762406 164.1583795520453,76.50825683991286 168.24293460923954,73.62443819361265 171.39959186083314,69.74687259185148 173.51816424854383,65.21789356363445" stroke="#f00" stroke-linecap="round" stroke-linejoin="round" stroke-width="3.0"/><polyline fill="none" points="173.51816424854383,65.21789356363445 174.6040887324099,60.33724114665779 174.74155981747202,55.33913133386138 174.06021013578058,50.38577261363337 172.7092177775772,45.57174938476586 170.8398944145508,40.93433306051335 168.59607558303045,36.4660809356535 166.11080058891062,32.127485747853356 163.5075353099512,27.858643997757166" stroke="#f00" stroke-linecap="round" stroke-linejoin="round" stroke-width="3.0"/><polyline fill="none" points="163.5075353099512,27.858643997757166 160.9042700309918,23.589802247660977 158.30100475203238,19.320960497564787 155.81572975791255,14.982365309764646 153.5719109263922,10.514113184904797 151.7025875633658,5.876696860652295 150.35159520516243,1.0626736317847838 149.67024552347098,-3.8906850884432256 149.80771660853307,-8.888794901239635 150.89364109239912,-13.769447318216297 153.01221348010978,-18.298426346433345 156.16887073170338,-22.175991948194522 160.25342578889763,-25.05981059449475 165.0073465527639,-26.609080542205962 170.00701319688145,-26.551344524865883 174.67781090012417,-24.767066291130327 178.35355624727987,-21.377538869370294 180.3893199702053,-16.810738450650348 180.3211440851561,-11.811203267386041 178.04383007097954,-7.359929193501698 173.95276813108958,-4.485348840826955 168.97829955298224,-3.980708012690206 164.44636209595905,-6.092944478058157 161.74092517511042,-10.297776349525677 161.82442664902058,-15.297079051288666 164.77200896410673,-19.33586085967981 169.5465649334505,-20.820318772725408 174.22178807344105,-19.04766861228854 176.7052911058454,-14.708058873148584 175.74463448180427,-9.801212752605796 171.73421137209317,-6.815160763591687 166.77108284501088,-7.421259124966899 163.69019726900504,-11.359297223761665 164.41335343345042,-16.30672535985667 168.55896380109044,-19.102063385877052 173.38800129702537,-17.805762162065815 175.47309149310712,-13.261271115292404 173.20505098022073,-8.805264805612637 168.28290148766092,-7.9263766597755465 164.688594059881,-11.402143354277072 165.50943966035268,-16.33430439181287 170.08027819562753,-18.36098519658863 174.22845551667643,-15.569457852438944" stroke="#000" stroke-linecap="round" stroke-linejoin="round" stroke-width="3.0"/><polyline fill="none" points="174.22845551667643,-15.569457852438944 173.9681698295411,-10.576237312439497 169.50501421751864,-8.322298097892586 165.38861942818255,-11.16048307042813 166.0070479644664,-16.122090284377023 170.72733404701546,-17.770998801819317 174.23281042449443,-14.205660757967543 172.41599418422595,-9.547423027978164 167.41848908140838,-9.389490297639528 165.39388105385424,-13.96124732691867 168.9329788984751,-17.493213697964652 173.46448383748995,-15.380049485773824 172.94862108165563,-10.406732120358368 168.06155847551457,-9.35003013604221 165.6078467842262,-13.706553857547085 169.102064762202,-17.282926422366195 173.47737498717268,-14.862872614024987 172.23155633137327,-10.020565738489108 167.2319873938602,-10.08621967252538 166.18367420886298,-14.975088607786464 170.74569399621134,-17.021542970786506 173.64526602820968,-12.948155924205622 170.1706711673901,-9.352715679511494 166.03582500168596,-12.16395156181693 168.1570443360812,-16.691691454455164 172.94689562298083,-15.257353750361059 172.17423999849845,-10.317414146888602 167.1765323487384,-10.468801885921831 166.75654201932207,-15.45113147389538 171.66804082781422,-16.38771006332612 173.06499389304187,-11.586822423154675 168.4010801858466,-9.78462683670016 166.24599826838036,-14.296347343226461 170.59929491085288,-16.755779867740475 173.31891013913008,-12.560104354772081 169.2747370942135,-9.619923342866546 166.14912594951707,-13.522557705979413 169.92279674134625,-16.802711475987046 173.33052661490305,-13.143834994214478 169.7715070323386,-9.631943821224814 166.17569168194814,-13.10615048834988 169.57971315892354,-16.768477314875614 173.29364691897777,-13.420836948000868" stroke="#000" stroke-linecap="round" stroke-linejoin="round" stroke-width="3.0"/><polyline fill="none" points="173.29364691897777,-13.420836948000868 169.98971952768298,-9.667962876965184 166.20855449787786,-12.939474915362535 169.45740686459672,-16.740127267165466 173.27046270971684,-13.505841392046317 170.0443927707779,-9.685831869928013 166.2212980146364,-12.908245016246045 169.4427964319799,-16.732110592734486 173.26666200846833,-13.510612175390992 170.04607850448417,-9.685975997417327 166.2183623445012,-12.902898284107685 169.42703717568995,-16.737530708173356 173.27391911013916,-13.543552094843552 170.10299159428604,-9.677647454373808 166.20994462776693,-12.81519192680383 169.30169343025815,-16.7447070803939 173.27801080896705,-13.713387218720191 170.3241514316007,-9.679194018246909 166.22062289630773,-12.535949793604008 168.95777786209425,-16.72020393183104 173.23350341515456,-14.128260453491478 170.81575187281385,-9.751677599310725 166.33116245487938,-11.96266329635852 168.29906519842268,-16.55911396964488 173.00668177980444,-14.874374784281311 171.64876927855468,-10.062298970357606 166.74661368695985,-11.046611195109218 167.30831289428002,-16.014960417989567 172.30751663791824,-15.925730772727475 172.7394015074702,-10.944418148583917 167.83992877793503,-9.946837589159788 166.23990378355768,-14.683916859909612 170.71674870227974,-16.910542013300365 173.5757912517527,-12.80860640918575 169.9781813106087,-9.33625810992459 165.9436692270061,-12.289681927676526 168.1096760894309,-16.796167728378503 172.9528809867761,-15.553844774259348 172.74969689181538,-10.557974857662753 167.8338360752538,-9.644567811382439 165.78408919109833,-14.205109194913005 169.6850785726587,-17.332773154636467 173.73569211654893,-14.401471410009536" stroke="#000" stroke-linecap="round" stroke-linejoin="round" stroke-width="3.0"/><polyline fill="none" points="173.73569211654893,-14.401471410009536 172.05713854860662,-9.691645731754765 167.0616246967047,-9.903403507187512 165.7089994484952,-14.71696818816003 169.81601285767843,-17.568711664840396 173.90331667812399,-14.688790228521157 172.68417593870558,-9.83969795702433 167.7323938615802,-9.146982820290916 165.15118357661817,-13.429196437662906 168.00054506415358,-17.537862780084723 172.93223347651548,-16.71418237885174 174.38394801450085,-11.929569029770978 170.80909641459212,-8.4337950040894 166.02809902859883,-9.897374176913722 164.92396276238213,-14.773938859723225 168.53805601187784,-18.22912770896857 173.38659498628212,-17.007788356584264 175.0327900777112,-12.286555284498682 172.08068156094728,-8.251080677311842 167.08077500511652,-8.281649173521425 164.08921941171494,-12.287968573118462 165.37259305032194,-17.120457797496364 169.9114879334828,-19.2177019987319 174.47145448615626,-17.16667663601718 176.02396967023856,-12.413814697858886 173.65630454723257,-8.009934378719766 168.8680988459789,-6.57011280557894 164.4089826557715,-8.832032963814022 162.62930309157798,-13.504584798603222 164.34008686085872,-18.202799235468092 168.64653681437096,-20.743367832828618 173.6037909988605,-20.090963854942995 177.19419933426926,-16.611169610303357 178.12514968887425,-11.69860088943433 176.1727738162533,-7.095533602069568 172.06517667612493,-4.2446309845799455 167.07724105218887,-3.8975024615955824 162.5575793722995,-6.035879953840483 159.55768819643632,-10.03596156963011 158.64180153233696,-14.95136100594501 159.87277746863026,-19.797462350765063 162.91978154702485,-23.76177391095387 167.21989636060343,-26.31305056981353" stroke="#000" stroke-linecap="round" stroke-linejoin="round" stroke-width="3.0"/><polyline fill="none" points="167.21989636060343,-26.31305056981353 172.137197578237,-27.218671205101554 177.0851182745924,-26.49889291800353 181.59993576594638,-24.350306634010305 185.36901716416497,-21.06488041910264 188.22566153483035,-16.96127432938768 190.12434430615934,-12.335800976977321 191.10827846533195,-7.433569488112967 191.2776793385957,-2.4364399776702577 190.76350361443164,2.5370520877381395 189.70853981005183,7.424490207187672 188.25579929735153,12.208792141927912 186.54309705832725,16.90630755333862 184.70227597438182,21.555111457237114 182.8614548904364,26.203915361135607 181.1487526514121,30.901430772546313 179.6960121387118,35.68573270728655 178.641048334332,40.573170826736074 178.12687261016794,45.54666289214447" stroke="#000" stroke-linecap="round" stroke-linejoin="round" stroke-width="3.0"/><polyline fill="none" points="178.12687261016794,45.54666289214447 178.29627348343166,50.54379240258718 179.14608088312326,55.47104593609135 180.78984884848833,60.193124596600875 183.30203535796645,64.51619282895577 186.69199739147442,68.19153735857125 190.87419658101072,70.93183112731974 195.64000210390094,72.44414647736714 200.63985946104012,72.48191429781136 205.38755481561387,70.91367043279588 209.29924495959435,67.79940001783736 211.77670307844917,63.45633643675542 212.3347813833179,58.48757918713709 210.75662709455403,53.7431688928164 207.2388872499936,50.18993003425483 202.46967612608876,48.68838907390037 197.57578613114526,49.71300642559416 193.8957042789179,53.097825115111604 192.58980749326693,57.92427656366326 194.18249819929562,62.663826786514555 198.21422281890688,65.62105464239924 203.2141313124853,65.5908047524464 207.13355872081218,62.48627760795949 208.18713854581517,57.598540958717166 205.78641665032336,53.21259358323418 201.06032381844153,51.58040286385271 196.51342203199752,53.660230776068545 194.7689373658426,58.34603628308122 196.95558084827007,62.84254495990565 201.75279819662188,64.25205044505721 205.96299904826688,61.554976328758656 206.5748425219206,56.59255277128724 203.06450895424103,53.03199688159503 198.1072132070494,53.68408496987414 195.73347483441609,58.084694716067055 198.00860508599496,62.53708534789066 202.97846198817697,63.08528455605658 206.08718655584858,59.16918553249309 204.32784410021057,54.48893830357562 199.39183673669777,53.69154799303289 196.3275255751879,57.64249687974935 198.41864490094105,62.18421681447251 203.41660206877592,62.327129894657624" stroke="#f00" stroke-linecap="round" stroke-linejoin="round" stroke-width="3.0"/><polyline fill="none" points="203.41660206877592,62.327129894657624 205.67856582292404,57.86803581907231 202.53708495776593,53.9781646163401 197.72617473918424,55.340200911284626 197.18022908433284,60.310305874155006 201.62233124078975,62.60545912211053 205.30172006621876,59.21988710673291 203.30481169893355,54.63596335380396 198.3271394461333,55.107957997526064 197.30707291717917,60.002798574757094 201.71984031054006,62.35385874669883 205.157476109346,58.723065429148555 202.50450064917845,54.484938341890704 197.7592948816477,56.060699181546504 198.2398315788883,61.037554060142526 203.2072680853939,61.60726850952507 204.73797809584545,56.84733921762342 200.33814235928887,54.47216648888988 197.24808873485227,58.4030148194804 200.64019852579392,62.0763771983096 204.77127251611128,59.259601082512816 202.53971772487634,54.78521137957944 197.82223442594739,56.44212155346526 198.92991119841238,61.31788325475271 203.89451658731522,60.724003357402346 203.77289641156221,55.72548272296962 198.7822732390387,55.41941026443879 198.09380238740545,60.37178422916028 202.9872987300772,61.39827998865364 204.3094801195743,56.576264188879904 199.565103770981,54.99800785263139 197.76727586285014,59.66360693664469 202.3567344728591,61.64776158460298 204.4972256194147,57.1291005382844 200.04221213023726,54.85911049177606 197.6665643971905,59.258689772624365 202.0193809322185,61.71897191343403 204.54591400905886,57.40427254828337 200.2610915683582,54.82739524199421 197.6474392801364,59.08988532600296 201.89423058501208,61.72896918462365 204.54954492549112,57.49230708419055 200.31860879042867,54.827878548646275" stroke="#f00" stroke-linecap="round" stroke-linejoin="round" stroke-width="3.0"/><polyline fill="none" points="200.31860879042867,54.827878548646275 197.65013294888539,59.056263190929876 201.8778790643039,61.72575055436944 204.54736642774347,57.49800443895092 200.32025908116816,54.827505706405105 197.64571670911852,59.05205575346468 201.8644994263021,61.7356862021653 204.56425285949032,57.5272029361907 200.37198206183422,54.80234228670425 197.61114830497638,58.97101077520202 201.74720663689283,61.78046294154769 204.6195555135183,57.687833966066485 200.58323704475288,54.73687933769569 197.5368093794184,58.701633867283206 201.4120053534646,61.86119968598934 204.7027025456505,58.09671937798671 201.07371833393088,54.6571738279046 197.46865155318343,58.12177965055615 200.7354319144624,61.90703341631109 204.71234086118503,58.876489697854375 201.9616788678691,54.70110245850433 197.58736170708195,57.12295079744775 199.62645300845537,61.688266412458745 204.3641752070842,60.09014615145849 203.26814288911598,55.21175367463079 198.29653646633068,55.7438528918074 198.2052968336914,60.7430203554393 203.14608447660927,61.51023445045446 204.6295253355658,56.735362387458615 200.14969964920382,54.514740443090034 197.19830926618204,58.55074029529597 200.62667310500217,62.190289908733114 204.86671411537762,59.5403743949225 203.16099317704132,54.84031949306007 198.1992435456825,55.45760435089362 197.6259435438799,60.42462831982442 202.29059611189243,62.22491063649982 205.26402829750523,58.20512195579013 202.23871146309585,54.22423536466006 197.54159086438932,55.93802008894916 197.70929664858323,60.9352067744701 202.48679919329268,62.410154039728994 205.51075172663838,58.428231002291916" stroke="#f00" stroke-linecap="round" stroke-linejoin="round" stroke-width="3.0"/><polyline fill="none" points="205.51075172663838,58.428231002291916 202.88114923207488,54.17556234360414 197.95195848662493,55.01406016409659 196.7878824185596,59.876665114918474 200.7471444965566,62.93022759139329 205.19822668022525,60.65253854452422 205.13372516022014,55.652954606443274 200.66850028406208,53.40311754448989 196.5547152454477,56.24508388068608 196.97832305569514,61.227107206915825 201.46866540606877,63.4263856286808 205.72014127911874,60.79485510427604 205.86018158065536,55.79681661763496 201.82514401796897,52.844110762371045 197.06899739142676,54.38653394257525 195.43031915768336,59.11038127777307 198.1161167361141,63.327784669398724 203.0768851756718,63.952905848921624 206.80220784656214,60.61794393043584 206.84338916150278,55.61811352338205 203.25388025040883,52.13739150386123 198.25447201481626,52.2143154525968 194.68909969868812,55.71975697220414 194.4071016499208,60.71179834828381 197.45962271251446,64.67186339350995 202.33302650650742,65.7898685190326 206.8603144589429,63.66768478623927 209.22911762448703,59.264416504280064 208.6295496471703,54.30049484488854 205.37556530169772,50.504235385971214 200.59776090171798,49.03026621548831 195.738708699153,50.20908413728469 192.07823879032046,53.61510234723771 190.42972798503348,58.33552734133009 191.04450988236098,63.29758772172838 193.68448722997562,67.54382365536202 197.78843107253454,70.39998277857674 202.6590377979701,71.5301111456846 207.61980361086924,70.90496912216437 212.11780410530415,68.7213960063601 215.7705672029914,65.30711398049081 218.36849130064454,61.035019601520105 219.84914086654993,56.25928124363406" stroke="#f00" stroke-linecap="round" stroke-linejoin="round" stroke-width="3.0"/><polyline fill="none" points="219.84914086654993,56.25928124363406 220.25880950888458,51.276092344596854 219.71286896601663,46.30598682019871 218.36187660781326,41.4919635913312 216.36652327096286,36.90736272962907 213.881791525257,32.56845639831914 211.04915532349233,28.448241337372433 207.99501734150354,24.48942318204206 204.83351279244476,20.61580872184076" stroke="#f00" stroke-linecap="round" stroke-linejoin="round" stroke-width="3.0"/><polyline fill="none" points="204.83351279244476,20.61580872184076 201.672008243386,16.74219426163946 198.5105036943272,12.868579801438162 195.45636571233842,8.909761646107789 192.62372951057375,4.789546585161081 190.1389977648679,0.4506402538511489 188.1436444280175,-4.133960607850975 186.79265206981412,-8.947983836718489 186.24671152694614,-13.918089361116632 186.6563801692808,-18.901278260153838 188.13702973518616,-23.677016618039893 190.73495383283927,-27.94911099701061 194.38771693052652,-31.36339302287991 198.88571742496143,-33.5469661386842 203.84648323786058,-34.17210816220445 208.71708996329613,-33.04197979509662 212.82103380585505,-30.185820671881913 215.4610111534697,-25.939584738248286 216.07579305079722,-20.977524357850008 214.42728224551027,-16.257099363757618 210.76681233667776,-12.851081153804582 205.90776013411278,-11.67226323200817 201.129955734133,-13.146232402491039 197.8759713886604,-16.942491861408335 197.27640341134364,-21.90641352079985 199.64520657688774,-26.309681802759076 204.1724945293232,-28.431865535552436 209.04589832331615,-27.313860410029832 212.09841938590984,-23.353795364803712 211.81642133714257,-18.361753988724047 208.25104902101447,-14.85631246911668 203.2516407854219,-14.77938852038106 199.6621318743279,-18.260110539901834 199.7033131892685,-23.259940946955624 203.4286358601588,-26.594902865441444 208.38940429971652,-25.9697816859186 211.0752018781473,-21.75237829429299 209.436523644404,-17.028530959095146 204.68037701786182,-15.486107778890878 200.6453394551754,-18.43881363415474 200.78537975671196,-23.43685212079582 205.03685562976187,-26.068382645200632 209.52719798013553,-23.86910422343572" stroke="#000" stroke-linecap="round" stroke-linejoin="round" stroke-width="3.0"/><polyline fill="none" points="209.52719798013553,-23.86910422343572 209.95080579038301,-18.887080897205983 205.83702075176868,-16.045114561009733 201.37179587561056,-18.29495162296305 201.3072943556054,-23.294535561043993 205.75837653927402,-25.57222460791314 209.71763861727104,-22.518662131438386 208.5535625492058,-17.656057180616482 203.62437180375588,-16.817559360123955 200.9947693091923,-21.070228018811683 204.0187218425379,-25.052151056248814 208.79622438724738,-23.57720379099001 208.96393017144138,-18.580017105469064 204.26680957273487,-16.86623238117988 201.24149273832543,-20.847118972309893 204.21492492393818,-24.866907653019634 208.87957749195073,-23.066625336344323 208.30627749014826,-18.099601367413513 203.34452785878946,-17.482316509579874 201.63880692045308,-22.18237141144227 205.87884793082847,-24.832286925252966 209.30721176964866,-21.192737311815886 206.35582138662693,-17.156737459609893 201.8759957002649,-19.377359403978385 203.35943655922134,-24.15223146697426 208.30022420213922,-23.3850173719592 208.20898456950005,-18.385849908327305 203.23737814671478,-17.85375069115059 202.14134582874644,-22.732143167978265 206.87906802737524,-24.330263428978622 208.91815932874874,-19.764947813967677 204.54384216796166,-17.34309947502416 201.79318017464564,-21.51848671437414 205.7700891213682,-24.549030432830943 209.03686948264723,-20.763776667076073 205.43180270189984,-17.29917084442444 201.80281849018013,-20.73871639450647 205.09351568236596,-24.50319670250917 208.9687116564122,-21.34363088380312 205.92228399107782,-17.37887635421554 201.88596552231232,-20.329830982586245 204.7583143989377,-24.422459958067513 208.8943727308542,-21.61300779172193" stroke="#000" stroke-linecap="round" stroke-linejoin="round" stroke-width="3.0"/><polyline fill="none" points="208.8943727308542,-21.61300779172193 206.13353897399648,-17.44433930322411 201.94126817634032,-20.169199952710464 204.64102160952845,-24.377683218685124 208.8598043267121,-21.6940527699846 206.18526195466256,-17.46950272292497 201.95815460808717,-20.140001455470696 204.62764197152666,-24.36774757088927 208.85538808694523,-21.6982602074498 206.18691224540206,-17.469875565166138 201.95597611033955,-20.13430410071032 204.6112904508185,-24.370966201143478 208.85808175569423,-21.73188234252288 206.24442946747254,-17.469392258514073 201.95960702677183,-20.046269564803143 204.4861401036121,-24.360968929953856 208.8389566386401,-21.900686789144284 206.46330890559344,-17.501107508295924 202.00829541641593,-19.771097554804168 204.14878656297145,-24.2897586011228 208.73824517298047,-22.305603953164606 206.9404172648497,-17.640004869151273 202.1960409162564,-19.21826120539969 203.51822230575337,-24.040277005173447 208.41171864842516,-23.01378124568019 207.72324779679204,-18.06140728095868 202.7326246242685,-18.367479739489415 202.6110044485154,-23.366000373922134 207.5756098374182,-23.959880271272596 208.6832866098833,-19.084118569985176 203.96580331095439,-17.427208396099257 201.73424851971936,-21.901598099032594 205.86532251003666,-24.718374214829453 209.25743230097837,-21.04501183600032 206.16737867654186,-17.11416350540975 201.76754293998525,-19.489336234143202 203.2982529504367,-24.249265526044873 208.2656894569423,-23.67955107666242 208.746226154183,-18.702696198066413 204.00102038665227,-17.126935358410527 201.34804492648465,-21.36506244566833 204.78568072529052,-24.99585576321867 209.19844811865147,-22.64479559127701" stroke="#000" stroke-linecap="round" stroke-linejoin="round" stroke-width="3.0"/><polyline fill="none" points="209.19844811865147,-22.64479559127701 208.17838158969744,-17.749955014045966 203.2007093368972,-17.27796037032378 201.20380096961193,-21.861884123252693 204.8831897950409,-25.247456138630373 209.32529195149783,-22.95230289067493 208.7793462966465,-17.982197927804542 203.96843607806485,-16.62016163285994 200.82695521290668,-20.5100328355921 203.08891896705475,-24.969126911177444 208.08687613488962,-24.8262138309924 210.17799546064282,-20.28449389626928 207.113684299133,-16.333545009552775 202.1776769356202,-17.130935320095436 200.41833447998215,-21.81118254901287 203.5270590476537,-25.727281572576405 208.4969159498357,-25.17908236441056 210.77204620141464,-20.726691732586993 208.39830782878138,-16.32608198639405 203.44101208158975,-15.67399389811488 199.93067851391012,-19.234549787807044 200.54252198756376,-24.196973345278465 204.75272283920873,-26.894047461577063 209.54994018756057,-25.484541976425557 211.73658366998808,-20.988033299601156 209.9920990038332,-16.302227792588468 205.4451972173892,-14.222399880372585 200.71910438550734,-15.854590599753998 198.31838249001547,-20.24053797523695 199.3719623150184,-25.128274624479282 203.29138972334525,-28.232801768966233 208.29129821692368,-28.26305165891912 212.32302283653496,-25.30582380303446 213.91571354256368,-20.566273580183186 212.60981675691275,-15.739822131631524 208.9297349046854,-12.355003442114054 204.03584490974194,-11.330386090420232 199.2666337858371,-12.831927050774658 195.74889394127663,-16.3851659093362 194.17073965251274,-21.129576203656875 194.72881795738144,-26.09833345327521 197.20627607623624,-30.441397034357152 201.1179662202167,-33.55566744931569" stroke="#000" stroke-linecap="round" stroke-linejoin="round" stroke-width="3.0"/><polyline fill="none" points="201.1179662202167,-33.55566744931569 205.86566157479044,-35.12391131433119 210.8655189319296,-35.086143493886986 215.63132445481983,-33.57382814383959 219.81352364435614,-30.833534375091112 223.2034856778641,-27.15818984547564 225.71567218734225,-22.83512161312076 227.35944015270735,-18.113042952611238 228.20924755239895,-13.185789419107072 228.3786484256627,-8.188659908664366 228.00057686262724,-3.2029742092621465 227.21437479175398,1.7348275591115607 226.15879904691835,6.622133549830231 224.96965524452233,11.478669045141991 223.7805114421263,16.335204540453752 222.72493569729068,21.22251053117242 221.93873362641742,26.160312299546128 221.56066206338193,31.145997998948346 221.73006293664565,36.14312750939105" stroke="#000" stroke-linecap="round" stroke-linejoin="round" stroke-width="3.0"/><polyline fill="none" points="221.73006293664565,36.14312750939105 222.57987033633725,41.07038104289522 224.09418145309445,45.8355527965328 226.36702269162015,50.28911235091814 229.44570131854707,54.22887603826072 233.30554320536137,57.407180713522926 237.82259690391135,59.55106174669987 242.7502059010892,60.39880555878679 247.7084354496773,59.753856147198626 252.19767928726873,57.55233627069348 255.64774363082256,53.93335077399161 257.5092940566655,49.2928087784868 257.38403117208134,44.294378103790436 255.17314193488937,39.809741130648845 251.2033823920011,36.76983830791792 246.2738701117978,35.93323285770569 241.56560720260714,37.61616493534266 238.3819075840789,41.4715581369478 237.74692769052473,46.43107429629055 239.97155404554672,50.90891279053545 244.3691475620466,53.28823438789007 249.318144938441,52.575896709228324 252.7772038800167,48.96550736198266 253.15386367082436,43.979714806932996 250.17702517973572,39.96244800001401 245.27239710285465,38.990530602562025 241.05188734921612,41.671444144517785 239.9632284276461,46.55148735667133 242.74308061362962,50.70749768198125 247.68777637748542,51.44910661053205 251.49049590823017,48.20267408073997 251.41935952830158,43.203180144804996 247.4559383598862,40.15501797035352 242.63402141705654,41.47755983980494 240.88307397005042,46.1609542325315 243.74456389622998,50.26118293375938 248.74273566820068,50.1259833114408 251.287916661505,45.82225774963712 248.9062913443492,41.42591144290895 243.90764362041023,41.30963190060029 241.41121666277576,45.641819851878004 244.10260876591033,49.85565522445543 249.07330577893853,49.31512658999427" stroke="#f00" stroke-linecap="round" stroke-linejoin="round" stroke-width="3.0"/><polyline fill="none" points="249.07330577893853,49.31512658999427 250.70554270444833,44.58904971598955 247.06257913424304,41.16431375154542 242.48256939491694,43.17018283692413 242.62003533919153,48.168292791113274 247.3338088739664,49.835727666260134 250.5167191387499,45.979682769434405 247.91289665281224,41.71118087043924 243.04621530910168,42.858095295659986 242.7037247604096,47.84635152645412 247.39606799951707,49.57317373108386 250.30602026647054,45.50719564407303 247.09946249484568,41.67079273806432 242.61371084156104,43.87941948449618 243.7689758422456,48.74412531097668 248.7676861938222,48.63056994544479 249.63445452113757,43.706271755168046 244.95163113972603,41.95379773866874 242.42695932719306,46.26958645441948 246.28865835816373,49.44563440654491 249.99665486549333,46.09141886462882 247.1753303167217,41.963449897873076 242.7281167312015,44.248683217419384 244.49085697734512,48.92765178160376 249.32795922733777,47.66177587018279 248.52529559888146,42.726623278868786 243.5395965115176,43.10451825139302 243.53345095903026,48.10451447461004 248.5212529728152,48.453557554018204 249.17297046238187,43.49621307196001 244.2575907270737,42.58022068240553 243.1133299757904,47.447526644955296 247.9306371407099,48.78676212791388 249.43440854164743,44.018253810449984 244.71127867157074,42.37750878748352 242.9582990950183,47.06014293977323 247.60615866869628,48.90334704767061 249.5201959257338,44.28420628572449 244.92378172595014,42.31621835282779 242.9163150585781,46.89552808022014 247.48354371169367,48.930330879058445 249.53580752844042,44.37092157230916 244.98082673591054,42.3088473787643" stroke="#f00" stroke-linecap="round" stroke-linejoin="round" stroke-width="3.0"/><polyline fill="none" points="244.98082673591054,42.3088473787643 242.91439488662982,46.861852914921506 247.46690591956843,48.92937396559358 249.5344269702405,44.376862932654966 244.98241070108676,42.30825279892761 242.90944575132832,46.85828755891273 247.4550074550705,48.94104265672727 249.5551403139555,44.403483624049954 245.03021550506307,42.27626584632483 242.8641400456378,46.782718675776785 247.34492312071717,49.00140816150528 249.63184790386202,44.55506415364469 245.23055967069962,42.18258404021361 242.75373302655836,46.526007779025186 247.02387690127725,49.12713662804454 249.77002026971826,44.94877611224801 245.70557372477046,42.036685062287205 242.60707636487123,45.96088104499467 246.35988920093726,49.26487799073447 249.88598885372934,45.719934939206084 246.59122109899718,41.95901677439885 242.5883589526937,44.9551967819569 245.23143010250098,49.1995076679614 249.706716669277,46.969752043406544 247.95515288433356,42.286588122799614 243.10268348603947,43.492216895938036 243.69456725151528,48.4570606606668 248.69383217794493,48.542793941079076 249.5117342981504,43.61014393101721 244.77076198537475,42.02169137286682 242.39780671079933,46.42272344101453 246.2908059174965,49.56032717263125 250.12952244986067,46.35653951047979 247.79831364369971,41.93325277976952 242.9672346616575,43.2219249138944 243.0771817220057,48.22071593212277 247.94388499432273,49.36753730409774 250.34088827924407,44.979556532481226 246.80058034966785,41.44880310526776 242.38130098527927,43.78759978293967 243.22943695942834,48.71514129665157 248.16353366121135,49.524270295918036 250.6157523660769,45.16690602109462" stroke="#f00" stroke-linecap="round" stroke-linejoin="round" stroke-width="3.0"/><polyline fill="none" points="250.6157523660769,45.16690602109462 247.430364280756,41.31290774062074 242.6617299474775,42.81627948289788 242.17217790499245,47.7922556482044 246.51113431872955,50.27689993656637 250.60971759873405,47.41305372965035 249.8634930669733,42.469052420164445 245.1329977670308,40.84966543206621 241.44556632085929,44.22647595825589 242.54514047434478,49.10407133722969 247.29361815696694,50.66994479879648 251.14617168127737,47.482809511061845 250.6027860498162,42.512424007348734 246.202527736058,40.13803423896575 241.7013877817232,42.315128428818596 240.72273711382988,47.21841741379917 243.9589815957166,51.02981107668124 248.9586479971966,50.97205405189753 252.1939694147484,47.1598768098047 251.55240523662312,42.201208096798524 247.52144500605058,39.24293839652736 242.579313126679,40.00144514461805 239.52571194131775,43.96067736826449 239.92764961793114,48.944495794342885 243.49206557840174,52.45090975460804 248.47245193667794,52.89334813709332 252.6677507962746,50.17315191647487 254.41344638542137,45.48779740373697 253.14202892889307,40.65214877596892 249.4003903596942,37.3355027566471 244.46612811412575,36.52738389660377 239.8134218093533,38.35831918806833 236.65204387069093,42.2320369796658 235.66318556211763,47.133277561963865 236.94942056521379,51.96500598115406 240.1442085122027,55.81121580041433 244.5995519936413,58.08055809773366 249.57882199429085,58.535388022685375 254.4078540434249,57.23906650838566 258.5657612612268,54.46205236219358 261.7183766811478,50.58119987671101 263.70895155999966,45.994522249965954 264.5239702754483,41.06139499704936" stroke="#f00" stroke-linecap="round" stroke-linejoin="round" stroke-width="3.0"/><polyline fill="none" points="264.5239702754483,41.06139499704936 264.24971677171817,36.068922161300364 263.03058101981634,31.219828635863404 261.0352276829659,26.635227774161283 258.4328532679421,22.36584287654085 255.3792109875193,18.40664234825057 252.0107657483697,14.711567698010013 248.44491816892864,11.206609632612615 244.78433693668114,7.800711066577917" stroke="#f00" stroke-linecap="round" stroke-linejoin="round" stroke-width="3.0"/></svg>