<?xml version="1.0" ?><!DOCTYPE svg  PUBLIC '-//W3C//DTD SVG 1.1//EN'  'http://www.w3.org/Graphics/SVG/1.1/DTD/svg11.dtd'><svg height="198.000" viewBox="-88.000 -185.000 160.000 198.000" width="160.000" xmlns="http://www.w3.org/2000/svg"><line fill="none" stroke="none" stroke-linecap="round" stroke-width="2.0" x1="0.0" x2="0.0" y1="0.0" y2="0.0"/><polygon fill="none" fill-rule="evenodd" points="0.0,0.0 0.0,0.0 0.0,0.0" stroke-linejoin="round"/><polyline fill="none" points="0.0,-0.0 2.4492935982947065e-15,-40.0 -13.333333333333329,-63.09401076758503 -28.72934051172335,-71.98289965647393 -40.581192363575205,-71.98289965647393 -47.42386222063744,-68.03228237252331 -50.05760707660452,-63.47050246781516" stroke="#000" stroke-linecap="round" stroke-linejoin="round"/><polyline fill="none" points="-50.05760707660452,-63.47050246781516 -50.057607076604526,-52.935523043946844 -50.05760707660452,-63.47050246781516" stroke="#f00" stroke-linecap="round" stroke-linejoin="round"/><line fill="none" stroke="#000" stroke-linecap="round" x1="-50.05760707660452" x2="-51.37447950458806" y1="-63.47050246781516" y2="-61.18961251546108"/><polyline fill="none" points="-51.37447950458806,-61.18961251546108 -57.84679195329121,-56.657650549230596 -51.37447950458806,-61.18961251546108" stroke="#f00" stroke-linecap="round" stroke-linejoin="round"/><line fill="none" stroke="#000" stroke-linecap="round" x1="-51.37447950458806" x2="-54.00822436055514" y1="-61.18961251546108" y2="-56.627832610752925"/><polyline fill="none" points="-54.00822436055514,-56.627832610752925 -60.48053680925829,-52.095870644522435 -54.00822436055514,-56.62783261075292" stroke="#f00" stroke-linecap="round" stroke-linejoin="round"/><polyline fill="none" points="-54.00822436055514,-56.62783261075292 -55.32509678853868,-54.34694265839884 -47.42386222063744,-68.0322823725233 -50.845197149168555,-66.056973730548" stroke="#000" stroke-linecap="round" stroke-linejoin="round"/><polyline fill="none" points="-50.845197149168555,-66.056973730548 -62.65194912655221,-65.02401677946465 -50.845197149168555,-66.056973730548" stroke="#f00" stroke-linecap="round" stroke-linejoin="round"/><line fill="none" stroke="#000" stroke-linecap="round" x1="-50.845197149168555" x2="-57.68786700623079" y1="-66.056973730548" y2="-62.10635644659738"/><polyline fill="none" points="-57.68786700623079,-62.10635644659738 -69.49461898361444,-61.073399495514025 -57.68786700623079,-62.10635644659738" stroke="#f00" stroke-linecap="round" stroke-linejoin="round"/><polyline fill="none" points="-57.68786700623079,-62.10635644659738 -61.109201934761906,-60.13104780462207 -40.58119236357521,-71.98289965647392 -46.507118289501136,-71.98289965647392 -51.87783110157017,-74.48730417049288" stroke="#000" stroke-linecap="round" stroke-linejoin="round"/><polyline fill="none" points="-51.87783110157017,-74.48730417049288 -63.68458307895382,-73.45434721940953 -51.877831101570166,-74.48730417049288" stroke="#f00" stroke-linecap="round" stroke-linejoin="round"/><line fill="none" stroke="#000" stroke-linecap="round" x1="-51.877831101570166" x2="-54.56318750760468" y1="-74.48730417049288" y2="-75.73950642750236"/><polyline fill="none" points="-54.56318750760468,-75.73950642750236 -60.27685514926281,-82.54879036633773 -54.56318750760468,-75.73950642750236" stroke="#f00" stroke-linecap="round" stroke-linejoin="round"/><line fill="none" stroke="#000" stroke-linecap="round" x1="-54.56318750760468" x2="-59.93390031967372" y1="-75.73950642750236" y2="-78.24391094152132"/><polyline fill="none" points="-59.93390031967372,-78.24391094152132 -65.64756796133184,-85.05319488035668 -59.93390031967372,-78.24391094152132" stroke="#f00" stroke-linecap="round" stroke-linejoin="round"/><polyline fill="none" points="-59.93390031967372,-78.24391094152132 -62.61925672570824,-79.49611319853081 -46.50711828950113,-71.98289965647393 -58.358970141352984,-71.98289965647393 -63.72968295342202,-74.48730417049289" stroke="#000" stroke-linecap="round" stroke-linejoin="round"/><polyline fill="none" points="-63.72968295342202,-74.48730417049289 -75.53643493080567,-73.45434721940954 -63.729682953422014,-74.48730417049289" stroke="#f00" stroke-linecap="round" stroke-linejoin="round"/><line fill="none" stroke="#000" stroke-linecap="round" x1="-63.729682953422014" x2="-66.41503935945653" y1="-74.48730417049289" y2="-75.73950642750238"/><polyline fill="none" points="-66.41503935945653,-75.73950642750238 -72.12870700111466,-82.54879036633774 -66.41503935945653,-75.73950642750238" stroke="#f00" stroke-linecap="round" stroke-linejoin="round"/><line fill="none" stroke="#000" stroke-linecap="round" x1="-66.41503935945653" x2="-71.78575217152556" y1="-75.73950642750238" y2="-78.24391094152134"/><polyline fill="none" points="-71.78575217152556,-78.24391094152134 -77.49941981318369,-85.0531948803567 -71.78575217152556,-78.24391094152134" stroke="#f00" stroke-linecap="round" stroke-linejoin="round"/><polyline fill="none" points="-71.78575217152556,-78.24391094152134 -74.47110857756007,-79.49611319853082 -58.35897014135296,-71.98289965647393 -64.2848960672789,-71.98289965647393 -28.729340511723336,-71.98289965647393 -36.42734410091835,-76.42734410091838 -41.52580131292765,-83.70869560570941 -46.896514124996685,-86.21310011972837" stroke="#000" stroke-linecap="round" stroke-linejoin="round"/><polyline fill="none" points="-46.896514124996685,-86.21310011972837 -58.70326610238034,-85.18014316864502 -46.896514124996685,-86.21310011972837" stroke="#f00" stroke-linecap="round" stroke-linejoin="round"/><line fill="none" stroke="#000" stroke-linecap="round" x1="-46.896514124996685" x2="-49.5818705310312" y1="-86.21310011972837" y2="-87.46530237673785"/><polyline fill="none" points="-49.5818705310312,-87.46530237673785 -55.29553817268933,-94.27458631557322 -49.5818705310312,-87.46530237673785" stroke="#f00" stroke-linecap="round" stroke-linejoin="round"/><line fill="none" stroke="#000" stroke-linecap="round" x1="-49.5818705310312" x2="-54.95258334310024" y1="-87.46530237673785" y2="-89.96970689075681"/><polyline fill="none" points="-54.95258334310024,-89.96970689075681 -60.66625098475836,-96.77899082959217 -54.95258334310024,-89.96970689075681" stroke="#f00" stroke-linecap="round" stroke-linejoin="round"/><polyline fill="none" points="-54.95258334310024,-89.96970689075681 -57.63793974913476,-91.2219091477663 -41.52580131292765,-83.70869560570941 -44.075029918932294,-87.34937135810493" stroke="#000" stroke-linecap="round" stroke-linejoin="round"/><polyline fill="none" points="-44.075029918932294,-87.34937135810493 -46.39033895449136,-100.4801413982677 -44.075029918932294,-87.34937135810493" stroke="#f00" stroke-linecap="round" stroke-linejoin="round"/><line fill="none" stroke="#000" stroke-linecap="round" x1="-44.075029918932294" x2="-49.173487130941595" y1="-87.34937135810493" y2="-94.63072286289596"/><polyline fill="none" points="-49.173487130941595,-94.63072286289596 -51.48879616650066,-107.76149290305874 -49.173487130941595,-94.63072286289596" stroke="#f00" stroke-linecap="round" stroke-linejoin="round"/><polyline fill="none" points="-49.173487130941595,-94.63072286289596 -51.72271573694624,-98.27139861529149 -36.42734410091835,-76.42734410091836 -51.82335127930837,-85.31623298980725 -56.92180849131767,-92.59758449459828 -62.29252130338671,-95.10198900861724" stroke="#000" stroke-linecap="round" stroke-linejoin="round"/><polyline fill="none" points="-62.29252130338671,-95.10198900861724 -74.09927328077036,-94.06903205753389 -62.29252130338671,-95.10198900861724" stroke="#f00" stroke-linecap="round" stroke-linejoin="round"/><line fill="none" stroke="#000" stroke-linecap="round" x1="-62.29252130338671" x2="-64.97787770942122" y1="-95.10198900861724" y2="-96.35419126562672"/><polyline fill="none" points="-64.97787770942122,-96.35419126562672 -70.69154535107936,-103.16347520446209 -64.97787770942122,-96.35419126562672" stroke="#f00" stroke-linecap="round" stroke-linejoin="round"/><line fill="none" stroke="#000" stroke-linecap="round" x1="-64.97787770942122" x2="-70.34859052149025" y1="-96.35419126562672" y2="-98.85859577964568"/><polyline fill="none" points="-70.34859052149025,-98.85859577964568 -76.06225816314839,-105.66787971848105 -70.34859052149025,-98.85859577964568" stroke="#f00" stroke-linecap="round" stroke-linejoin="round"/><polyline fill="none" points="-70.34859052149025,-98.85859577964568 -73.03394692752477,-100.11079803665517 -56.921808491317655,-92.5975844945983 -59.4710370973223,-96.23826024699382" stroke="#000" stroke-linecap="round" stroke-linejoin="round"/><polyline fill="none" points="-59.4710370973223,-96.23826024699382 -61.78634613288137,-109.36903028715659 -59.4710370973223,-96.23826024699382" stroke="#f00" stroke-linecap="round" stroke-linejoin="round"/><line fill="none" stroke="#000" stroke-linecap="round" x1="-59.4710370973223" x2="-64.5694943093316" y1="-96.23826024699382" y2="-103.51961175178485"/><polyline fill="none" points="-64.5694943093316,-103.51961175178485 -66.88480334489067,-116.65038179194762 -64.5694943093316,-103.51961175178485" stroke="#f00" stroke-linecap="round" stroke-linejoin="round"/><polyline fill="none" points="-64.5694943093316,-103.51961175178485 -67.11872291533625,-107.16028750418037 -51.823351279308355,-85.31623298980725 -59.521354868503366,-89.76067743425169 -13.333333333333307,-63.09401076758502 -19.999999999999975,-74.64101615137753 -21.16207656996875,-87.92361212593414 -26.260533781978047,-95.20496363072517 -31.631246594047084,-97.70936814474413" stroke="#000" stroke-linecap="round" stroke-linejoin="round"/><polyline fill="none" points="-31.631246594047084,-97.70936814474413 -43.43799857143074,-96.67641119366078 -31.631246594047088,-97.70936814474413" stroke="#f00" stroke-linecap="round" stroke-linejoin="round"/><line fill="none" stroke="#000" stroke-linecap="round" x1="-31.631246594047088" x2="-34.31660300008161" y1="-97.70936814474413" y2="-98.96157040175362"/><polyline fill="none" points="-34.31660300008161,-98.96157040175362 -40.03027064173973,-105.77085434058898 -34.31660300008161,-98.96157040175362" stroke="#f00" stroke-linecap="round" stroke-linejoin="round"/><line fill="none" stroke="#000" stroke-linecap="round" x1="-34.31660300008161" x2="-39.68731581215064" y1="-98.96157040175362" y2="-101.46597491577258"/><polyline fill="none" points="-39.68731581215064,-101.46597491577258 -45.40098345380877,-108.27525885460794 -39.68731581215064,-101.46597491577258" stroke="#f00" stroke-linecap="round" stroke-linejoin="round"/><polyline fill="none" points="-39.68731581215064,-101.46597491577258 -42.372672218185166,-102.71817717278206 -26.260533781978054,-95.20496363072517 -28.809762387982705,-98.8456393831207" stroke="#000" stroke-linecap="round" stroke-linejoin="round"/><polyline fill="none" points="-28.809762387982705,-98.8456393831207 -31.125071423541776,-111.97640942328347 -28.80976238798271,-98.8456393831207" stroke="#f00" stroke-linecap="round" stroke-linejoin="round"/><line fill="none" stroke="#000" stroke-linecap="round" x1="-28.80976238798271" x2="-33.90821959999201" y1="-98.8456393831207" y2="-106.12699088791173"/><polyline fill="none" points="-33.90821959999201,-106.12699088791173 -36.22352863555108,-119.2577609280745 -33.90821959999201,-106.12699088791173" stroke="#f00" stroke-linecap="round" stroke-linejoin="round"/><polyline fill="none" points="-33.90821959999201,-106.12699088791173 -36.457448205996656,-109.76766664030725 -21.162076569968768,-87.92361212593414 -21.743114854953156,-94.56491011321245 -19.462980566115363,-100.8295275851185" stroke="#000" stroke-linecap="round" stroke-linejoin="round"/><polyline fill="none" points="-19.462980566115363,-100.8295275851185 -21.77828960167443,-113.96029762528127 -19.462980566115363,-100.8295275851185" stroke="#f00" stroke-linecap="round" stroke-linejoin="round"/><line fill="none" stroke="#000" stroke-linecap="round" x1="-19.462980566115363" x2="-18.322913421696466" y1="-100.8295275851185" y2="-103.96183632107153"/><polyline fill="none" points="-18.322913421696466,-103.96183632107153 -11.25184560983099,-111.032904132937 -18.322913421696466,-103.96183632107153" stroke="#f00" stroke-linecap="round" stroke-linejoin="round"/><line fill="none" stroke="#000" stroke-linecap="round" x1="-18.322913421696466" x2="-16.042779132858676" y1="-103.96183632107153" y2="-110.22645379297758"/><polyline fill="none" points="-16.042779132858676,-110.22645379297758 -8.971711320993201,-117.29752160484306 -16.042779132858676,-110.22645379297758" stroke="#f00" stroke-linecap="round" stroke-linejoin="round"/><polyline fill="none" points="-16.042779132858676,-110.22645379297758 -14.902711988439782,-113.35876252893061 -21.743114854953156,-94.56491011321245 -22.90519142492193,-107.84750608776905 -20.62505713608414,-114.1121235596751" stroke="#000" stroke-linecap="round" stroke-linejoin="round"/><polyline fill="none" points="-20.62505713608414,-114.1121235596751 -22.940366171643213,-127.24289359983787 -20.62505713608414,-114.1121235596751" stroke="#f00" stroke-linecap="round" stroke-linejoin="round"/><line fill="none" stroke="#000" stroke-linecap="round" x1="-20.62505713608414" x2="-19.484989991665245" y1="-114.1121235596751" y2="-117.24443229562813"/><polyline fill="none" points="-19.484989991665245,-117.24443229562813 -12.413922179799773,-124.3155001074936 -19.484989991665245,-117.24443229562813" stroke="#f00" stroke-linecap="round" stroke-linejoin="round"/><line fill="none" stroke="#000" stroke-linecap="round" x1="-19.484989991665245" x2="-17.204855702827455" y1="-117.24443229562813" y2="-123.50904976753418"/><polyline fill="none" points="-17.204855702827455,-123.50904976753418 -10.133787890961983,-130.58011757939965 -17.204855702827455,-123.50904976753418" stroke="#f00" stroke-linecap="round" stroke-linejoin="round"/><polyline fill="none" points="-17.204855702827455,-123.50904976753418 -16.06478855840856,-126.64135850348721 -22.905191424921927,-107.84750608776905 -23.486229709906315,-114.48880407504736 -19.99999999999998,-74.64101615137754 -33.333333333333314,-97.73502691896257 -34.49540990330209,-111.01762289351917 -39.59386711531139,-118.29897439831021 -44.96457992738043,-120.80337891232917" stroke="#000" stroke-linecap="round" stroke-linejoin="round"/><polyline fill="none" points="-44.96457992738043,-120.80337891232917 -56.77133190476408,-119.77042196124582 -44.96457992738043,-120.80337891232917" stroke="#f00" stroke-linecap="round" stroke-linejoin="round"/><line fill="none" stroke="#000" stroke-linecap="round" x1="-44.96457992738043" x2="-47.64993633341494" y1="-120.80337891232917" y2="-122.05558116933865"/><polyline fill="none" points="-47.64993633341494,-122.05558116933865 -53.36360397507307,-128.864865108174 -47.64993633341494,-122.05558116933864" stroke="#f00" stroke-linecap="round" stroke-linejoin="round"/><line fill="none" stroke="#000" stroke-linecap="round" x1="-47.64993633341494" x2="-53.02064914548398" y1="-122.05558116933864" y2="-124.5599856833576"/><polyline fill="none" points="-53.02064914548398,-124.5599856833576 -58.734316787142106,-131.36926962219295 -53.02064914548398,-124.55998568335758" stroke="#f00" stroke-linecap="round" stroke-linejoin="round"/><polyline fill="none" points="-53.02064914548398,-124.55998568335758 -55.706005551518494,-125.81218794036707 -39.59386711531138,-118.2989743983102 -42.14309572131603,-121.93965015070572" stroke="#000" stroke-linecap="round" stroke-linejoin="round"/><polyline fill="none" points="-42.14309572131603,-121.93965015070572 -44.458404756875105,-135.0704201908685 -42.14309572131603,-121.93965015070573" stroke="#f00" stroke-linecap="round" stroke-linejoin="round"/><line fill="none" stroke="#000" stroke-linecap="round" x1="-42.14309572131603" x2="-47.24155293332533" y1="-121.93965015070573" y2="-129.22100165549676"/><polyline fill="none" points="-47.24155293332533,-129.22100165549676 -49.556861968884405,-142.35177169565952 -47.24155293332533,-129.22100165549676" stroke="#f00" stroke-linecap="round" stroke-linejoin="round"/><polyline fill="none" points="-47.24155293332533,-129.22100165549676 -49.790781539329984,-132.86167740789227 -34.49540990330208,-111.01762289351917 -35.07644818828647,-117.65892088079748 -32.796313899448684,-123.92353835270353" stroke="#000" stroke-linecap="round" stroke-linejoin="round"/><polyline fill="none" points="-32.796313899448684,-123.92353835270353 -35.11162293500776,-137.0543083928663 -32.796313899448684,-123.92353835270352" stroke="#f00" stroke-linecap="round" stroke-linejoin="round"/><line fill="none" stroke="#000" stroke-linecap="round" x1="-32.796313899448684" x2="-31.65624675502979" y1="-123.92353835270352" y2="-127.05584708865655"/><polyline fill="none" points="-31.65624675502979,-127.05584708865655 -24.585178943164323,-134.12691490052202 -31.65624675502979,-127.05584708865655" stroke="#f00" stroke-linecap="round" stroke-linejoin="round"/><line fill="none" stroke="#000" stroke-linecap="round" x1="-31.65624675502979" x2="-29.376112466192" y1="-127.05584708865655" y2="-133.3204645605626"/><polyline fill="none" points="-29.376112466192,-133.3204645605626 -22.30504465432653,-140.3915323724281 -29.376112466191998,-133.3204645605626" stroke="#f00" stroke-linecap="round" stroke-linejoin="round"/><polyline fill="none" points="-29.376112466191998,-133.3204645605626 -28.236045321773105,-136.45277329651563 -35.07644818828647,-117.65892088079747 -36.23852475825525,-130.94151685535408 -33.958390469417466,-137.20613432726014" stroke="#000" stroke-linecap="round" stroke-linejoin="round"/><polyline fill="none" points="-33.958390469417466,-137.20613432726014 -36.27369950497654,-150.3369043674229 -33.958390469417466,-137.20613432726014" stroke="#f00" stroke-linecap="round" stroke-linejoin="round"/><line fill="none" stroke="#000" stroke-linecap="round" x1="-33.958390469417466" x2="-32.81832332499857" y1="-137.20613432726014" y2="-140.33844306321316"/><polyline fill="none" points="-32.81832332499857,-140.33844306321316 -25.747255513133105,-147.40951087507864 -32.81832332499857,-140.33844306321316" stroke="#f00" stroke-linecap="round" stroke-linejoin="round"/><line fill="none" stroke="#000" stroke-linecap="round" x1="-32.81832332499857" x2="-30.538189036160784" y1="-140.33844306321316" y2="-146.60306053511923"/><polyline fill="none" points="-30.538189036160784,-146.60306053511923 -23.467121224295312,-153.6741283469847 -30.53818903616078,-146.60306053511923" stroke="#f00" stroke-linecap="round" stroke-linejoin="round"/><polyline fill="none" points="-30.53818903616078,-146.60306053511923 -29.398121891741887,-149.73536927107224 -36.23852475825525,-130.94151685535408 -36.81956304323964,-137.5828148426324 -33.3333333333333,-97.73502691896257 -39.99999999999997,-109.28203230275508 4.263256414560601e-14,-40.00000000000003 3.26405569239796e-14,-60.00000000000003 8.45236523481401,-78.12615574073303 7.290288664845229,-91.40875171528963 2.1918314528359284,-98.69010322008066 -3.1788813592331078,-101.19450773409962" stroke="#000" stroke-linecap="round" stroke-linejoin="round"/><polyline fill="none" points="-3.1788813592331078,-101.19450773409962 -14.985633336616758,-100.16155078301625 -3.1788813592331078,-101.19450773409962" stroke="#f00" stroke-linecap="round" stroke-linejoin="round"/><line fill="none" stroke="#000" stroke-linecap="round" x1="-3.1788813592331078" x2="-5.864237765267626" y1="-101.19450773409962" y2="-102.44670999110909"/><polyline fill="none" points="-5.864237765267626,-102.44670999110909 -11.577905406925755,-109.25599392994445 -5.864237765267627,-102.44670999110909" stroke="#f00" stroke-linecap="round" stroke-linejoin="round"/><line fill="none" stroke="#000" stroke-linecap="round" x1="-5.864237765267627" x2="-11.234950577336663" y1="-102.44670999110909" y2="-104.95111450512805"/><polyline fill="none" points="-11.234950577336663,-104.95111450512805 -16.94861821899479,-111.76039844396341 -11.234950577336662,-104.95111450512805" stroke="#f00" stroke-linecap="round" stroke-linejoin="round"/><polyline fill="none" points="-11.234950577336662,-104.95111450512805 -13.92030698337118,-106.20331676213752 2.1918314528359275,-98.69010322008064 -0.35739715316872234,-102.33077897247617" stroke="#000" stroke-linecap="round" stroke-linejoin="round"/><polyline fill="none" points="-0.35739715316872234,-102.33077897247617 -2.6727061887277968,-115.46154901263894 -0.35739715316872234,-102.33077897247617" stroke="#f00" stroke-linecap="round" stroke-linejoin="round"/><line fill="none" stroke="#000" stroke-linecap="round" x1="-0.35739715316872234" x2="-5.455854365178022" y1="-102.33077897247617" y2="-109.6121304772672"/><polyline fill="none" points="-5.455854365178022,-109.6121304772672 -7.771163400737096,-122.74290051742997 -5.455854365178022,-109.6121304772672" stroke="#f00" stroke-linecap="round" stroke-linejoin="round"/><polyline fill="none" points="-5.455854365178022,-109.6121304772672 -8.005082971182672,-113.25280622966272 7.290288664845226,-91.40875171528963 6.709250379860836,-98.05004970256793 8.989384668698625,-104.31466717447398" stroke="#000" stroke-linecap="round" stroke-linejoin="round"/><polyline fill="none" points="8.989384668698625,-104.31466717447398 6.67407563313955,-117.44543721463675 8.989384668698625,-104.31466717447398" stroke="#f00" stroke-linecap="round" stroke-linejoin="round"/><line fill="none" stroke="#000" stroke-linecap="round" x1="8.989384668698625" x2="10.12945181311752" y1="-104.31466717447398" y2="-107.44697591042701"/><polyline fill="none" points="10.12945181311752,-107.44697591042701 17.200519624982988,-114.51804372229249 10.129451813117518,-107.44697591042701" stroke="#f00" stroke-linecap="round" stroke-linejoin="round"/><line fill="none" stroke="#000" stroke-linecap="round" x1="10.129451813117518" x2="12.409586101955306" y1="-107.44697591042701" y2="-113.71159338233306"/><polyline fill="none" points="12.409586101955306,-113.71159338233306 19.480653913820774,-120.78266119419854 12.409586101955304,-113.71159338233306" stroke="#f00" stroke-linecap="round" stroke-linejoin="round"/><polyline fill="none" points="12.409586101955304,-113.71159338233306 13.549653246374199,-116.8439021182861 6.709250379860833,-98.05004970256793 5.547173809892053,-111.33264567712453 7.827308098729842,-117.59726314903058" stroke="#000" stroke-linecap="round" stroke-linejoin="round"/><polyline fill="none" points="7.827308098729842,-117.59726314903058 5.511999063170768,-130.72803318919335 7.8273080987298425,-117.59726314903058" stroke="#f00" stroke-linecap="round" stroke-linejoin="round"/><line fill="none" stroke="#000" stroke-linecap="round" x1="7.8273080987298425" x2="8.967375243148737" y1="-117.59726314903058" y2="-120.72957188498361"/><polyline fill="none" points="8.967375243148737,-120.72957188498361 16.038443055014206,-127.80063969684909 8.967375243148735,-120.72957188498361" stroke="#f00" stroke-linecap="round" stroke-linejoin="round"/><line fill="none" stroke="#000" stroke-linecap="round" x1="8.967375243148735" x2="11.247509531986523" y1="-120.72957188498361" y2="-126.99418935688966"/><polyline fill="none" points="11.247509531986523,-126.99418935688966 18.31857734385199,-134.06525716875512 11.247509531986521,-126.99418935688965" stroke="#f00" stroke-linecap="round" stroke-linejoin="round"/><polyline fill="none" points="11.247509531986521,-126.99418935688965 12.387576676405416,-130.12649809284267 5.547173809892051,-111.3326456771245 4.966135524907661,-117.97394366440281 8.452365234814001,-78.126155740733 12.67854785222099,-87.1892336110995 20.338992283410768,-93.61710970796489 22.619126572248557,-99.88172717987094" stroke="#000" stroke-linecap="round" stroke-linejoin="round"/><polyline fill="none" points="22.619126572248557,-99.88172717987094 20.303817536689483,-113.01249722003371 22.619126572248557,-99.88172717987094" stroke="#f00" stroke-linecap="round" stroke-linejoin="round"/><line fill="none" stroke="#000" stroke-linecap="round" x1="22.619126572248557" x2="23.759193716667454" y1="-99.88172717987094" y2="-103.01403591582397"/><polyline fill="none" points="23.759193716667454,-103.01403591582397 30.830261528532926,-110.08510372768944 23.759193716667454,-103.01403591582397" stroke="#f00" stroke-linecap="round" stroke-linejoin="round"/><line fill="none" stroke="#000" stroke-linecap="round" x1="23.759193716667454" x2="26.039328005505244" y1="-103.01403591582397" y2="-109.27865338773003"/><polyline fill="none" points="26.039328005505244,-109.27865338773003 33.110395817370716,-116.3497211995955 26.039328005505244,-109.27865338773003" stroke="#f00" stroke-linecap="round" stroke-linejoin="round"/><polyline fill="none" points="26.039328005505244,-109.27865338773003 27.17939514992414,-112.41096212368306 20.33899228341077,-93.61710970796489 24.169214499005662,-96.83104775639758 28.998843630451002,-98.12514298191019" stroke="#000" stroke-linecap="round" stroke-linejoin="round"/><polyline fill="none" points="28.998843630451002,-98.12514298191019 36.069911442316474,-105.19621079377566 28.998843630451,-98.12514298191019" stroke="#f00" stroke-linecap="round" stroke-linejoin="round"/><line fill="none" stroke="#000" stroke-linecap="round" x1="28.998843630451" x2="31.41365819617367" y1="-98.12514298191019" y2="-98.77219059466648"/><polyline fill="none" points="31.41365819617367,-98.77219059466648 38.79971634376523,-97.46982926216451 31.41365819617367,-98.77219059466648" stroke="#f00" stroke-linecap="round" stroke-linejoin="round"/><line fill="none" stroke="#000" stroke-linecap="round" x1="31.41365819617367" x2="36.243287327619015" y1="-98.77219059466648" y2="-100.06628582017909"/><polyline fill="none" points="36.243287327619015,-100.06628582017909 43.62934547521058,-98.76392448767712 36.243287327619015,-100.06628582017909" stroke="#f00" stroke-linecap="round" stroke-linejoin="round"/><polyline fill="none" points="36.243287327619015,-100.06628582017909 38.65810189334169,-100.71333343293539 24.169214499005665,-96.83104775639757 31.829658930195443,-103.25892385326296 36.65928806164078,-104.55301907877556" stroke="#000" stroke-linecap="round" stroke-linejoin="round"/><polyline fill="none" points="36.65928806164078,-104.55301907877556 43.730355873506255,-111.62408689064104 36.65928806164078,-104.55301907877556" stroke="#f00" stroke-linecap="round" stroke-linejoin="round"/><line fill="none" stroke="#000" stroke-linecap="round" x1="36.65928806164078" x2="39.07410262736345" y1="-104.55301907877556" y2="-105.20006669153186"/><polyline fill="none" points="39.07410262736345,-105.20006669153186 46.460160774955014,-103.89770535902989 39.07410262736345,-105.20006669153186" stroke="#f00" stroke-linecap="round" stroke-linejoin="round"/><line fill="none" stroke="#000" stroke-linecap="round" x1="39.07410262736345" x2="43.90373175880879" y1="-105.20006669153186" y2="-106.49416191704447"/><polyline fill="none" points="43.90373175880879,-106.49416191704447 51.28978990640035,-105.19180058454249 43.90373175880879,-106.49416191704447" stroke="#f00" stroke-linecap="round" stroke-linejoin="round"/><polyline fill="none" points="43.90373175880879,-106.49416191704447 46.31854632453146,-107.14120952980076 31.829658930195443,-103.25892385326294 35.65988114579033,-106.47286190169564 12.678547852220998,-87.18923361109945 21.13091308703498,-105.31538935183245 28.791357518224757,-111.74326544869784 31.071491807062547,-118.00788292060389" stroke="#000" stroke-linecap="round" stroke-linejoin="round"/><polyline fill="none" points="31.071491807062547,-118.00788292060389 28.756182771503475,-131.13865296076665 31.071491807062547,-118.00788292060388" stroke="#f00" stroke-linecap="round" stroke-linejoin="round"/><line fill="none" stroke="#000" stroke-linecap="round" x1="31.071491807062547" x2="32.21155895148144" y1="-118.00788292060388" y2="-121.14019165655691"/><polyline fill="none" points="32.21155895148144,-121.14019165655691 39.28262676334691,-128.21125946842238 32.211558951481436,-121.14019165655691" stroke="#f00" stroke-linecap="round" stroke-linejoin="round"/><line fill="none" stroke="#000" stroke-linecap="round" x1="32.211558951481436" x2="34.49169324031923" y1="-121.14019165655691" y2="-127.40480912846296"/><polyline fill="none" points="34.49169324031923,-127.40480912846296 41.5627610521847,-134.47587694032842 34.49169324031922,-127.40480912846294" stroke="#f00" stroke-linecap="round" stroke-linejoin="round"/><polyline fill="none" points="34.49169324031922,-127.40480912846294 35.631760384738115,-130.53711786441596 28.791357518224746,-111.7432654486978 32.62157973381964,-114.9572034971305 37.451208865264974,-116.2512987226431" stroke="#000" stroke-linecap="round" stroke-linejoin="round"/><polyline fill="none" points="37.451208865264974,-116.2512987226431 44.52227667713045,-123.32236653450857 37.451208865264974,-116.2512987226431" stroke="#f00" stroke-linecap="round" stroke-linejoin="round"/><line fill="none" stroke="#000" stroke-linecap="round" x1="37.451208865264974" x2="39.866023430987646" y1="-116.2512987226431" y2="-116.8983463353994"/><polyline fill="none" points="39.866023430987646,-116.8983463353994 47.25208157857921,-115.59598500289742 39.866023430987646,-116.8983463353994" stroke="#f00" stroke-linecap="round" stroke-linejoin="round"/><line fill="none" stroke="#000" stroke-linecap="round" x1="39.866023430987646" x2="44.69565256243298" y1="-116.8983463353994" y2="-118.192441560912"/><polyline fill="none" points="44.69565256243298,-118.192441560912 52.081710710024545,-116.89008022841003 44.69565256243298,-118.192441560912" stroke="#f00" stroke-linecap="round" stroke-linejoin="round"/><polyline fill="none" points="44.69565256243298,-118.192441560912 47.110467128155655,-118.8394891736683 32.62157973381964,-114.95720349713048 40.28202416500942,-121.38507959399587 45.111653296454755,-122.67917481950848" stroke="#000" stroke-linecap="round" stroke-linejoin="round"/><polyline fill="none" points="45.111653296454755,-122.67917481950848 52.18272110832022,-129.75024263137394 45.11165329645475,-122.67917481950846" stroke="#f00" stroke-linecap="round" stroke-linejoin="round"/><line fill="none" stroke="#000" stroke-linecap="round" x1="45.11165329645475" x2="47.52646786217742" y1="-122.67917481950846" y2="-123.32622243226476"/><polyline fill="none" points="47.52646786217742,-123.32622243226476 54.91252600976898,-122.02386109976278 47.52646786217742,-123.32622243226476" stroke="#f00" stroke-linecap="round" stroke-linejoin="round"/><line fill="none" stroke="#000" stroke-linecap="round" x1="47.52646786217742" x2="52.35609699362276" y1="-123.32622243226476" y2="-124.62031765777736"/><polyline fill="none" points="52.35609699362276,-124.62031765777736 59.74215514121432,-123.31795632527539 52.35609699362276,-124.62031765777736" stroke="#f00" stroke-linecap="round" stroke-linejoin="round"/><polyline fill="none" points="52.35609699362276,-124.62031765777736 54.77091155934543,-125.26736527053366 40.28202416500941,-121.38507959399584 44.1122463806043,-124.59901764242854 21.130913087034966,-105.31538935183235 25.357095704441956,-114.37846722219885 1.4210854715202004e-14,-59.99999999999986 3.1086244689504383e-15,-99.99999999999984 8.452365234813984,-118.12615574073284 7.290288664845205,-131.40875171528944 2.191831452835906,-138.6901032200805 -3.178881359233129,-141.19450773409946" stroke="#000" stroke-linecap="round" stroke-linejoin="round"/><polyline fill="none" points="-3.178881359233129,-141.19450773409946 -14.985633336616775,-140.1615507830161 -3.178881359233129,-141.19450773409946" stroke="#f00" stroke-linecap="round" stroke-linejoin="round"/><line fill="none" stroke="#000" stroke-linecap="round" x1="-3.178881359233129" x2="-5.864237765267647" y1="-141.19450773409946" y2="-142.44670999110895"/><polyline fill="none" points="-5.864237765267647,-142.44670999110895 -11.577905406925773,-149.2559939299443 -5.864237765267648,-142.44670999110895" stroke="#f00" stroke-linecap="round" stroke-linejoin="round"/><line fill="none" stroke="#000" stroke-linecap="round" x1="-5.864237765267648" x2="-11.234950577336683" y1="-142.44670999110895" y2="-144.95111450512792"/><polyline fill="none" points="-11.234950577336683,-144.95111450512792 -16.948618218994806,-151.76039844396328 -11.234950577336683,-144.95111450512792" stroke="#f00" stroke-linecap="round" stroke-linejoin="round"/><polyline fill="none" points="-11.234950577336683,-144.95111450512792 -13.9203069833712,-146.2033167621374 2.191831452835901,-138.69010322008052 -0.35739715316874676,-142.33077897247603" stroke="#000" stroke-linecap="round" stroke-linejoin="round"/><polyline fill="none" points="-0.35739715316874676,-142.33077897247603 -2.6727061887278154,-155.46154901263878 -0.35739715316874676,-142.33077897247603" stroke="#f00" stroke-linecap="round" stroke-linejoin="round"/><line fill="none" stroke="#000" stroke-linecap="round" x1="-0.35739715316874676" x2="-5.455854365178041" y1="-142.33077897247603" y2="-149.61213047726707"/><polyline fill="none" points="-5.455854365178041,-149.61213047726707 -7.771163400737109,-162.74290051742983 -5.455854365178041,-149.61213047726707" stroke="#f00" stroke-linecap="round" stroke-linejoin="round"/><polyline fill="none" points="-5.455854365178041,-149.61213047726707 -8.005082971182688,-153.25280622966258 7.290288664845196,-131.40875171528947 6.7092503798608085,-138.05004970256778 8.989384668698598,-144.31466717447384" stroke="#000" stroke-linecap="round" stroke-linejoin="round"/><polyline fill="none" points="8.989384668698598,-144.31466717447384 6.67407563313953,-157.4454372146366 8.989384668698598,-144.31466717447384" stroke="#f00" stroke-linecap="round" stroke-linejoin="round"/><line fill="none" stroke="#000" stroke-linecap="round" x1="8.989384668698598" x2="10.129451813117493" y1="-144.31466717447384" y2="-147.44697591042686"/><polyline fill="none" points="10.129451813117493,-147.44697591042686 17.200519624982963,-154.51804372229233 10.129451813117493,-147.44697591042686" stroke="#f00" stroke-linecap="round" stroke-linejoin="round"/><line fill="none" stroke="#000" stroke-linecap="round" x1="10.129451813117493" x2="12.409586101955284" y1="-147.44697591042686" y2="-153.71159338233292"/><polyline fill="none" points="12.409586101955284,-153.71159338233292 19.480653913820753,-160.7826611941984 12.409586101955282,-153.71159338233292" stroke="#f00" stroke-linecap="round" stroke-linejoin="round"/><polyline fill="none" points="12.409586101955282,-153.71159338233292 13.549653246374177,-156.84390211828594 6.709250379860805,-138.05004970256778 5.547173809892032,-151.33264567712436 7.827308098729822,-157.59726314903043" stroke="#000" stroke-linecap="round" stroke-linejoin="round"/><polyline fill="none" points="7.827308098729822,-157.59726314903043 5.511999063170755,-170.72803318919318 7.827308098729823,-157.59726314903043" stroke="#f00" stroke-linecap="round" stroke-linejoin="round"/><line fill="none" stroke="#000" stroke-linecap="round" x1="7.827308098729823" x2="8.967375243148718" y1="-157.59726314903043" y2="-160.72957188498344"/><polyline fill="none" points="8.967375243148718,-160.72957188498344 16.038443055014188,-167.80063969684892 8.967375243148718,-160.72957188498344" stroke="#f00" stroke-linecap="round" stroke-linejoin="round"/><line fill="none" stroke="#000" stroke-linecap="round" x1="8.967375243148718" x2="11.247509531986509" y1="-160.72957188498344" y2="-166.9941893568895"/><polyline fill="none" points="11.247509531986509,-166.9941893568895 18.318577343851977,-174.06525716875498 11.247509531986507,-166.9941893568895" stroke="#f00" stroke-linecap="round" stroke-linejoin="round"/><polyline fill="none" points="11.247509531986507,-166.9941893568895 12.387576676405402,-170.12649809284252 5.54717380989203,-151.3326456771244 4.966135524907643,-157.9739436644027 8.452365234813962,-118.12615574073291 12.678547852220953,-127.18923361109941 20.33899228341073,-133.6171097079648 22.61912657224852,-139.88172717987086" stroke="#000" stroke-linecap="round" stroke-linejoin="round"/><polyline fill="none" points="22.61912657224852,-139.88172717987086 20.30381753668945,-153.01249722003362 22.61912657224852,-139.88172717987086" stroke="#f00" stroke-linecap="round" stroke-linejoin="round"/><line fill="none" stroke="#000" stroke-linecap="round" x1="22.61912657224852" x2="23.759193716667415" y1="-139.88172717987086" y2="-143.01403591582388"/><polyline fill="none" points="23.759193716667415,-143.01403591582388 30.830261528532887,-150.08510372768936 23.75919371666742,-143.01403591582388" stroke="#f00" stroke-linecap="round" stroke-linejoin="round"/><line fill="none" stroke="#000" stroke-linecap="round" x1="23.75919371666742" x2="26.039328005505208" y1="-143.01403591582388" y2="-149.27865338772995"/><polyline fill="none" points="26.039328005505208,-149.27865338772995 33.11039581737068,-156.34972119959542 26.03932800550521,-149.27865338772995" stroke="#f00" stroke-linecap="round" stroke-linejoin="round"/><polyline fill="none" points="26.03932800550521,-149.27865338772995 27.179395149924108,-152.41096212368296 20.338992283410736,-133.6171097079648 24.169214499005623,-136.83104775639748 28.99884363045096,-138.12514298191007" stroke="#000" stroke-linecap="round" stroke-linejoin="round"/><polyline fill="none" points="28.99884363045096,-138.12514298191007 36.06991144231643,-145.19621079377555 28.998843630450963,-138.12514298191007" stroke="#f00" stroke-linecap="round" stroke-linejoin="round"/><line fill="none" stroke="#000" stroke-linecap="round" x1="28.998843630450963" x2="31.413658196173632" y1="-138.12514298191007" y2="-138.77219059466637"/><polyline fill="none" points="31.413658196173632,-138.77219059466637 38.79971634376518,-137.46982926216438 31.41365819617363,-138.77219059466637" stroke="#f00" stroke-linecap="round" stroke-linejoin="round"/><line fill="none" stroke="#000" stroke-linecap="round" x1="31.41365819617363" x2="36.243287327618965" y1="-138.77219059466637" y2="-140.06628582017896"/><polyline fill="none" points="36.243287327618965,-140.06628582017896 43.62934547521052,-138.76392448767697 36.243287327618965,-140.06628582017896" stroke="#f00" stroke-linecap="round" stroke-linejoin="round"/><polyline fill="none" points="36.243287327618965,-140.06628582017896 38.65810189334164,-140.71333343293526 24.169214499005626,-136.83104775639745 31.8296589301954,-143.25892385326284 36.65928806164074,-144.55301907877543" stroke="#000" stroke-linecap="round" stroke-linejoin="round"/><polyline fill="none" points="36.65928806164074,-144.55301907877543 43.730355873506205,-151.6240868906409 36.65928806164074,-144.55301907877543" stroke="#f00" stroke-linecap="round" stroke-linejoin="round"/><line fill="none" stroke="#000" stroke-linecap="round" x1="36.65928806164074" x2="39.07410262736341" y1="-144.55301907877543" y2="-145.20006669153173"/><polyline fill="none" points="39.07410262736341,-145.20006669153173 46.460160774954964,-143.89770535902974 39.07410262736341,-145.20006669153173" stroke="#f00" stroke-linecap="round" stroke-linejoin="round"/><line fill="none" stroke="#000" stroke-linecap="round" x1="39.07410262736341" x2="43.903731758808746" y1="-145.20006669153173" y2="-146.49416191704432"/><polyline fill="none" points="43.903731758808746,-146.49416191704432 51.2897899064003,-145.19180058454234 43.903731758808746,-146.49416191704432" stroke="#f00" stroke-linecap="round" stroke-linejoin="round"/><polyline fill="none" points="43.903731758808746,-146.49416191704432 46.31854632453142,-147.14120952980062 31.829658930195407,-143.25892385326281 35.659881145790294,-146.4728619016955 12.67854785222097,-127.18923361109933 21.13091308703495,-145.31538935183232 28.791357518224725,-151.7432654486977 31.071491807062515,-158.00788292060378" stroke="#000" stroke-linecap="round" stroke-linejoin="round"/><polyline fill="none" points="31.071491807062515,-158.00788292060378 28.756182771503447,-171.13865296076654 31.071491807062515,-158.00788292060378" stroke="#f00" stroke-linecap="round" stroke-linejoin="round"/><line fill="none" stroke="#000" stroke-linecap="round" x1="31.071491807062515" x2="32.21155895148141" y1="-158.00788292060378" y2="-161.1401916565568"/><polyline fill="none" points="32.21155895148141,-161.1401916565568 39.282626763346876,-168.21125946842227 32.21155895148141,-161.1401916565568" stroke="#f00" stroke-linecap="round" stroke-linejoin="round"/><line fill="none" stroke="#000" stroke-linecap="round" x1="32.21155895148141" x2="34.4916932403192" y1="-161.1401916565568" y2="-167.40480912846286"/><polyline fill="none" points="34.4916932403192,-167.40480912846286 41.56276105218467,-174.47587694032833 34.4916932403192,-167.40480912846286" stroke="#f00" stroke-linecap="round" stroke-linejoin="round"/><polyline fill="none" points="34.4916932403192,-167.40480912846286 35.631760384738094,-170.53711786441588 28.79135751822472,-151.74326544869774 32.62157973381961,-154.95720349713042 37.451208865264945,-156.251298722643" stroke="#000" stroke-linecap="round" stroke-linejoin="round"/><polyline fill="none" points="37.451208865264945,-156.251298722643 44.522276677130414,-163.3223665345085 37.451208865264945,-156.251298722643" stroke="#f00" stroke-linecap="round" stroke-linejoin="round"/><line fill="none" stroke="#000" stroke-linecap="round" x1="37.451208865264945" x2="39.86602343098762" y1="-156.251298722643" y2="-156.8983463353993"/><polyline fill="none" points="39.86602343098762,-156.8983463353993 47.25208157857917,-155.59598500289732 39.86602343098762,-156.8983463353993" stroke="#f00" stroke-linecap="round" stroke-linejoin="round"/><line fill="none" stroke="#000" stroke-linecap="round" x1="39.86602343098762" x2="44.695652562432954" y1="-156.8983463353993" y2="-158.1924415609119"/><polyline fill="none" points="44.695652562432954,-158.1924415609119 52.08171071002451,-156.89008022840991 44.695652562432954,-158.1924415609119" stroke="#f00" stroke-linecap="round" stroke-linejoin="round"/><polyline fill="none" points="44.695652562432954,-158.1924415609119 47.110467128155626,-158.8394891736682 32.621579733819615,-154.9572034971304 40.28202416500939,-161.38507959399578 45.111653296454726,-162.67917481950838" stroke="#000" stroke-linecap="round" stroke-linejoin="round"/><polyline fill="none" points="45.111653296454726,-162.67917481950838 52.182721108320195,-169.75024263137385 45.111653296454726,-162.67917481950838" stroke="#f00" stroke-linecap="round" stroke-linejoin="round"/><line fill="none" stroke="#000" stroke-linecap="round" x1="45.111653296454726" x2="47.5264678621774" y1="-162.67917481950838" y2="-163.32622243226467"/><polyline fill="none" points="47.5264678621774,-163.32622243226467 54.91252600976895,-162.02386109976268 47.5264678621774,-163.32622243226467" stroke="#f00" stroke-linecap="round" stroke-linejoin="round"/><line fill="none" stroke="#000" stroke-linecap="round" x1="47.5264678621774" x2="52.356096993622735" y1="-163.32622243226467" y2="-164.62031765777726"/><polyline fill="none" points="52.356096993622735,-164.62031765777726 59.74215514121429,-163.31795632527528 52.356096993622735,-164.62031765777726" stroke="#f00" stroke-linecap="round" stroke-linejoin="round"/><polyline fill="none" points="52.356096993622735,-164.62031765777726 54.77091155934541,-165.26736527053356 40.282024165009396,-161.38507959399575 44.11224638060428,-164.59901764242844 21.13091308703496,-145.31538935183227 25.35709570444195,-154.37846722219876 3.552713678800501e-15,-99.99999999999982 4.6629367034256575e-15,-119.9999999999998 -1.9984014443252818e-15,8.526512829121202e-14" stroke="#000" stroke-linecap="round" stroke-linejoin="round"/></svg>