<?xml version="1.0" ?><!DOCTYPE svg  PUBLIC '-//W3C//DTD SVG 1.1//EN'  'http://www.w3.org/Graphics/SVG/1.1/DTD/svg11.dtd'><svg height="103.000" viewBox="-79.000 -56.000 102.000 103.000" width="102.000" xmlns="http://www.w3.org/2000/svg"><line fill="none" stroke="none" stroke-linecap="round" stroke-width="2.0" x1="0.0" x2="0.0" y1="0.0" y2="0.0"/><polygon fill="none" fill-rule="evenodd" points="0.0,0.0 0.0,0.0 0.0,0.0" stroke-linejoin="round"/><polyline fill="none" points="0.0,-0.0 6.123233995736766e-16,-10.0 10.0,-10.0 10.0,-0.0 0.0,1.2246467991473533e-15" stroke="#f00" stroke-linecap="round" stroke-linejoin="round" stroke-width="2.0"/><polyline fill="none" points="-1.8369701987210296e-15,-9.999999999999998 -3.4202014332566906,-19.39692620785908 5.976724774602393,-22.81712764111577 9.396926207859082,-13.420201433256688 -1.7763568394002505e-15,-9.999999999999996" stroke="#000" stroke-linecap="round" stroke-linejoin="round" stroke-width="2.0"/><polyline fill="none" points="-3.420201433256693,-19.39692620785908 -9.84807753012209,-27.057370639048862 -2.187633098932311,-33.48524673591426 4.240242997933086,-25.82480230472448 -3.4202014332566932,-19.39692620785908" stroke="#f00" stroke-linecap="round" stroke-linejoin="round" stroke-width="2.0"/><polyline fill="none" points="-9.84807753012209,-27.057370639048862 -18.50833156796648,-32.05737063904886 -13.508331567966483,-40.71762467689325 -4.848077530122092,-35.71762467689325 -9.848077530122088,-27.057370639048862" stroke="#000" stroke-linecap="round" stroke-linejoin="round" stroke-width="2.0"/><polyline fill="none" points="-18.50833156796648,-32.057370639048855 -28.356409098088562,-33.793852415718156 -26.619927321419265,-43.64192994584024 -16.771849791297182,-41.905448169170946 -18.50833156796648,-32.05737063904886" stroke="#f00" stroke-linecap="round" stroke-linejoin="round" stroke-width="2.0"/><polyline fill="none" points="-28.356409098088562,-33.793852415718156 -38.204486628210645,-32.05737063904884 -39.94096840487996,-41.905448169170924 -30.092890874757877,-43.64192994584024 -28.356409098088562,-33.793852415718156" stroke="#000" stroke-linecap="round" stroke-linejoin="round" stroke-width="2.0"/><polyline fill="none" points="-38.204486628210645,-32.05737063904884 -46.86474066605503,-27.05737063904883 -51.864740666055035,-35.717624676893216 -43.20448662821065,-40.71762467689322 -38.204486628210645,-32.05737063904884" stroke="#f00" stroke-linecap="round" stroke-linejoin="round" stroke-width="2.0"/><polyline fill="none" points="-46.86474066605503,-27.05737063904883 -53.29261676292042,-19.396926207859043 -60.953061194110205,-25.82480230472443 -54.525185097244815,-33.48524673591422 -46.86474066605503,-27.057370639048827" stroke="#000" stroke-linecap="round" stroke-linejoin="round" stroke-width="2.0"/><polyline fill="none" points="-53.29261676292042,-19.39692620785904 -56.712818196177096,-9.999999999999948 -66.10974440403619,-13.420201433256628 -62.68954297077951,-22.817127641115718 -53.292616762920424,-19.39692620785904" stroke="#f00" stroke-linecap="round" stroke-linejoin="round" stroke-width="2.0"/><polyline fill="none" points="-56.7128181961771,-9.999999999999948 -56.71281819617709,5.3290705182007514e-14 -66.7128181961771,6.500525882783276e-14 -66.71281819617711,-9.999999999999936 -56.71281819617711,-9.999999999999948" stroke="#000" stroke-linecap="round" stroke-linejoin="round" stroke-width="2.0"/><polyline fill="none" points="-56.712818196177096,5.3290705182007514e-14 -53.292616762920396,9.396926207859135 -62.68954297077948,12.817127641115835 -66.10974440403618,3.4202014332567536 -56.712818196177096,5.1514348342607263e-14" stroke="#f00" stroke-linecap="round" stroke-linejoin="round" stroke-width="2.0"/><polyline fill="none" points="-53.292616762920396,9.396926207859133 -46.86474066605499,17.057370639048905 -54.525185097244766,23.485246735914313 -60.95306119411017,15.824802304724539 -53.292616762920396,9.396926207859131" stroke="#000" stroke-linecap="round" stroke-linejoin="round" stroke-width="2.0"/><polyline fill="none" points="-46.86474066605499,17.057370639048905 -38.204486628210596,22.057370639048894 -43.20448662821058,30.71762467689329 -51.86474066605498,25.7176246768933 -46.86474066605499,17.057370639048905" stroke="#f00" stroke-linecap="round" stroke-linejoin="round" stroke-width="2.0"/><polyline fill="none" points="-38.204486628210596,22.05737063904889 -28.35640909808851,23.793852415718177 -30.092890874757796,33.64192994584026 -39.94096840487988,31.905448169170974 -38.204486628210596,22.057370639048887" stroke="#000" stroke-linecap="round" stroke-linejoin="round" stroke-width="2.0"/><polyline fill="none" points="-28.35640909808851,23.793852415718174 -18.50833156796643,22.05737063904885 -16.771849791297107,31.90544816917093 -26.619927321419187,33.64192994584025 -28.35640909808851,23.793852415718174" stroke="#f00" stroke-linecap="round" stroke-linejoin="round" stroke-width="2.0"/><polyline fill="none" points="-18.50833156796643,22.057370639048848 -9.848077530122051,17.05737063904883 -4.8480775301220325,25.71762467689321 -13.508331567966412,30.717624676893227 -18.50833156796643,22.057370639048848" stroke="#000" stroke-linecap="round" stroke-linejoin="round" stroke-width="2.0"/><polyline fill="none" points="-9.848077530122051,17.05737063904883 -3.420201433256671,9.396926207859035 4.240242997933125,15.824802304724415 -2.187633098932255,23.48524673591421 -9.848077530122051,17.05737063904883" stroke="#f00" stroke-linecap="round" stroke-linejoin="round" stroke-width="2.0"/><polyline fill="none" points="-3.420201433256671,9.396926207859035 -4.440892098500626e-16,-5.861977570020827e-14 9.396926207859094,3.4202014332566115 5.976724774602425,12.817127641115706 -3.4202014332566693,9.396926207859037" stroke="#000" stroke-linecap="round" stroke-linejoin="round" stroke-width="2.0"/><line fill="none" stroke="none" stroke-linecap="round" stroke-width="2.0" x1="0.0" x2="0.0" y1="0.0" y2="0.0"/></svg>