<?xml version="1.0" ?><!DOCTYPE svg  PUBLIC '-//W3C//DTD SVG 1.1//EN'  'http://www.w3.org/Graphics/SVG/1.1/DTD/svg11.dtd'><svg height="424.000" viewBox="-216.000 -220.000 422.000 424.000" width="422.000" xmlns="http://www.w3.org/2000/svg"><line fill="none" stroke="none" stroke-linecap="round" stroke-width="2.0" x1="0.0" x2="0.0" y1="0.0" y2="0.0"/><polygon fill="none" fill-rule="evenodd" points="0.0,0.0 0.0,0.0 0.0,0.0" stroke-linejoin="round"/><polyline fill="none" points="0.0,-0.0 6.123233995736766e-16,-10.0 7.0710678118654755,-17.071067811865476 17.071067811865476,-17.07106781186548 24.14213562373095,-10.000000000000005 24.142135623730955,-5.329070518200751e-15 17.071067811865483,7.071067811865473 7.071067811865483,7.071067811865477 3.552713678800501e-15,6.217248937900877e-15 9.510565162951536,-3.0901699437494745 18.420630404835215,1.4497350536459859 21.5108003485847,10.960300216597519 16.970895351189238,19.870365458481203 7.460330188237705,22.960535402230686 -1.4497350536459788,18.42063040483523 -4.539904997395464,8.910065241883697 -6.217248937900877e-15,1.2434497875801753e-14 5.877852522924736,8.090169943749478 4.313507872522443,17.967053349700855 -3.7766620712270207,23.8449058726256 -13.6535454771784,22.28056122222331 -19.531398000103145,14.190391278473847 -17.967053349700855,4.313507872522468 -9.876883405951393,-1.564344650402278 -1.4210854715202004e-14,1.1102230246251565e-14 -5.8778525229247265,8.090169943749496 -15.754735928876098,9.654514594151825 -23.84490587262558,3.776662071227114 -25.40925052302791,-6.1002213347242575 -19.531398000103202,-14.190391278473744 -9.654514594151832,-15.754735928876077 -1.5643446504023455,-9.876883405951368 -1.1546319456101628e-14,3.552713678800501e-15 -9.51056516295155,-3.0901699437494443 -14.050470160347041,-12.000235185633107 -10.960300216597595,-21.510800348584645 -2.0502349747139323,-26.050705345980138 7.460330188237609,-22.960535402230693 12.000235185633102,-14.05047016034703 8.910065241883657,-4.539904997395487 -5.329070518200751e-15,7.993605777301127e-15 -5.445643935786393e-14,-14.99999999999999 10.60660171779812,-25.606601717798235" stroke="#f00" stroke-linecap="round" stroke-linejoin="round" stroke-width="2.0"/><polyline fill="none" points="10.60660171779812,-25.606601717798235 25.606601717798117,-25.606601717798288 36.21320343559637,-15.000000000000114 36.21320343559643,-1.1723955140041653e-13 25.606601717798256,10.606601717798133 10.60660171779826,10.60660171779819 7.105427357601002e-15,1.9539925233402755e-14 14.265847744427289,-4.635254915624248 27.63094560725283,2.174602580468898 32.2662005228771,16.44045032489618 25.456343026783955,29.80554818772172 11.190495282356675,34.440803103345985 -2.174602580468868,27.63094560725284 -6.80985749609314,13.36509786282556 8.881784197001252e-16,1.5987211554602254e-14 8.81677878438715,12.135254915624186 6.470261808783755,26.950580024551257 -5.664993106840411,35.76735880893841 -20.480318215767483,33.42084183333502 -29.297097000154636,21.28558691771085 -26.950580024551247,6.47026180878378 -14.815325108927084,-2.3465169756033735 -1.2434497875801753e-14,1.509903313490213e-14 -8.816778784387044,12.135254915624266 -23.63210389331409,14.481771891227806 -35.76735880893834,5.664993106840779 -38.11387578454188,-9.150332002086266 -29.297097000154857,-21.285586917710518 -14.481771891227813,-23.632103893314063 -2.346516975603558,-14.815325108927041 -1.0658141036401503e-14,1.7763568394002505e-15 -14.265847744427333,-4.635254915624123 -21.075705240520612,-18.000352778449592 -16.440450324896492,-32.266200522876915 -3.0753524620710255,-39.076058018970194 11.190495282356297,-34.44080310334608 18.00035277844958,-21.075705240520612 13.365097862825468,-6.80985749609329 7.105427357601002e-15,-5.329070518200751e-15 -1.2723155862204294e-13,-19.999999999999986 14.142135623730713,-34.14213562373102 34.142135623730695,-34.142135623731164 48.28427124746173,-20.000000000000327" stroke="#f00" stroke-linecap="round" stroke-linejoin="round" stroke-width="2.0"/><polyline fill="none" points="48.28427124746173,-20.000000000000327 48.284271247461874,-3.446132268436486e-13 34.142135623731036,14.142135623730693 14.142135623731058,14.142135623730837 1.7763568394002505e-14,3.552713678800501e-15 19.021130325903023,-6.180339887499079 36.84126080967043,2.899470107291714 43.02160069716952,21.920600433194714 33.941790702378725,39.74073091696212 14.920660376475723,45.92107080446121 -2.899470107291684,36.841260809670416 -9.079809994790775,17.820130483767414 1.0658141036401503e-14,7.105427357601002e-15 11.755705045849588,16.180339887498846 8.627015745045131,35.93410669940161 -7.553324142453707,47.68981174525119 -27.307090954356468,44.56112244444674 -39.06279600020605,28.3807825569479 -35.934106699401596,8.627015745045135 -19.75376681190276,-3.128689300804453 3.552713678800501e-15,-4.884981308350689e-15 -11.755705045849307,16.18033988749903 -31.509471857752015,19.309029188303818 -47.68981174525105,7.55332414245451 -50.818501046055836,-12.200442669448194 -39.06279600020653,-28.380782556947228 -19.309029188303832,-31.50947185775202 -3.128689300804794,-19.753766811902718 1.7763568394002505e-15,-1.7763568394002505e-14 -19.02113032590311,-6.18033988749878 -28.100940320694203,-24.000470371266033 -21.920600433195446,-43.02160069716914 -4.100469949428195,-52.10141069196024 14.920660376474917,-45.92107080446148 24.000470371266015,-28.10094032069423 17.82013048376726,-9.079809994791123 1.7763568394002505e-14,-2.1316282072803006e-14 -2.348121697082206e-13,-24.99999999999999 17.677669529663252,-42.67766952966383 42.67766952966322,-42.67766952966409 60.355339059327065,-25.000000000000604 60.35533905932733,-6.359357485052897e-13 42.677669529663845,17.677669529663213" stroke="#f00" stroke-linecap="round" stroke-linejoin="round" stroke-width="2.0"/><polyline fill="none" points="42.677669529663845,17.677669529663213 17.677669529663877,17.677669529663476 2.4868995751603507e-14,-3.552713678800501e-15 23.776412907378752,-7.725424859373934 46.05157601208804,3.624337634114479 53.77700087146198,27.400750541493203 42.427238377973566,49.675913646202495 18.650825470594842,57.40133850557643 -3.624337634114454,46.05157601208803 -11.349762493488399,22.275163104709303 7.105427357601002e-15,3.552713678800501e-15 14.694631307312049,20.225424859373497 10.783769681306566,44.91763337425196 -9.441655178066927,59.612264681564014 -34.13386369294539,55.701403055558536 -48.82849500025744,35.475978196185046 -44.91763337425196,10.783769681306584 -24.692208514878477,-3.9108616260054685 -1.4210854715202004e-14,-0.0 -14.694631307311578,20.22542485937384 -39.38683982218994,24.136286485379912 -59.612264681563786,9.44165517806835 -63.52312630756986,-15.250553336810016 -48.8284950002583,-35.47597819618387 -24.136286485379934,-39.38683982218994 -3.910861626006085,-24.692208514878384 -1.7763568394002505e-15,-1.7763568394002505e-14 -23.776412907378912,-7.725424859373388 -35.12617540086786,-30.000587964082413 -27.400750541494496,-53.777000871461325 -5.125587436785473,-65.12676336495028 18.650825470593446,-57.401338505576916 30.000587964082403,-35.12617540086789 22.275163104709044,-11.349762493488974 2.4868995751603507e-14,-1.7763568394002505e-14 -3.831379657981415e-13,-29.999999999999986 21.213203435595727,-51.21320343559668 51.213203435595695,-51.213203435597094 72.4264068711924,-30.000000000000988 72.42640687119282,-1.0196288258157438e-12 51.213203435596725,21.21320343559568 21.213203435596757,21.213203435596107 5.3290705182007514e-14,7.105427357601002e-15" stroke="#f00" stroke-linecap="round" stroke-linejoin="round" stroke-width="2.0"/><polyline fill="none" points="5.3290705182007514e-14,7.105427357601002e-15 28.531695488854492,-9.270509831248813 55.26189121450569,4.3492051609371885 64.53240104575451,32.88090064979163 50.912686053568514,59.61109637544283 22.38099056471408,68.88160620669166 -4.3492051609371245,55.26189121450566 -13.619714992185958,26.730195725651225 3.197442310920451e-14,1.7763568394002505e-14 17.633557568774567,24.270509831248148 12.94052361756809,53.901160049102316 -11.32998621368004,71.53471761787685 -40.96063643153421,66.84168366667038 -58.59419400030876,42.57117383542224 -53.901160049102295,12.940523617568068 -29.630650217854164,-4.693033951206484 1.4210854715202004e-14,-2.1316282072803006e-14 -17.63355756877378,24.270509831248656 -47.26420778662781,28.96354378245605 -71.53471761787648,11.329986213682261 -76.22775156908388,-18.300664004171765 -58.5941940003101,-42.57117383542045 -28.96354378245607,-47.26420778662786 -4.693033951207383,-29.630650217854075 2.4868995751603507e-14,-4.973799150320701e-14 -28.53169548885471,-9.270509831247994 -42.151410481041545,-36.00070555689878 -32.8809006497936,-64.53240104575352 -6.150704924142822,-78.15211603794036 22.380990564711915,-68.88160620669242 36.00070555689876,-42.15141048104165 26.73019572565083,-13.619714992186914 5.684341886080802e-14,-6.927791673660977e-14 -5.473954622914334e-13,-35.000000000000036 24.74873734152816,-59.748737341529605 59.74873734152813,-59.748737341530216 84.4974746830577,-35.00000000000151 84.49747468305831,-1.5489831639570184e-12 59.74873734152962,24.748737341528024 24.748737341529655,24.748737341528646 7.815970093361102e-14,-4.973799150320701e-14 33.28697807033022,-10.815594803123796 64.47220641692334,5.074072687759758" stroke="#f00" stroke-linecap="round" stroke-linejoin="round" stroke-width="2.0"/><polyline fill="none" points="64.47220641692334,5.074072687759758 75.2878012200471,38.361050758089895 59.39813372916355,69.54627910468302 26.11115565883341,80.36187390780678 -5.07407268775972,64.47220641692323 -15.889667490883484,31.185228346593092 5.684341886080802e-14,-4.263256414560601e-14 20.572483830237122,28.3155948031227 15.097277553829697,62.88468672395258 -13.218317249293046,83.45717055418966 -47.787409170122935,77.98196427778224 -68.35989300036002,49.6663694746595 -62.884686723952605,15.097277553829606 -34.56909192082986,-5.475206276407473 2.842170943040401e-14,-6.217248937900877e-14 -20.572483830235964,28.315594803123467 -55.141575751065645,33.79080107953221 -83.45717055418918,13.21831724929622 -88.93237683059792,-21.350774671533458 -68.35989300036194,-49.66636947465699 -33.79080107953226,-55.141575751065744 -5.4752062764087235,-34.56909192082976 3.375077994860476e-14,-8.526512829121202e-14 -33.28697807033052,-10.815594803122574 -49.17664556121526,-42.0008231497151 -38.36105075809277,-75.28780122004565 -7.175822411500249,-91.1774687109304 26.111155658830306,-80.36187390780792 42.00082314971506,-49.176645561215395 31.185228346592588,-15.88966749088484 7.105427357601002e-14,-8.526512829121202e-14 -7.438494264988549e-13,-40.000000000000036 28.28427124746054,-68.28427124746248 68.28427124746048,-68.28427124746331 96.56854249492292,-40.00000000000203 96.56854249492375,-2.0889956431346945e-12 68.28427124746247,28.284271247460364 28.28427124746252,28.2842712474612 6.394884621840902e-14,-7.460698725481052e-14 38.0422606518059,-12.360679774998756 73.68252161934095,5.798940214582336 86.04320139433963,43.841200866388164 67.88358140475854,79.48146183392322" stroke="#f00" stroke-linecap="round" stroke-linejoin="round" stroke-width="2.0"/><polyline fill="none" points="67.88358140475854,79.48146183392322 29.84132075295272,91.8421416089219 -5.7989402145823306,73.68252161934082 -18.159619989581017,35.64026096753499 7.105427357601002e-14,-5.684341886080802e-14 23.511410091699652,32.360679774997294 17.254031490091272,71.86821339880288 -15.106648284906079,95.37962349050247 -54.61418190871167,89.1222448888941 -78.12559200041126,56.76156511389676 -71.8682133988029,17.254031490091165 -39.50753362380556,-6.25737860160843 3.552713678800501e-14,-6.927791673660977e-14 -23.511410091698146,32.360679774998296 -63.018943715503454,38.61805837660839 -95.37962349050181,15.106648284910218 -101.63700209211191,-24.40088533889509 -78.12559200041375,-56.761565113893454 -38.61805837660844,-63.01894371550356 -6.257378601610064,-39.5075336238054 5.1514348342607263e-14,-9.237055564881302e-14 -38.04226065180631,-12.36067977499711 -56.201880641388954,-48.00094074253135 -43.841200866391944,-86.0432013943377 -8.200939898857705,-104.20282138392035 29.841320752948654,-91.84214160892334 48.000940742531306,-56.2018806413891 35.6402609675343,-18.159619989582744 7.105427357601002e-14,-8.881784197001252e-14 -9.681144774731365e-13,-45.000000000000014 31.819805153392878,-76.81980515339534 76.81980515339279,-76.81980515339639 108.63961030678811,-45.000000000002544 108.63961030678917,-2.6219026949547697e-12 76.81980515339532,31.819805153392704 31.8198051533954,31.81980515339375 7.460698725481052e-14,-8.881784197001252e-14 42.79754323328159,-13.905764746873697 82.89283682175855,6.523807741404934 96.79860156863217,49.32135097468644 76.36902908035354,89.4166445631634 33.57148584707204,103.32240931003702 -6.523807741404923,82.89283682175841" stroke="#f00" stroke-linecap="round" stroke-linejoin="round" stroke-width="2.0"/><polyline fill="none" points="-6.523807741404923,82.89283682175841 -20.429572488278545,40.095293588476906 7.105427357601002e-14,-5.684341886080802e-14 26.450336353162182,36.40576474687187 19.410785426352877,80.85174007365315 -16.994979320519047,107.30207642681526 -61.44095464730033,100.26252550000596 -87.89129100046246,63.85676075313404 -80.85174007365316,19.410785426352753 -44.44597532678124,-7.039550926809376 4.973799150320701e-14,-8.970602038971265e-14 -26.450336353160296,36.405764746873125 -70.89631167994123,43.4453156736846 -107.30207642681445,16.994979320524255 -114.34162735362594,-27.450996006256684 -87.8912910004656,-63.856760753129905 -43.44531567368466,-70.89631167994139 -7.039550926811437,-44.44597532678106 5.062616992290714e-14,-1.2079226507921703e-13 -42.797543233282134,-13.905764746871657 -63.22711572156271,-54.00105833534762 -49.32135097469118,-96.7986015686298 -9.22605738621521,-117.22817405691039 33.57148584706698,-103.32240931003886 54.001058335347565,-63.2271157215629 40.09529358847605,-20.42957248828072 9.947598300641403e-14,-1.2789769243681803e-13 -1.1856071679972047e-12,-50.00000000000003 35.3553390593252,-85.35533905932824 85.3553390593251,-85.35533905932954 120.71067811865333,-50.000000000003155 120.71067811865464,-3.26139115713886e-12 85.35533905932826,35.35533905932497 35.35533905932836,35.35533905932628 1.2789769243681803e-13,-9.237055564881302e-14 47.5528258147573,-15.450849718748692 92.1031520241762,7.248675268227412 107.55400174292481,54.80150108298457 84.85447675594871,99.35182729240348 37.30165094119155,114.8026770111521 -7.248675268227373,92.10315202417601 -22.699524986976,44.55032620941884 8.526512829121202e-14,-7.815970093361102e-14" stroke="#f00" stroke-linecap="round" stroke-linejoin="round" stroke-width="2.0"/><polyline fill="none" points="8.526512829121202e-14,-7.815970093361102e-14 29.389262614624787,40.45084971874641 21.567539362614607,89.83526674850341 -18.883310356131876,119.22452936312811 -68.26772738588888,111.40280611111794 -97.65699000051359,70.95195639237147 -89.83526674850343,21.56753936261447 -49.38441702975695,-7.821723252010248 4.973799150320701e-14,-9.059419880941277e-14 -29.389262614622417,40.45084971874801 -78.77367964437897,48.27257297076092 -119.22452936312708,18.883310356138455 -127.04625261513998,-30.5011066736181 -97.65699000051752,-70.9519563923662 -48.272572970760976,-78.77367964437911 -7.821723252012873,-49.384417029756676 5.1514348342607263e-14,-1.3500311979441904e-13 -47.55282581475795,-15.450849718746111 -70.25235080173651,-60.00117592816375 -54.80150108299055,-107.55400174292174 -10.251174873572921,-130.2535267299003 37.30165094118508,-114.80267701115434 60.00117592816365,-70.25235080173672 44.5503262094177,-22.699524986978723 8.526512829121202e-14,-1.4921397450962104e-13 -1.520672476829077e-12,-55.0 38.890872965257344,-93.89087296526114 93.89087296525719,-93.89087296526274 132.78174593051833,-55.00000000000389 132.78174593051995,-4.04298816647497e-12 93.8908729652611,38.89087296525711 38.89087296526125,38.890872965258744 9.237055564881302e-14,-9.947598300641403e-14 52.308108396232875,-16.995934690623724 101.31346722659372,7.973542795049802 118.30940191721734,60.28165119128258 93.33992443154382,109.28701002164343 41.031816035311046,126.28294471226707 -7.973542795049795,101.31346722659356 -24.96947748567344,49.00535883036079 6.039613253960852e-14,-4.973799150320701e-14 32.32818887608734,44.49593469062093 23.724293298876333,98.81879342335358" stroke="#f00" stroke-linecap="round" stroke-linejoin="round" stroke-width="2.0"/><polyline fill="none" points="23.724293298876333,98.81879342335358 -20.771641391744637,131.14698229944088 -75.09450012447729,122.54308672222987 -107.42268900056459,78.0471520316089 -98.8187934233536,23.72429329887624 -54.32285873273264,-8.603895577211055 1.4210854715202004e-14,-7.815970093361102e-14 -32.3281888760845,44.49593469062289 -86.65104760881661,53.09983026783726 -131.14698229943957,20.771641391752752 -139.75087787665396,-33.551217340979356 -107.42268900056946,-78.04715203160232 -53.09983026783736,-86.65104760881671 -8.603895577214395,-54.32285873273223 1.7763568394002505e-15,-1.4210854715202004e-13 -52.30810839623379,-16.995934690620505 -77.27758588191034,-66.00129352097974 -60.28165119128998,-118.30940191721353 -11.276292360930746,-143.27887940289008 41.031816035303045,-126.28294471226974 66.00129352097962,-77.27758588191051 49.005358830359285,-24.969477485676713 5.684341886080802e-14,-1.3145040611561853e-13 -1.9115820037995945e-12,-59.9999999999999 42.42640687118938,-102.42640687119399 102.42640687118913,-102.42640687119597 144.8528137423832,-60.00000000000468 144.8528137423852,-4.924061158817494e-12 102.42640687119392,42.42640687118917 42.42640687119416,42.42640687119117 5.684341886080802e-14,-9.947598300641403e-14 57.06339097770842,-18.541019662498783 110.52378242901119,8.698410321872124 129.06480209150988,65.7618012995805 101.82537210713897,119.22219275088327 44.76198112943061,137.76321241338195 -8.698410321872174,110.52378242901105 -27.239429984370872,53.460391451302684 2.1316282072803006e-14,-9.947598300641403e-14 35.26711513754992,48.54101966249536 25.88104723513813,107.80232009820371 -22.659972427357314,143.06943523575362 -81.92127286306567,133.68336733334183" stroke="#f00" stroke-linecap="round" stroke-linejoin="round" stroke-width="2.0"/><polyline fill="none" points="-81.92127286306567,133.68336733334183 -117.18838800061559,85.14234767084639 -107.80232009820382,25.88104723513804 -59.26130043570839,-9.386067902411881 -4.263256414560601e-14,-1.1546319456101628e-13 -35.2671151375466,48.54101966249775 -94.52841557325428,57.92708756491363 -143.06943523575214,22.65997242736708 -152.455503138168,-36.6013280083406 -117.18838800062147,-85.14234767083846 -57.9270875649138,-94.52841557325435 -9.386067902415924,-59.26130043570782 -2.4868995751603507e-14,-1.4210854715202004e-13 -57.063390977709645,-18.54101966249489 -84.30282096208423,-72.00141111379577 -65.76180129958948,-129.06480209150538 -12.301409848288614,-156.30423207587998 44.761981129421,-137.76321241338525 72.0014111137956,-84.30282096208438 53.460391451300865,-27.239429984374766 7.105427357601002e-15,-1.7053025658242404e-13 -2.327416037672947e-12,-64.99999999999987 45.961940777121384,-110.9619407771269 110.96194077712109,-110.96194077712924 156.9238815542481,-65.00000000000554 156.92388155425047,-5.8548721426632255e-12 110.96194077712677,45.961940777121185 45.96194077712707,45.96194077712356 2.1316282072803006e-14,-1.3500311979441904e-13 61.81867355918398,-20.086104634373886 119.73409763142868,9.42327784869439 139.82020226580244,71.24195140787833 110.31081978273417,129.15737548012305 48.49214622355023,149.24348011449683 -9.42327784869449,119.73409763142857 -29.50938248306826,57.91542407224463 -1.7763568394002505e-14,-7.815970093361102e-14 38.20604139901249,52.58610463436982 28.037801171399927,116.78584677305382 -24.54830346296996,154.99188817206633 -88.74804560165396,144.82364794445377 -126.95408700066648,92.23754331008388 -116.78584677305393,28.037801171399877" stroke="#f00" stroke-linecap="round" stroke-linejoin="round" stroke-width="2.0"/><polyline fill="none" points="-116.78584677305393,28.037801171399877 -64.19974213868406,-10.16824022761265 -5.684341886080802e-14,-1.1013412404281553e-13 -38.206041399008626,52.586104634372646 -102.40578353769186,62.754344861990035 -154.99188817206462,24.548303462981472 -165.160128399682,-39.65143867570176 -126.95408700067345,-92.23754331007453 -62.75434486199022,-102.40578353769193 -10.168240227617446,-64.19974213868338 -2.6645352591003757e-14,-1.4210854715202004e-13 -61.81867355918546,-20.08610463436925 -91.32805604225808,-78.00152870661174 -71.24195140788899,-139.82020226579718 -13.326527335646517,-169.3295847488698 48.49214622353892,-149.2434801145007 78.00152870661154,-91.32805604225823 57.91542407224246,-29.50938248307279 0.0,-1.5987211554602254e-13 -2.7317037520901977e-12,-69.99999999999977 49.49747468305338,-119.49747468305976 119.497474683053,-119.4974746830625 168.994949366113,-70.0000000000064 168.99494936611575,-6.778577699151356e-12 119.49747468305965,49.49747468305323 49.497474683060034,49.49747468305599 1.4210854715202004e-14,-9.947598300641403e-14 66.57395614065953,-21.63118960624894 128.9444128338462,10.148145375516673 150.57560244009505,76.72210151617618 118.79626745832945,139.09255820936283 52.22231131766995,160.7237478156117 -10.14814537551672,128.9444128338461 -31.77933498176559,62.37045669318658 -3.552713678800501e-15,-9.237055564881302e-14 41.144967660475174,56.63118960624424 30.194555107661877,125.76937344790394 -26.436634498582457,166.91434110837912 -95.57481834024216,155.96392855556584 -136.71978600071736,99.33273894932151 -125.76937344790409,30.1945551076618 -69.13818384165977,-10.950412552813411 -5.684341886080802e-14,-1.474376176702208e-13" stroke="#f00" stroke-linecap="round" stroke-linejoin="round" stroke-width="2.0"/><polyline fill="none" points="-5.684341886080802e-14,-1.474376176702208e-13 -41.14496766047061,56.63118960624754 -110.28315150212941,67.58160215906648 -166.9143411083771,26.43663449859593 -177.86475366119606,-42.70154934306286 -136.71978600072552,-99.33273894931054 -67.58160215906673,-110.2831515021295 -10.950412552819039,-69.13818384165896 -7.460698725481052e-14,-1.7053025658242404e-13 -66.57395614066134,-21.6311896062436 -98.35329112243203,-84.00164629942766 -76.72210151618862,-150.57560244008891 -14.351644823004555,-182.3549374218596 52.22231131765671,-160.7237478156162 84.00164629942742,-98.35329112243215 62.37045669318403,-31.779334981770887 -7.105427357601002e-15,-1.6697754290362354e-13 -3.1878943929086745e-12,-74.99999999999972 53.033008588985304,-128.03300858899271 128.03300858898484,-128.0330085889959 181.06601717797784,-75.00000000000742 181.06601717798105,-7.87281351222191e-12 128.03300858899257,53.03300858898514 53.03300858899303,53.03300858898835 0.0,-1.2079226507921703e-13 71.32923872213509,-23.17627457812411 138.15472803626375,10.873012902338811 161.33100261438776,82.2022516244739 127.28171513392485,149.02774093860256 55.95247641178976,172.20401551672657 -10.873012902338914,138.15472803626366 -34.04928748046294,66.82548931412857 -3.552713678800501e-14,-1.1368683772161603e-13 44.083893921937836,60.676274578118665 32.351309043923834,134.75290012275406 -28.324965534194938,178.83679404469194 -102.40159107883034,167.10420916667795 -146.48548500076822,106.4279345885592 -134.75290012275423,32.35130904392379 -74.07662554463548,-11.732584878014102 -8.526512829121202e-14,-1.2789769243681803e-13 -44.08389392193261,60.6762745781225 -118.16051946656697,72.40885945614303" stroke="#f00" stroke-linecap="round" stroke-linejoin="round" stroke-width="2.0"/><polyline fill="none" points="-118.16051946656697,72.40885945614303 -178.8367940446896,28.324965534210527 -190.56937892271014,-45.75166001042381 -146.48548500077766,-106.42793458854646 -72.40885945614332,-118.16051946656701 -11.732584878020667,-74.07662554463452 -1.0302869668521453e-13,-1.8474111129762605e-13 -71.3292387221372,-23.176274578117884 -105.37852620260601,-90.00176389224352 -82.20225162448833,-161.33100261438062 -15.376762310362707,-195.38029009484944 55.95247641177441,-172.20401551673177 90.00176389224325,-105.37852620260615 66.82548931412558,-34.04928748046903 -2.842170943040401e-14,-1.9895196601282805e-13 -3.683275906496419e-12,-79.99999999999969 56.568542494917175,-136.56854249492574 136.56854249491667,-136.5685424949294 193.13708498984272,-80.00000000000855 193.13708498984641,-9.066525308298878e-12 136.56854249492557,56.56854249491698 56.568542494926064,56.568542494920685 -7.105427357601002e-15,-1.3500311979441904e-13 76.08452130361064,-24.72135954999931 147.36504323868132,11.597880429160885 172.08640278868052,87.68240173277152 135.76716280952033,158.96292366784218 59.682641505909686,183.68428321784137 -11.597880429160995,147.36504323868118 -36.31923997916019,71.28052193507054 -7.105427357601002e-15,-1.4210854715202004e-13 47.02282018340059,64.72135954999304 34.50806298018591,143.73642679760417 -30.21329656980727,190.75924698100476 -109.22836381741838,178.24448977779008 -156.251184000819,113.52313022779691 -143.73642679760434,34.5080629801858 -79.01506724761119,-12.514757203214828 -7.105427357601002e-14,-1.8829382497642655e-13 -47.02282018339454,64.72135954999743 -126.03788743100446,77.23611675321959 -190.7592469810021,30.213296569825125 -203.27400418422425,-48.801770677784795" stroke="#f00" stroke-linecap="round" stroke-linejoin="round" stroke-width="2.0"/><polyline fill="none" points="-203.27400418422425,-48.801770677784795 -156.2511840008298,-113.52313022778242 -77.23611675321987,-126.03788743100459 -12.514757203222231,-79.01506724761015 -4.263256414560601e-14,-2.2737367544323206e-13 -76.08452130361303,-24.721359549992194 -112.40376128277998,-96.00188148505941 -87.68240173278802,-172.0864027886724 -16.40187979772081,-208.40564276783937 59.68264150589218,-183.68428321784742 96.00188148505914,-112.40376128278022 71.28052193506721,-36.31923997916722 1.4210854715202004e-14,-2.3447910280083306e-13" stroke="#f00" stroke-linecap="round" stroke-linejoin="round" stroke-width="2.0"/></svg>