<?xml version="1.0" ?><!DOCTYPE svg  PUBLIC '-//W3C//DTD SVG 1.1//EN'  'http://www.w3.org/Graphics/SVG/1.1/DTD/svg11.dtd'><svg height="216.000" viewBox="-203.000 -113.000 216.000 216.000" width="216.000" xmlns="http://www.w3.org/2000/svg"><line fill="none" stroke="none" stroke-linecap="round" stroke-width="2.0" x1="0.0" x2="0.0" y1="0.0" y2="0.0"/><polygon fill="none" fill-rule="evenodd" points="0.0,0.0 0.0,0.0 0.0,0.0" stroke-linejoin="round"/><line fill="none" stroke="#f00" stroke-linecap="round" stroke-width="2.0" x1="0.0" x2="6.123233995736766e-16" y1="-0.0" y2="-10.0"/><line fill="none" stroke="#000" stroke-linecap="round" stroke-width="2.0" x1="6.123233995736766e-16" x2="-1.0452846326765333" y1="-10.0" y2="-19.945218953682733"/><line fill="none" stroke="#f00" stroke-linecap="round" stroke-width="2.0" x1="-1.0452846326765333" x2="-3.1244015408541257" y1="-19.945218953682733" y2="-29.72669496102079"/><line fill="none" stroke="#000" stroke-linecap="round" stroke-width="2.0" x1="-3.1244015408541257" x2="-6.214571484603598" y1="-29.72669496102079" y2="-39.23726012397233"/><line fill="none" stroke="#f00" stroke-linecap="round" stroke-width="2.0" x1="-6.214571484603598" x2="-10.281937915361599" y1="-39.23726012397233" y2="-48.37271470039833"/><line fill="none" stroke="#000" stroke-linecap="round" stroke-width="2.0" x1="-10.281937915361599" x2="-15.281937915361597" y1="-48.37271470039833" y2="-57.032968738242715"/><line fill="none" stroke="#f00" stroke-linecap="round" stroke-width="2.0" x1="-15.281937915361597" x2="-21.159790438286326" y1="-57.032968738242715" y2="-65.12313868199219"/><line fill="none" stroke="#000" stroke-linecap="round" stroke-width="2.0" x1="-21.159790438286326" x2="-27.851096501874906" y1="-65.12313868199219" y2="-72.55458693676613"/><line fill="none" stroke="#f00" stroke-linecap="round" stroke-width="2.0" x1="-27.851096501874906" x2="-35.282544756648846" y1="-72.55458693676613" y2="-79.24589300035471"/><line fill="none" stroke="#000" stroke-linecap="round" stroke-width="2.0" x1="-35.282544756648846" x2="-43.37271470039832" y1="-79.24589300035471" y2="-85.12374552327944"/><line fill="none" stroke="#f00" stroke-linecap="round" stroke-width="2.0" x1="-43.37271470039832" x2="-52.0329687382427" y1="-85.12374552327944" y2="-90.12374552327944"/><line fill="none" stroke="#000" stroke-linecap="round" stroke-width="2.0" x1="-52.0329687382427" x2="-61.16842331466871" y1="-90.12374552327944" y2="-94.19111195403744"/><line fill="none" stroke="#f00" stroke-linecap="round" stroke-width="2.0" x1="-61.16842331466871" x2="-70.67898847762024" y1="-94.19111195403744" y2="-97.28128189778691"/><line fill="none" stroke="#000" stroke-linecap="round" stroke-width="2.0" x1="-70.67898847762024" x2="-80.4604644849583" y1="-97.28128189778691" y2="-99.36039880596451"/><line fill="none" stroke="#f00" stroke-linecap="round" stroke-width="2.0" x1="-80.4604644849583" x2="-90.40568343864102" y1="-99.36039880596451" y2="-100.40568343864105"/><line fill="none" stroke="#000" stroke-linecap="round" stroke-width="2.0" x1="-90.40568343864102" x2="-100.40568343864102" y1="-100.40568343864105" y2="-100.40568343864105"/><line fill="none" stroke="#f00" stroke-linecap="round" stroke-width="2.0" x1="-100.40568343864102" x2="-110.35090239232375" y1="-100.40568343864105" y2="-99.36039880596452"/><line fill="none" stroke="#000" stroke-linecap="round" stroke-width="2.0" x1="-110.35090239232375" x2="-120.1323783996618" y1="-99.36039880596452" y2="-97.28128189778693"/><line fill="none" stroke="#f00" stroke-linecap="round" stroke-width="2.0" x1="-120.1323783996618" x2="-129.64294356261334" y1="-97.28128189778693" y2="-94.19111195403745"/><line fill="none" stroke="#000" stroke-linecap="round" stroke-width="2.0" x1="-129.64294356261334" x2="-138.77839813903935" y1="-94.19111195403745" y2="-90.12374552327945"/><line fill="none" stroke="#f00" stroke-linecap="round" stroke-width="2.0" x1="-138.77839813903935" x2="-147.43865217688375" y1="-90.12374552327945" y2="-85.12374552327945"/><line fill="none" stroke="#000" stroke-linecap="round" stroke-width="2.0" x1="-147.43865217688375" x2="-155.5288221206332" y1="-85.12374552327945" y2="-79.24589300035473"/><line fill="none" stroke="#f00" stroke-linecap="round" stroke-width="2.0" x1="-155.5288221206332" x2="-162.96027037540713" y1="-79.24589300035473" y2="-72.55458693676616"/><line fill="none" stroke="#000" stroke-linecap="round" stroke-width="2.0" x1="-162.96027037540713" x2="-169.6515764389957" y1="-72.55458693676616" y2="-65.12313868199223"/><line fill="none" stroke="#f00" stroke-linecap="round" stroke-width="2.0" x1="-169.6515764389957" x2="-175.52942896192044" y1="-65.12313868199223" y2="-57.032968738242765"/><line fill="none" stroke="#000" stroke-linecap="round" stroke-width="2.0" x1="-175.52942896192044" x2="-180.52942896192044" y1="-57.032968738242765" y2="-48.37271470039839"/><line fill="none" stroke="#f00" stroke-linecap="round" stroke-width="2.0" x1="-180.52942896192044" x2="-184.59679539267844" y1="-48.37271470039839" y2="-39.23726012397239"/><line fill="none" stroke="#000" stroke-linecap="round" stroke-width="2.0" x1="-184.59679539267844" x2="-187.68696533642793" y1="-39.23726012397239" y2="-29.726694961020865"/><line fill="none" stroke="#f00" stroke-linecap="round" stroke-width="2.0" x1="-187.68696533642793" x2="-189.7660822446055" y1="-29.726694961020865" y2="-19.94521895368282"/><line fill="none" stroke="#000" stroke-linecap="round" stroke-width="2.0" x1="-189.7660822446055" x2="-190.81136687728204" y1="-19.94521895368282" y2="-10.000000000000096"/><line fill="none" stroke="#f00" stroke-linecap="round" stroke-width="2.0" x1="-190.81136687728204" x2="-190.81136687728204" y1="-10.000000000000096" y2="-1.0658141036401503e-13"/><line fill="none" stroke="#000" stroke-linecap="round" stroke-width="2.0" x1="-190.81136687728204" x2="-189.7660822446055" y1="-1.0658141036401503e-13" y2="9.945218953682616"/><line fill="none" stroke="#f00" stroke-linecap="round" stroke-width="2.0" x1="-189.7660822446055" x2="-187.68696533642793" y1="9.945218953682616" y2="19.726694961020662"/><line fill="none" stroke="#000" stroke-linecap="round" stroke-width="2.0" x1="-187.68696533642793" x2="-184.59679539267847" y1="19.726694961020662" y2="29.237260123972185"/><line fill="none" stroke="#f00" stroke-linecap="round" stroke-width="2.0" x1="-184.59679539267847" x2="-180.52942896192047" y1="29.237260123972185" y2="38.372714700398184"/><line fill="none" stroke="#000" stroke-linecap="round" stroke-width="2.0" x1="-180.52942896192047" x2="-175.52942896192047" y1="38.372714700398184" y2="47.03296873824256"/><line fill="none" stroke="#f00" stroke-linecap="round" stroke-width="2.0" x1="-175.52942896192047" x2="-169.65157643899576" y1="47.03296873824256" y2="55.123138681992025"/><line fill="none" stroke="#000" stroke-linecap="round" stroke-width="2.0" x1="-169.65157643899576" x2="-162.9602703754072" y1="55.123138681992025" y2="62.55458693676596"/><line fill="none" stroke="#f00" stroke-linecap="round" stroke-width="2.0" x1="-162.9602703754072" x2="-155.52882212063327" y1="62.55458693676596" y2="69.24589300035453"/><line fill="none" stroke="#000" stroke-linecap="round" stroke-width="2.0" x1="-155.52882212063327" x2="-147.4386521768838" y1="69.24589300035453" y2="75.12374552327925"/><line fill="none" stroke="#f00" stroke-linecap="round" stroke-width="2.0" x1="-147.4386521768838" x2="-138.77839813903944" y1="75.12374552327925" y2="80.12374552327925"/><line fill="none" stroke="#000" stroke-linecap="round" stroke-width="2.0" x1="-138.77839813903944" x2="-129.64294356261345" y1="80.12374552327925" y2="84.19111195403725"/><line fill="none" stroke="#f00" stroke-linecap="round" stroke-width="2.0" x1="-129.64294356261345" x2="-120.13237839966193" y1="84.19111195403725" y2="87.28128189778673"/><line fill="none" stroke="#000" stroke-linecap="round" stroke-width="2.0" x1="-120.13237839966193" x2="-110.35090239232389" y1="87.28128189778673" y2="89.36039880596432"/><line fill="none" stroke="#f00" stroke-linecap="round" stroke-width="2.0" x1="-110.35090239232389" x2="-100.40568343864118" y1="89.36039880596432" y2="90.40568343864086"/><line fill="none" stroke="#000" stroke-linecap="round" stroke-width="2.0" x1="-100.40568343864118" x2="-90.40568343864119" y1="90.40568343864086" y2="90.40568343864086"/><line fill="none" stroke="#f00" stroke-linecap="round" stroke-width="2.0" x1="-90.40568343864119" x2="-80.46046448495848" y1="90.40568343864086" y2="89.36039880596434"/><line fill="none" stroke="#000" stroke-linecap="round" stroke-width="2.0" x1="-80.46046448495848" x2="-70.67898847762044" y1="89.36039880596434" y2="87.28128189778676"/><line fill="none" stroke="#f00" stroke-linecap="round" stroke-width="2.0" x1="-70.67898847762044" x2="-61.16842331466892" y1="87.28128189778676" y2="84.1911119540373"/><line fill="none" stroke="#000" stroke-linecap="round" stroke-width="2.0" x1="-61.16842331466892" x2="-52.03296873824293" y1="84.1911119540373" y2="80.12374552327931"/><line fill="none" stroke="#f00" stroke-linecap="round" stroke-width="2.0" x1="-52.03296873824293" x2="-43.37271470039856" y1="80.12374552327931" y2="75.12374552327933"/><line fill="none" stroke="#000" stroke-linecap="round" stroke-width="2.0" x1="-43.37271470039856" x2="-35.2825447566491" y1="75.12374552327933" y2="69.24589300035461"/><line fill="none" stroke="#f00" stroke-linecap="round" stroke-width="2.0" x1="-35.2825447566491" x2="-27.851096501875176" y1="69.24589300035461" y2="62.55458693676605"/><line fill="none" stroke="#000" stroke-linecap="round" stroke-width="2.0" x1="-27.851096501875176" x2="-21.159790438286606" y1="62.55458693676605" y2="55.12313868199213"/><line fill="none" stroke="#f00" stroke-linecap="round" stroke-width="2.0" x1="-21.159790438286606" x2="-15.281937915361885" y1="55.12313868199213" y2="47.03296873824268"/><line fill="none" stroke="#000" stroke-linecap="round" stroke-width="2.0" x1="-15.281937915361885" x2="-10.281937915361894" y1="47.03296873824268" y2="38.37271470039832"/><line fill="none" stroke="#f00" stroke-linecap="round" stroke-width="2.0" x1="-10.281937915361894" x2="-6.214571484603898" y1="38.37271470039832" y2="29.237260123972334"/><line fill="none" stroke="#000" stroke-linecap="round" stroke-width="2.0" x1="-6.214571484603898" x2="-3.124401540854427" y1="29.237260123972334" y2="19.726694961020822"/><line fill="none" stroke="#f00" stroke-linecap="round" stroke-width="2.0" x1="-3.124401540854427" x2="-1.0452846326768341" y1="19.726694961020822" y2="9.94521895368279"/><line fill="none" stroke="#000" stroke-linecap="round" stroke-width="2.0" x1="-1.0452846326768341" x2="-2.973177259946169e-13" y1="9.94521895368279" y2="8.348877145181177e-14"/></svg>