<?xml version="1.0" encoding="UTF-8" standalone="no"?>
<!-- Created with Inkscape (http://www.inkscape.org/) -->

<svg
   xmlns:dc="http://purl.org/dc/elements/1.1/"
   xmlns:cc="http://creativecommons.org/ns#"
   xmlns:rdf="http://www.w3.org/1999/02/22-rdf-syntax-ns#"
   xmlns:svg="http://www.w3.org/2000/svg"
   xmlns="http://www.w3.org/2000/svg"
   xmlns:sodipodi="http://sodipodi.sourceforge.net/DTD/sodipodi-0.dtd"
   xmlns:inkscape="http://www.inkscape.org/namespaces/inkscape"
   width="86.781799mm"
   height="79.208084mm"
   viewBox="0 0 307.49456 280.65856"
   id="svg4456"
   version="1.1"
   inkscape:version="0.91 r13725"
   sodipodi:docname="zelva-vybrana.svg">
  <defs
     id="defs4458" />
  <sodipodi:namedview
     id="base"
     pagecolor="#ffffff"
     bordercolor="#666666"
     borderopacity="1.0"
     inkscape:pageopacity="0.0"
     inkscape:pageshadow="2"
     inkscape:zoom="1.979899"
     inkscape:cx="142.06963"
     inkscape:cy="147.93558"
     inkscape:document-units="px"
     inkscape:current-layer="layer1"
     showgrid="false"
     inkscape:window-width="1859"
     inkscape:window-height="1055"
     inkscape:window-x="0"
     inkscape:window-y="0"
     inkscape:window-maximized="1"
     fit-margin-top="0"
     fit-margin-left="0"
     fit-margin-right="0"
     fit-margin-bottom="0" />
  <metadata
     id="metadata4461">
    <rdf:RDF>
      <cc:Work
         rdf:about="">
        <dc:format>image/svg+xml</dc:format>
        <dc:type
           rdf:resource="http://purl.org/dc/dcmitype/StillImage" />
        <dc:title></dc:title>
      </cc:Work>
    </rdf:RDF>
  </metadata>
  <g
     inkscape:label="Layer 1"
     inkscape:groupmode="layer"
     id="layer1"
     transform="translate(-234.82416,-289.17572)">
    <path
       style="fill:#f4e3d7;fill-rule:evenodd;stroke:none;stroke-width:1px;stroke-linecap:butt;stroke-linejoin:miter;stroke-opacity:1"
       d="m 358.03572,479.95149 c -18.62826,-3.2982 -22.2618,-18.57353 -28.74367,-35.61874 -4.9186,-12.83808 -8.06733,-26.62895 -7.96323,-40.40781 2.0711,-29.97735 18.42334,-61.42877 46.63082,-64.25218 3.4587,-0.81705 12.19843,0.0444 17.9304,-2.59405 5.42625,-2.49769 8.92642,-2.39962 10.98719,-3.48678 20.59792,-2.81749 38.52661,11.0764 48.26126,28.96281 6.68689,11.43019 8.80517,24.94857 7.74755,38.01591 -0.85656,39.85157 -24.9874,62.53055 -69.7922,84.11452 -4.1819,0.58303 -20.56582,-4.00885 -24.79028,-4.0194"
       id="path5111"
       inkscape:connector-curvature="0"
       sodipodi:nodetypes="ccccsccccc" />
    <path
       style="fill:#deaa87;fill-rule:evenodd;stroke:#000000;stroke-width:1px;stroke-linecap:butt;stroke-linejoin:miter;stroke-opacity:1"
       d="m 320.03235,370.60859 -81.88889,-8.18057 8.83884,-5.05077 31.31473,-9.84898 48.73986,0.75761 9.45114,7.35162"
       id="path5121"
       inkscape:connector-curvature="0"
       sodipodi:nodetypes="cccccc" />
    <path
       style="fill:#deaa87;fill-rule:evenodd;stroke:none;stroke-width:1px;stroke-linecap:butt;stroke-linejoin:miter;stroke-opacity:1"
       d="m 340,472.71934 -18.75,3.92858 -19.10714,12.32143 -9.64286,11.78571 11.96429,-5.53571 14.10714,-4.28572 15.17857,-6.60714 -1.07143,0.53571"
       id="path5123"
       inkscape:connector-curvature="0"
       sodipodi:nodetypes="cccccccc" />
    <path
       style="fill:#deaa87;fill-rule:evenodd;stroke:#000000;stroke-width:1px;stroke-linecap:butt;stroke-linejoin:miter;stroke-opacity:1"
       d="m 423.92857,483.43363 46.07143,16.25 9.10714,-2.32143 -50.89285,-27.14286"
       id="path5125"
       inkscape:connector-curvature="0"
       sodipodi:nodetypes="cccc" />
    <path
       style="fill:#deaa87;fill-rule:evenodd;stroke:#000000;stroke-width:1px;stroke-linecap:butt;stroke-linejoin:miter;stroke-opacity:1"
       d="m 372.14286,484.14792 -0.17857,18.75 8.21428,-1.42857 7.67857,-9.46429"
       id="path5127"
       inkscape:connector-curvature="0" />
    <path
       style="fill:#e9c6af;fill-rule:evenodd;stroke:none;stroke-width:1px;stroke-linecap:butt;stroke-linejoin:miter;stroke-opacity:1"
       d="m 417.58392,377.71935 c -14.98326,0.99145 -30.95707,6.18514 -40.4459,18.67069 -4.58086,6.20035 -6.41,13.88349 -9.35304,20.92249 -4.85134,13.17109 -8.57936,28.15174 -3.39633,41.82435 2.42758,8.30054 11.09457,13.29422 19.34957,12.78227 7.83152,-0.30303 14.62264,-4.95835 21.06888,-9.01348 17.41914,-11.94511 31.05754,-30.63335 34.16097,-52.05023 1.09094,-7.53377 0.68541,-15.36946 -1.77297,-22.59802 -4.47526,-6.62424 -12.93081,-7.43968 -19.61118,-10.53807 z"
       id="path5148"
       inkscape:connector-curvature="0" />
    <path
       style="fill:#deaa87;fill-rule:evenodd;stroke:none;stroke-width:1px;stroke-linecap:butt;stroke-linejoin:miter;stroke-opacity:1"
       d="m 411.65083,407.04991 c -14.41651,5.27599 -20.29635,20.99052 -27.033,33.41307 -3.55861,14.90819 15.28373,18.18116 22.33865,7.17226 9.82025,-8.45143 17.93559,-21.4405 15.74326,-34.81924 -0.92132,-3.66765 -6.05519,-8.85518 -10.13459,-6.02435"
       id="path5166"
       inkscape:connector-curvature="0"
       sodipodi:nodetypes="ccccc" />
    <path
       style="fill:#deaa87;fill-rule:evenodd;stroke:#000000;stroke-width:1px;stroke-linecap:butt;stroke-linejoin:miter;stroke-opacity:1"
       d="m 366.96429,336.91577 19.10714,1.16072 7.05357,-4.91072 23.57143,0 -7.76786,-30 -20.625,-10.71428 -11.16071,1.07143 -11.96429,7.5 -2.32143,15.625 z"
       id="path5177"
       inkscape:connector-curvature="0" />
    <path
       style="fill:#deaa87;fill-rule:evenodd;stroke:#000000;stroke-width:1px;stroke-linecap:butt;stroke-linejoin:miter;stroke-opacity:1"
       d="m 444.46712,351.69514 7.82868,-6.81853 45.45687,-7.44987 26.13769,2.52538 1.38896,4.79823 -50.63389,13.13198 -23.86486,9.84899"
       id="path5179"
       inkscape:connector-curvature="0" />
    <g
       id="g5193">
      <path
         inkscape:connector-curvature="0"
         id="path5181"
         d="m 371.4836,364.44832 -5.80838,0.75762 -5.3033,7.3236 3.283,7.57615 4.79822,1.26269 10.85914,-6.31346 z"
         style="fill:#ff0000;fill-rule:evenodd;stroke:#000000;stroke-width:1px;stroke-linecap:butt;stroke-linejoin:miter;stroke-opacity:1" />
      <path
         inkscape:connector-curvature="0"
         id="path5183"
         d="m 401.53564,363.43817 -9.84899,6.31345 5.55584,10.85914 9.09137,-3.28299 5.05076,-7.32361"
         style="fill:#ff0000;fill-rule:evenodd;stroke:#000000;stroke-width:1px;stroke-linecap:butt;stroke-linejoin:miter;stroke-opacity:1" />
      <path
         inkscape:connector-curvature="0"
         id="path5185"
         d="m 358.60415,403.08666 6.566,-4.79823 6.06091,-2.77792 10.35406,8.33376 -5.05076,7.32361 -8.83883,5.55583"
         style="fill:#ff0000;fill-rule:evenodd;stroke:#000000;stroke-width:1px;stroke-linecap:butt;stroke-linejoin:miter;stroke-opacity:1" />
      <path
         inkscape:connector-curvature="0"
         id="path5187"
         d="m 391.43411,403.33919 13.8896,-10.35406 5.80838,9.34391 0.25253,6.06092 -6.56599,3.28299 z"
         style="fill:#ff0000;fill-rule:evenodd;stroke:#000000;stroke-width:1px;stroke-linecap:butt;stroke-linejoin:miter;stroke-opacity:1" />
      <path
         inkscape:connector-curvature="0"
         id="path5189"
         d="m 360.62446,438.69453 3.28299,-3.53553 8.01219,-4.53787 5.625,2.36607 3.88393,5.98215 -2.05357,4.01785 -6.25,2.85715 -8.30357,-4.55358"
         style="fill:#ff0000;fill-rule:evenodd;stroke:#000000;stroke-width:1px;stroke-linecap:butt;stroke-linejoin:miter;stroke-opacity:1" />
      <path
         inkscape:connector-curvature="0"
         id="path5191"
         d="m 392.67857,436.7372 11.78572,-10.17857 11.51785,5 -0.98214,8.125 -4.73214,5.17857 -4.91072,1.33929 -11.16071,-7.5"
         style="fill:#ff0000;fill-rule:evenodd;stroke:#000000;stroke-width:1px;stroke-linecap:butt;stroke-linejoin:miter;stroke-opacity:1" />
    </g>
    <g
       id="g5086">
      <path
         inkscape:connector-curvature="0"
         d="m 378.68591,342.5392 c -2.0528,-0.3195 -4.0679,-0.872 -6.065,-1.44 -2.9924,-0.8984 -6.0864,-0.7401 -9.1292,-0.2404 -0.7283,0.1776 -1.4617,0.3354 -2.1849,0.5328 -2.7712,0.7568 -5.3215,1.8606 -7.8439,3.2368 -1.0121,0.5521 -4.0653,2.1528 -2.9878,1.7425 1.6849,-0.6415 3.2173,-1.6283 4.8259,-2.4425 -6.1432,4.6463 -11.2176,10.4833 -15.5199,16.8435 -1.0059,1.4869 -1.9321,3.0263 -2.8982,4.5394 -5.0164,8.5317 -9.0718,17.7182 -11.2408,27.4096 -0.4577,2.045 -0.7325,4.1267 -1.0987,6.1901 -1.3864,11.3043 -0.2112,22.7586 2.9929,33.6712 0.6847,2.332 1.5436,4.6093 2.3154,6.9139 3.4431,8.8041 8.1084,17.1881 14.6676,24.0713 4.1517,4.3569 5.1945,4.7566 10.0187,8.1844 7.1581,3.8295 3.5212,2.1502 10.8973,5.0671 0,0 -7.3499,4.9193 -7.3499,4.9193 l 0,0 c -7.4009,-3.0701 -3.7489,-1.317 -10.9413,-5.29 -4.8323,-3.5308 -5.9015,-3.9722 -10.0604,-8.4116 -6.5692,-7.0124 -11.2665,-15.496 -14.7626,-24.3895 -0.7885,-2.3201 -1.6631,-4.6126 -2.3654,-6.9602 -3.286,-10.9829 -4.5855,-22.5178 -3.2964,-33.9274 0.3516,-2.0854 0.611,-4.1884 1.0549,-6.2561 2.0894,-9.733 6.0621,-18.9798 10.9916,-27.589 0.9448,-1.5215 1.8496,-3.0685 2.8342,-4.5646 4.2052,-6.3899 9.1662,-12.2832 15.1854,-17.0394 7.7273,-4.7754 15.2743,-10.4397 24.388,-12.1605 3.1809,-0.4128 6.3726,-0.4905 9.4722,0.4811 2.0047,0.5249 4.0177,1.0777 6.0867,1.2771 0,0 -7.9864,5.6311 -7.9864,5.6311 z"
         id="path4255"
         style="opacity:1;fill:#000000;stroke:none;stroke-width:2;stroke-miterlimit:5;stroke-dasharray:none;stroke-dashoffset:6.16003132" />
      <path
         inkscape:connector-curvature="0"
         d="m 381.00351,342.6059 c 1.0539,-2.3333 2.6155,-4.3553 4.5024,-6.0664 4.2514,-2.8554 8.6032,-6.3064 13.8017,-6.9578 1.108,-0.1389 2.6408,-0.1189 3.74,-0.1292 5.7489,0.1609 11.3514,1.4704 16.8799,2.9489 5.9483,1.8055 11.7046,4.416 16.6271,8.2626 0.9794,0.7653 1.878,1.6286 2.8169,2.443 3.5895,3.418 6.4761,7.4558 8.6721,11.8921 1.3419,2.7111 1.6852,3.8511 2.7366,6.6709 2.2854,6.596 3.5964,13.45 4.5419,20.3481 0.9836,7.5725 0.6887,15.2089 0.051,22.7921 -0.6677,6.5549 -1.6955,13.1378 -3.754,19.4177 -0.4176,1.2738 -0.9223,2.5175 -1.3834,3.7762 -2.9708,7.7809 -7.8487,14.5221 -13.1958,20.8198 -5.775,6.59 -12.6568,12.0136 -19.7328,17.1195 -8.1738,5.4671 -16.6805,10.4648 -25.3904,15.0297 -2.091,1.0958 -7.8386,3.9142 -9.9777,4.9691 0,0 6.963,-5.5639 6.963,-5.5639 l 0,0 c 3.0579,-1.5111 6.9539,-3.4091 9.9599,-5.0049 1.6119,-0.8557 3.158,-1.8351 4.793,-2.6457 1.0707,-0.5308 -4.0871,2.4753 -3.0976,1.8052 2.7146,-1.8386 5.7127,-3.2377 8.3142,-5.2553 7.064,-5.0418 13.9391,-10.3967 19.7485,-16.8904 5.3639,-6.1894 10.2745,-12.8278 13.2972,-20.5108 0.4663,-1.2377 0.9754,-2.4602 1.3989,-3.7132 2.1005,-6.2143 3.1638,-12.7461 3.8346,-19.2513 0.6502,-7.5111 0.9629,-15.0772 -0.017,-22.5796 -0.9411,-6.8319 -2.2173,-13.6268 -4.4434,-20.1722 -1.0119,-2.7565 -1.3567,-3.9171 -2.657,-6.5647 -2.1334,-4.344 -4.9764,-8.2799 -8.4957,-11.6084 -0.9186,-0.7898 -1.7969,-1.6291 -2.7558,-2.3694 -4.8805,-3.7676 -10.5965,-6.2625 -16.4888,-7.9609 -5.5468,-1.406 -11.1843,-2.6166 -16.9387,-2.5816 -1.7885,0.083 -3.4954,0.1674 -5.2151,0.7149 -0.4769,0.1518 -1.8223,0.8083 -1.402,0.5368 1.1521,-0.7441 10.3475,-6.0989 5.7007,-3.3909 -1.9465,1.4772 -3.5244,3.3669 -4.5614,5.5928 0,0 -8.8725,4.0772 -8.8725,4.0772 z"
         id="path4257"
         style="opacity:1;fill:#000000;stroke:none;stroke-width:2;stroke-miterlimit:5;stroke-dasharray:none;stroke-dashoffset:6.16003132" />
      <path
         inkscape:connector-curvature="0"
         d="m 332.63321,478.0655 c -2.469,-0.4314 -4.9551,-0.3623 -7.4334,-0.081 -3.7145,0.5734 -7.2176,1.8678 -10.6006,3.4626 1.3196,-0.8 -6.1447,3.4189 -4.61,2.5615 1.8812,-1.051 3.7012,-2.218 5.6365,-3.1659 0.8721,-0.4271 -1.6341,1.0504 -2.4359,1.5983 -2.1585,1.4749 -2.6462,1.8959 -4.7164,3.4876 -3.3581,2.851 -6.7486,5.8021 -9.2954,9.4279 -0.01,-0.521 -0.8471,1.6334 -0.4167,1.3492 0.1559,-0.1029 0.2738,-0.2586 0.4344,-0.3539 0.6956,-0.4129 1.4463,-0.7251 2.1628,-1.1005 3.3702,-1.7852 6.7318,-3.58 10.1418,-5.2897 0.5101,-0.2709 1.0201,-0.5418 1.5301,-0.8126 0,0 -7.4622,5.9918 -7.4622,5.9918 l 0,0 c -0.5061,0.2609 -1.0122,0.5219 -1.5183,0.7828 -3.4294,1.7266 -6.7922,3.575 -10.2104,5.3219 -0.6112,0.2684 -1.7606,0.8811 -2.5194,0.8538 -1.7498,-0.063 -1.5856,-1.8187 -0.9547,-2.8914 2.4701,-3.8237 6.0544,-6.7969 9.4171,-9.8054 6.881,-5.4148 14.4322,-9.8514 22.2245,-13.8393 3.489,-1.5508 7.0978,-2.8522 10.9134,-3.304 2.5725,-0.2132 5.1383,-0.1853 7.6993,0.1757 0,0 -7.9865,5.631 -7.9865,5.631 z"
         id="path4259"
         style="opacity:1;fill:#000000;stroke:none;stroke-width:2;stroke-miterlimit:5;stroke-dasharray:none;stroke-dashoffset:6.16003132" />
      <path
         inkscape:connector-curvature="0"
         d="m 307.71811,496.9751 c 7.07,-5.2698 14.8485,-9.5936 22.9727,-13.0052 4.7265,-1.7309 2.3638,-0.9083 7.0873,-2.4703 0,0 -7.2865,5.6618 -7.2865,5.6618 l 0,0 c -4.6864,1.5839 -2.3412,0.7431 -7.0341,2.5261 -1.1441,0.5024 -2.3025,0.9733 -3.4322,1.5074 -1.7187,0.8126 -9.6957,5.124 2.0372,-1.4489 0.5196,-0.291 -2.1113,1.2195 -4.0913,2.653 -0.424,0.307 -0.8227,0.6473 -1.2341,0.971 0,0 -9.019,3.6051 -9.019,3.6051 z"
         id="path4261"
         style="opacity:1;fill:#000000;stroke:none;stroke-width:2;stroke-miterlimit:5;stroke-dasharray:none;stroke-dashoffset:6.16003132" />
      <path
         inkscape:connector-curvature="0"
         d="m 434.58221,465.0895 c 4.4698,2.6787 8.8605,5.488 13.2887,8.2356 7.5503,4.6181 15.3324,8.8371 22.9898,13.2713 4.8513,2.9302 9.9063,5.5727 14.4835,8.9331 4.2435,3.7719 -1.2212,4.1235 -7.2088,7.5786 -0.1665,0.096 -2.0544,-0.035 -2.2389,-0.045 -4.5459,-0.2284 -9.0333,-0.9616 -13.4936,-1.833 -7.3113,-1.4156 -14.2524,-4.0879 -21.0576,-7.0407 -7.1015,-3.2599 -14.0344,-6.8708 -21.0772,-10.2537 0,0 7.7463,-5.1065 7.7463,-5.1065 l 0,0 c 6.9637,3.4685 13.8558,7.0918 20.9541,10.2813 6.815,2.9045 13.7829,5.4679 21.1076,6.7594 4.4972,0.8105 9.0368,1.4791 13.6166,1.5116 0.4183,-0.035 0.8433,-0.024 1.255,-0.1061 0.2785,-0.056 1.0311,-0.4644 0.7958,-0.3051 -2.5376,1.7189 -5.1516,3.3225 -7.7199,4.9952 -0.067,0.043 0.2241,-0.028 0.2142,-0.1068 -0.044,-0.3504 -0.9184,-1.1192 -1.0061,-1.2079 -4.3675,-3.4749 -9.2897,-6.1654 -14.0273,-9.0869 -7.6447,-4.4869 -15.4284,-8.7311 -23.0553,-13.2489 -4.5412,-2.7035 -9.0342,-5.5119 -13.7486,-7.9071 0,0 8.1817,-5.3184 8.1817,-5.3184 z"
         id="path4263"
         style="opacity:1;fill:#000000;stroke:none;stroke-width:2;stroke-miterlimit:5;stroke-dasharray:none;stroke-dashoffset:6.16003132" />
      <path
         inkscape:connector-curvature="0"
         d="m 365.54261,490.4841 c -0.258,-0.4465 -0.4622,-0.9209 -0.7062,-1.3745 -0.2253,-0.4188 -0.4527,-0.7661 -0.4897,-0.7141 -0.08,0.1122 -0.046,0.4681 0.076,0.4058 2.8292,-1.4361 5.5339,-3.1055 8.3009,-4.6582 -0.4005,2.6501 0.6097,5.3703 1.3353,7.8841 1.3451,3.997 2.9655,7.8934 4.4212,11.8499 0.878,1.8706 1.3599,3.8656 1.9458,5.8309 0,0 -8.6728,4.619 -8.6728,4.619 l 0,0 c -0.1614,-2.0334 -0.8959,-3.9396 -1.6106,-5.8325 -1.4028,-3.9952 -3.0328,-7.9062 -4.4412,-11.8996 -0.8367,-2.728 -1.7275,-5.4473 -1.8752,-8.3189 9.0713,-5.6123 7.2923,-7.7765 10.1455,-2.7313 0,0 -8.4294,4.9394 -8.4294,4.9394 z"
         id="path4265"
         style="opacity:1;fill:#000000;stroke:none;stroke-width:2;stroke-miterlimit:5;stroke-dasharray:none;stroke-dashoffset:6.16003132" />
      <path
         inkscape:connector-curvature="0"
         d="m 389.96041,490.3396 c -1.9684,2.2465 -3.4061,4.8535 -4.6566,7.5471 -1.0049,2.4514 -0.537,1.2206 -1.4058,3.6914 0,0 -8.6268,4.0417 -8.6268,4.0417 l 0,0 c 0.8469,-2.5209 0.3945,-1.2675 1.3581,-3.7599 1.1549,-2.732 2.5201,-5.3506 4.3465,-7.703 0,0 8.9846,-3.8173 8.9846,-3.8173 z"
         id="path4267"
         style="opacity:1;fill:#000000;stroke:none;stroke-width:2;stroke-miterlimit:5;stroke-dasharray:none;stroke-dashoffset:6.16003132" />
      <path
         inkscape:connector-curvature="0"
         d="m 364.17541,344.3786 c -2.6001,-1.2822 -3.6413,-3.8595 -4.5444,-6.4444 -1.1985,-4.2223 -1.8481,-8.5766 -2.3471,-12.9294 -0.3529,-3.4106 -0.4605,-6.8692 0.07,-10.2691 0.3508,-2.2484 0.6256,-2.9399 1.2565,-5.1257 1.5585,-4.4192 4.2472,-8.408 8.0066,-11.2574 0.7899,-0.5988 1.6542,-1.0924 2.4814,-1.6385 5.8721,-3.1991 8.3028,-5.46 13.6988,-6.7561 3.0728,-0.7381 6.284,-0.9424 9.4282,-0.6614 1.0397,0.093 2.0668,0.2938 3.1002,0.4407 5.0907,1.1057 9.7537,3.443 13.4877,7.1045 0.757,0.7423 1.427,1.5684 2.1405,2.3526 4.2179,5.1348 6.3513,11.0289 8.0812,17.3402 0.8482,3.8727 1.7947,7.9646 1.1823,11.9525 -0.083,0.5396 -0.2392,1.0654 -0.3588,1.5981 -0.37,1.3516 -1.1327,2.1952 -2.1625,3.0671 0,0 -9.0024,3.5322 -9.0024,3.5322 l 0,0 c 1.1516,-0.6118 1.9899,-1.1988 2.5109,-2.4658 0.4144,-1.3708 0.6236,-1.8115 0.7338,-3.3007 0.2464,-3.3282 -0.4182,-6.6948 -1.1105,-9.9254 -1.657,-6.2393 -3.6456,-11.9096 -7.8461,-16.9591 -0.6976,-0.7516 -1.3527,-1.5449 -2.0928,-2.2547 -3.6582,-3.5083 -8.2297,-5.6934 -13.1837,-6.6554 -3.213,-0.3861 -6.0349,-0.5917 -9.264,-0.087 -1.0176,0.1589 -2.0294,0.3692 -3.0221,0.6439 -0.9804,0.2713 -3.6129,1.7034 -2.8865,0.9911 1.4888,-1.4601 3.5244,-2.2299 5.2867,-3.3448 -0.8385,0.5068 -1.7111,0.961 -2.5154,1.5205 -3.7885,2.6351 -6.5504,6.4524 -8.1862,10.7346 -0.6217,2.0204 -0.9611,2.8961 -1.3251,4.9792 -0.5805,3.3221 -0.4847,6.7177 -0.1385,10.0579 0.4943,4.2727 1.1531,8.5433 2.3464,12.6834 0.8293,2.2729 1.7238,4.7351 4.235,5.5569 0,0 -8.0601,5.52 -8.0601,5.52 z"
         id="path4273"
         style="opacity:1;fill:#000000;stroke:none;stroke-width:2;stroke-miterlimit:5;stroke-dasharray:none;stroke-dashoffset:6.16003132" />
      <path
         inkscape:connector-curvature="0"
         d="m 380.77161,522.5366 c -1.5421,1.4169 -2.2548,3.2319 -2.5227,5.2614 -0.1492,2.8035 0.9403,5.359 2.2198,7.7842 1.4906,2.7128 3.3697,4.3588 6.0848,5.7527 2.9427,1.3195 6.1919,1.2479 9.3434,1.0318 3.3692,-0.3627 6.7375,-0.6734 10.102,-0.1653 3.1123,0.6805 5.133,1.9527 6.9063,4.5773 1.2714,2.5318 1.4228,5.3961 1.7582,8.1608 0.305,2.2048 0.7681,4.102 2.6383,5.4544 2.7936,0.8619 5.675,-0.2734 8.372,-1.0246 3.8973,-1.2532 7.8438,-2.227 11.9423,-2.3813 4.3077,-0.01 8.5914,0.6128 12.8475,1.2224 5.3498,0.5942 10.6458,1.5544 15.9189,2.6189 5.709,1.3332 11.4197,2.5384 17.2466,3.2077 4.1158,0.3367 2.0598,0.2249 6.1679,0.3371 0,0 -7.5692,5.4602 -7.5692,5.4602 l 0,0 c -4.14,-0.1676 -2.0675,-0.035 -6.2173,-0.3978 -5.8467,-0.7089 -11.5804,-1.9457 -17.3214,-3.2461 -5.2857,-1.045 -10.5984,-1.9481 -15.9584,-2.5224 -4.2406,-0.5642 -8.5095,-1.1723 -12.7981,-1.0329 -4.0506,0.2942 -7.9486,1.3244 -11.8158,2.5406 -2.9403,0.7972 -6.1407,1.9033 -9.029,0.3812 -1.9418,-1.6641 -2.6407,-3.6373 -2.9512,-6.1439 -0.3084,-2.6115 -0.4121,-5.3367 -1.5562,-7.7471 -1.5934,-2.3379 -3.6182,-3.4498 -6.4104,-3.9273 -3.3368,-0.347 -6.6526,0 -9.9834,0.2931 -3.3022,0.1279 -6.6591,0.092 -9.6795,-1.4318 -2.7001,-1.4848 -4.9066,-3.488 -6.361,-6.2506 -1.3807,-2.5702 -2.5601,-5.2755 -2.5569,-8.25 0.1719,-2.2709 0.6366,-4.0533 2.1544,-5.8232 0,0 9.0281,-3.7395 9.0281,-3.7395 z"
         id="path4275"
         style="opacity:1;fill:#000000;stroke:none;stroke-width:2;stroke-miterlimit:5;stroke-dasharray:none;stroke-dashoffset:6.16003132" />
      <path
         inkscape:connector-curvature="0"
         d="m 332.59111,359.227 c -1.9047,-1.3684 -3.5482,-3.0447 -5.4205,-4.4543 -2.945,-2.2988 -6.4827,-3.0567 -10.0615,-3.7525 -6.2296,-1.0087 -12.5572,-1.1027 -18.8524,-1.2226 -5.2061,-0.035 -10.4325,-0.062 -15.6298,0.309 -3.0153,0.2151 -5.0456,0.5082 -8.0445,0.8818 -7.5251,0.9258 -14.6984,3.3354 -21.79605,5.8829 -4.6705,1.6592 -9.3074,3.4037 -13.8616,5.3604 1.1258,-0.6984 -3.039,1.5789 -2.2964,1.1523 2.5523,-1.4491 5.1047,-2.8981 7.657,-4.3471 -0.1318,-0.02 -0.5033,0.4208 -0.5505,0.4723 2.559,0.9865 5.2966,1.4138 7.9851,1.8895 6.56065,1.237 13.17405,2.1236 19.79015,2.9997 8.5437,1.0097 17.1106,1.8009 25.6619,2.7386 6.5715,0.763 13.1297,1.6207 19.6804,2.5425 2.782,0.3559 1.4447,0.1966 4.0113,0.4833 0,0 -7.7953,5.5169 -7.7953,5.5169 l 0,0 c -2.5134,-0.3478 -1.2021,-0.1603 -3.9334,-0.5655 -6.4539,-1.0134 -12.9234,-1.9184 -19.411,-2.6904 -8.5645,-0.9573 -17.1469,-1.747 -25.7093,-2.7254 -6.6972,-0.8428 -13.38675,-1.729 -20.04145,-2.8677 -2.0638,-0.3347 -6.2488,-0.8312 -8.0743,-1.8989 -0.247,-0.1445 -0.443,-0.3622 -0.6645,-0.5434 -0.2967,-0.5527 -0.7519,-1.3088 0,-1.7733 3.7726,-2.3237 7.2228,-4.6211 11.2031,-6.314 4.5026,-1.8498 9.07105,-3.525 13.66375,-5.1376 7.1063,-2.5003 14.3089,-4.7727 21.8274,-5.6511 7.904,-0.9376 15.8473,-1.3322 23.8091,-1.131 6.384,0.1097 12.8023,0.1888 19.1176,1.2326 3.7955,0.7319 7.3434,1.5855 10.458,4.0136 1.8561,1.4187 3.5085,3.0988 5.5037,4.3311 0,0 -8.2281,5.2683 -8.2281,5.2683 z"
         id="path4277"
         style="opacity:1;fill:#000000;stroke:none;stroke-width:2;stroke-miterlimit:5;stroke-dasharray:none;stroke-dashoffset:6.16003132" />
      <path
         inkscape:connector-curvature="0"
         d="m 445.83121,353.8587 c -1.4388,-0.2531 -2.9556,-0.2517 -4.1746,-1.1389 -1.2772,-1.8448 0.5225,-2.7231 1.8948,-3.6339 3.1933,-1.803 6.3516,-3.6693 9.5798,-5.409 0.6817,-0.3673 2.999,-1.0796 3.6339,-1.2847 2.6465,-0.8548 5.2988,-1.5854 7.9949,-2.2684 7.598,-1.7787 15.2991,-3.0924 23.0278,-4.1489 5.7631,-0.7348 11.5462,-1.4493 17.3608,-1.5919 3.5084,-0.086 4.364,0.01 7.8118,0.1617 5.6333,0.2605 11.0885,1.7281 16.452,3.366 2.3805,0.6982 4.7047,1.5728 7.121,2.1449 0.7202,0.1998 1.4614,0.1946 2.2006,0.1794 0.7965,0.097 1.4387,-0.145 2.1576,-0.4446 -2.7246,1.54 -5.4492,3.08 -8.1738,4.62 0.2801,-0.1593 0.5883,-0.5091 0.8026,-0.1853 -0.3613,-0.2784 -1.2048,-0.163 -1.625,-0.066 -1.8964,0.4318 -3.7763,0.9593 -5.6445,1.5109 -3.9008,1.273 -7.8676,2.3256 -11.7847,3.5432 -5.2027,1.4254 -10.4549,2.6429 -15.655,4.0779 -5.5976,1.5415 -11.2276,2.9538 -16.8179,4.5223 -5.5272,1.5333 -10.9824,3.3142 -16.4291,5.1091 -4.7058,1.6014 -9.3916,3.2992 -13.6784,5.8415 2.259,-1.2939 4.5181,-2.5878 6.7772,-3.8817 0,0 -8.9431,3.4501 -8.9431,3.4501 l 0,0 c 3.1919,-1.8535 6.3838,-3.7071 9.5757,-5.5606 4.3438,-2.3626 8.9988,-4.0326 13.6788,-5.6017 5.4456,-1.7897 10.9079,-3.5384 16.4353,-5.0604 5.5987,-1.5615 11.2367,-2.9713 16.8361,-4.5307 5.2186,-1.4267 10.4925,-2.637 15.6897,-4.1418 3.9733,-1.2167 7.9689,-2.36 11.9242,-3.6361 1.9384,-0.5715 3.8954,-1.2261 5.9123,-1.433 0.9076,0.074 1.8725,0.2023 2.3513,1.0833 0.2572,0.5462 0.3438,1.0263 -0.2689,1.3792 -2.8967,1.6684 -5.8038,3.3187 -8.7057,4.978 -0.7778,0.2024 -1.5611,0.2116 -2.3619,0.1832 -0.7787,-0.036 -1.5431,-0.1723 -2.2856,-0.4159 -2.339,-0.701 -4.6192,-1.5802 -6.9498,-2.3083 -5.2318,-1.6557 -10.5518,-3.1182 -16.0716,-3.3375 -3.4502,-0.1468 -4.1841,-0.2368 -7.7003,-0.1387 -5.793,0.1616 -11.5538,0.8853 -17.2925,1.6449 -7.7665,1.119 -15.5118,2.4628 -23.1299,4.3608 -2.726,0.7354 -5.4231,1.5012 -8.0899,2.4319 -0.6707,0.2341 -1.3427,0.466 -2.0025,0.7291 -0.555,0.2212 -2.1442,1.0433 -1.6399,0.723 2.266,-1.4394 4.6256,-2.7259 6.9384,-4.0888 -0.3295,0.1912 -0.6591,0.3823 -0.9886,0.5735 -0.2415,0.1706 -0.4732,0.356 -0.7245,0.5119 -0.2878,0.1786 -0.6391,0.2402 -0.923,0.4248 -0.2033,0.1322 -0.1183,0.1824 -0.041,0.3201 1.1798,0.5892 2.5603,0.6176 3.8514,0.6916 0,0 -7.9064,5.7444 -7.9064,5.7444 z"
         id="path4279"
         style="opacity:1;fill:#000000;stroke:none;stroke-width:2;stroke-miterlimit:5;stroke-dasharray:none;stroke-dashoffset:6.16003132" />
      <path
         inkscape:connector-curvature="0"
         d="m 377.92101,304.7482 c 0.8921,0.9006 1.6894,1.9275 2.8228,2.5298 0,0 -8.2105,5.281 -8.2105,5.281 l 0,0 c -1.0812,-0.7927 -1.9688,-1.7901 -2.9442,-2.705 0,0 8.3319,-5.1058 8.3319,-5.1058 z"
         id="path4291"
         style="opacity:1;fill:#000000;stroke:none;stroke-width:2;stroke-miterlimit:5;stroke-dasharray:none;stroke-dashoffset:6.16003132" />
      <path
         inkscape:connector-curvature="0"
         d="m 393.72911,301.5779 c 1.101,1.4538 2.4848,2.7551 4.2824,3.2171 l -8.0546,5.449 c -1.8374,-0.7906 -3.3324,-2.0993 -4.597,-3.6412 l 8.3692,-5.0248 z"
         id="path4293"
         style="opacity:1;fill:#000000;stroke:none;stroke-width:2;stroke-miterlimit:5;stroke-dasharray:none;stroke-dashoffset:6.16003132"
         sodipodi:nodetypes="cccccc" />
      <path
         inkscape:connector-curvature="0"
         d="m 365.75901,366.5532 c -1.1913,1.5856 -1.686,3.3448 -1.5392,5.3045 0.3542,1.9662 1.3224,3.7525 2.7659,5.1231 1.2158,1.1523 2.6945,1.6967 4.3185,1.9374 0.9212,-0.031 1.7592,-0.2339 2.5507,-0.7136 0.2143,-0.1299 0.8404,-0.5449 0.6223,-0.4215 -2.5355,1.4346 -5.0511,2.9043 -7.5767,4.3564 1.6378,-1.0008 3.0833,-2.2676 4.4928,-3.5605 1.0485,-1.0024 1.9872,-2.1216 2.5871,-3.449 0.3042,-0.8738 0.4387,-1.7844 0.2524,-2.6931 -0.4455,-0.9075 -1.1365,-1.663 -1.8692,-2.3485 -1.0644,-1.0787 -2.2903,-1.9382 -3.6059,-2.6771 -1.6021,-0.896 -3.28,-0.9214 -5.0439,-0.6301 -0.34,0.092 -0.6911,0.1502 -1.02,0.2761 -0.6463,0.2472 -3.6205,1.9762 -2.0241,1.0742 12.2436,-6.9175 8.0874,-5.1454 5.5122,-2.5364 -0.7264,0.7979 -1.1472,1.7266 -1.5025,2.7253 0,0 -8.762,4.1502 -8.762,4.1502 l 0,0 c 0.2807,-1.1329 0.6588,-2.1725 1.3555,-3.1315 3.0249,-3.6573 5.746,-4.2493 10.9315,-7.2527 1.0107,-0.5854 2.1347,-0.9379 3.2875,-1.0927 1.926,-0.1293 3.7354,0.097 5.4185,1.1192 1.367,0.7974 2.6192,1.7515 3.7565,2.8551 0.8624,0.8233 1.6589,1.7484 2.1836,2.8265 0.2779,1.0826 0.2616,2.1179 -0.018,3.2092 -0.4474,1.5142 -1.3973,2.7465 -2.4634,3.8937 -1.3969,1.3253 -2.8169,2.6373 -4.4086,3.7294 -3.0183,1.7591 -6.0259,3.5369 -9.055,5.2773 -1.0942,0.6286 -2.3609,0.7749 -3.5924,0.5886 -1.7407,-0.4137 -3.3039,-1.1743 -4.5948,-2.4439 -1.5332,-1.5921 -2.6211,-3.5279 -3.088,-5.703 -0.2675,-2.0955 0.019,-4.0672 1.1777,-5.8763 0,0 8.9507,-3.9163 8.9507,-3.9163 z"
         id="path4295"
         style="opacity:1;fill:#000000;stroke:none;stroke-width:2;stroke-miterlimit:5;stroke-dasharray:none;stroke-dashoffset:6.16003132" />
      <path
         inkscape:connector-curvature="0"
         d="m 397.95581,365.2471 c -1.102,1.0706 -1.9614,2.3528 -2.6079,3.7405 -0.4254,0.8482 -0.334,1.4919 0.022,2.3242 0.6059,1.095 1.2875,2.152 2.0245,3.1643 0.6381,0.8942 1.5158,1.357 2.4273,1.8971 0.8668,0.4455 1.8203,0.5618 2.7778,0.6172 1.216,0.1126 2.3791,0.019 3.5673,-0.2193 2.912,-1.6374 6.8629,-3.8178 -6.7677,3.8598 -0.1974,0.1112 0.3743,-0.2554 0.5596,-0.3859 0.6257,-0.4404 0.4262,-0.294 1.0171,-0.8028 0.9368,-0.8411 1.8971,-1.6633 2.9081,-2.4147 0.8769,-0.6695 1.5719,-1.4851 2.0932,-2.4528 0.469,-1.0049 0.6621,-2.0558 0.6784,-3.1547 -0.054,-0.9336 -0.5785,-1.7089 -1.1035,-2.4491 -0.8716,-1.2453 -1.9475,-2.1992 -3.2569,-2.9489 -1.8596,-0.9859 -3.3384,-0.273 -5.1258,0.477 -4.3468,2.4331 3.9057,-2.2877 5.8978,-3.3608 0.4573,-0.2463 -0.8612,0.5814 -1.2782,0.891 -1.3068,0.9703 -2.4543,2.0485 -3.5787,3.2197 0,0 -8.857,3.7086 -8.857,3.7086 l 0,0 c 4.1886,-4.6862 9.668,-7.8778 15.4222,-10.4197 2.0902,-0.7219 3.6986,-0.9883 5.6832,0.1996 1.3833,0.8565 2.526,1.9617 3.4994,3.2688 0.6575,0.9065 1.2375,1.8532 1.4225,2.9771 0,1.2117 -0.087,2.3801 -0.5238,3.5218 -0.4011,1.1154 -1.0146,2.0832 -1.9149,2.8666 -0.9186,0.8512 -2.0109,1.5206 -2.9453,2.3655 -0.481,0.4942 -0.9226,0.9678 -1.5218,1.3227 -2.3385,1.385 -6.4232,4.8039 -10.1025,5.5764 -1.2399,0.1725 -2.492,0.1345 -3.7375,0.025 -1.0609,-0.14 -2.09,-0.4121 -3.0194,-0.963 -1.0263,-0.5867 -1.8976,-1.3108 -2.6195,-2.2575 -0.7715,-1.0722 -1.4779,-2.195 -2.1508,-3.3302 -0.451,-0.9986 -0.8185,-1.9483 -0.3613,-3.0285 0.535,-1.5129 1.4388,-2.8533 2.4439,-4.0955 0,0 9.0281,-3.7395 9.0281,-3.7395 z"
         id="path4297"
         style="opacity:1;fill:#000000;stroke:none;stroke-width:2;stroke-miterlimit:5;stroke-dasharray:none;stroke-dashoffset:6.16003132" />
      <path
         inkscape:connector-curvature="0"
         d="m 360.34381,402.355 c -1.1502,0.053 -2.4593,0.017 -3.5362,0.5034 -0.2652,0.1199 -0.9924,0.6084 -0.7385,0.4661 2.5325,-1.4188 5.0501,-2.8641 7.5751,-4.2961 -1.2598,0.9007 -2.2039,2.1009 -2.5859,3.6053 -0.1801,1.6098 0.1438,3.1911 0.7377,4.6813 0.6506,1.7038 1.3766,2.7535 2.7864,3.891 1.486,0.9794 3.2225,1.4579 4.961,1.7498 1.8163,0.3796 3.5561,0.052 5.3128,-0.4094 3.096,-1.3175 7.8199,-4.0299 -6.2191,3.6805 -0.2323,0.1276 0.4305,-0.3111 0.6265,-0.4895 0.3895,-0.3545 0.8339,-0.9048 1.1714,-1.3022 1.1715,-1.4848 2.4515,-2.8762 3.7015,-4.2935 1.217,-1.3999 2.3598,-2.8623 2.9001,-4.6549 0.4363,-1.9651 -0.2979,-3.5067 -1.5688,-4.9522 -1.8033,-1.8583 -4.0993,-2.5789 -6.5754,-3.0148 -2.099,-0.1676 -4.2658,0.2339 -6.1918,1.0986 -0.5556,0.2494 -2.1369,1.1692 -1.6059,0.8711 2.2115,-1.2419 4.4317,-2.4681 6.6475,-3.7021 0,0 -8.8934,3.4797 -8.8934,3.4797 l 0,0 c 5.5992,-3.3118 11.0615,-8.0829 17.9388,-7.2531 2.6427,0.5694 5.0693,1.5137 6.9733,3.5207 1.4168,1.662 2.3511,3.4861 2.0225,5.7368 -0.3294,2.0256 -1.4049,3.5475 -2.7203,5.0854 -1.1866,1.462 -2.5441,2.7779 -3.6918,4.2747 -0.365,0.458 -1.2029,1.7636 -1.6677,2.0501 -3.4064,2.1 -6.6807,4.6902 -10.576,5.7598 -1.8406,0.3912 -3.6864,0.4818 -5.538,0.065 -1.8571,-0.4017 -3.7112,-0.9832 -5.2434,-2.1475 -1.3842,-1.1779 -2.41,-2.575 -3.0317,-4.3007 -0.6777,-1.633 -1.065,-3.3572 -0.9963,-5.1353 0.1279,-1.7552 1.0385,-3.1332 2.2836,-4.3494 5.3944,-3.1563 8.0608,-6.2856 13.7284,-5.8496 0,0 -7.9864,5.631 -7.9864,5.631 z"
         id="path4299"
         style="opacity:1;fill:#000000;stroke:none;stroke-width:2;stroke-miterlimit:5;stroke-dasharray:none;stroke-dashoffset:6.16003132" />
      <path
         inkscape:connector-curvature="0"
         d="m 393.43851,402.3439 c 14.7638,-8.3779 6.3351,-4.6959 4.4694,-1.1056 -0.6088,1.3451 -0.06,2.2213 0.8143,3.2415 1.0926,1.2199 2.293,2.3239 3.6637,3.2213 1.4447,0.7741 2.1709,1.2319 3.835,1.1694 1.3904,0.055 2.6274,-0.526 3.9225,-0.9173 3.0315,-1.413 7.6513,-4.1054 -6.2754,3.6687 -0.2304,0.1286 0.4364,-0.2976 0.6435,-0.4611 0.5208,-0.4114 0.6321,-0.5655 1.0885,-1.0497 0.8672,-1.0626 1.5818,-2.2489 2.2543,-3.4423 0.6303,-1.2066 0.6518,-2.501 0.3906,-3.8051 -0.3486,-1.6559 -1.1309,-3.1088 -2.2146,-4.3909 -1.6657,-1.8613 -3.0831,-2.5736 -5.5779,-2.595 -1.6418,0.1505 -3.0436,0.9713 -4.4776,1.7075 0,0 7.4626,-5.9498 7.4626,-5.9498 l 0,0 c 1.5712,-0.7049 3.087,-1.4314 4.8581,-1.3791 2.7469,0.317 4.2027,1.1779 6.0499,3.2221 1.1619,1.4027 2.0601,2.9798 2.4772,4.7697 0.367,1.4602 0.4516,2.9555 -0.075,4.3944 -0.5747,1.3091 -1.4541,2.4566 -2.1792,3.6855 -3.0562,3.73 -7.6112,5.9642 -12.12,7.5869 -1.3448,0.4502 -2.7092,0.7654 -4.1403,0.658 -1.5156,-0.1629 -2.8454,-0.8244 -4.123,-1.6375 -1.3939,-1.0023 -2.6601,-2.1552 -3.8072,-3.4342 -1.049,-1.2409 -1.8331,-2.5176 -1.3125,-4.1968 0.2282,-0.6524 0.3102,-1.024 0.7191,-1.6065 2.5216,-3.5915 8.7365,-5.2334 11.2407,-7.4919 0,0 -7.5865,6.1378 -7.5865,6.1378 z"
         id="path4301"
         style="opacity:1;fill:#000000;stroke:none;stroke-width:2;stroke-miterlimit:5;stroke-dasharray:none;stroke-dashoffset:6.16003132" />
      <path
         inkscape:connector-curvature="0"
         d="m 363.63331,436.5655 c -1.7565,-0.09 -3.4634,0.097 -5.0431,0.8892 17.4263,-8.9987 7.7125,-5.5708 6.2226,-2.9477 -0.2729,0.4805 -0.2697,0.7443 -0.3629,1.2806 -0.014,1.8964 1.4881,3.3145 2.7159,4.5907 1.5339,1.6247 3.4432,2.6976 5.5597,3.3479 1.9131,0.4986 3.7582,0.031 5.5185,-0.742 3.0029,-1.5566 8.09,-4.3793 -5.4523,3.1864 -0.3049,0.1703 0.5851,-0.3818 0.8701,-0.5836 0.6852,-0.4852 0.9409,-0.7123 1.5874,-1.2404 1.4638,-1.2308 2.5079,-2.7801 3.1744,-4.5582 0.5493,-1.4967 0.2687,-2.8708 -0.3625,-4.2764 -0.8988,-1.7333 -2.55,-2.7361 -4.3399,-3.3531 -3.0923,-0.9081 -5.2767,-0.036 -8.0411,1.3087 0,0 7.5119,-5.9651 7.5119,-5.9651 l 0,0 c 2.9867,-1.2758 5.3787,-1.8185 8.5485,-0.7357 1.9788,0.8181 3.7655,2.0109 4.7797,3.9632 0.7484,1.5801 1.2124,3.1915 0.6992,4.9316 -0.5855,1.9265 -1.522,3.6348 -2.9831,5.0498 -4.0085,3.5088 -8.7558,6.1052 -13.6196,8.2506 -1.9537,0.6394 -3.9319,0.8865 -5.9215,0.2021 -2.1854,-0.8263 -4.1665,-2.0374 -5.7752,-3.7558 -1.4377,-1.5004 -3.0204,-3.1205 -3.1972,-5.2979 0.034,-0.5349 0.042,-1.116 0.197,-1.6358 1.2341,-4.1283 10.0262,-3.8783 10.315,-7.0378 1.7413,-0.5573 3.5657,-0.6763 5.3849,-0.5023 0,0 -7.9864,5.631 -7.9864,5.631 z"
         id="path4303"
         style="opacity:1;fill:#000000;stroke:none;stroke-width:2;stroke-miterlimit:5;stroke-dasharray:none;stroke-dashoffset:6.16003132" />
      <path
         inkscape:connector-curvature="0"
         d="m 397.22591,436.7008 c -1.6399,-0.09 -3.2627,0 -4.7164,0.8108 -3.1853,2.036 0.6519,-0.4287 7.3719,-4.1946 0.1369,-0.077 -0.2517,0.1903 -0.358,0.3058 -0.3783,0.4114 -0.6107,0.9239 -0.8328,1.4272 -0.3435,1.1817 -0.063,2.3889 0.3215,3.5217 0.6794,1.229 1.721,2.2437 2.7997,3.1272 1.1061,0.8871 2.32,1.6625 3.6577,2.1462 1.1653,0.2869 2.3911,0.3701 3.5747,0.1781 1.7726,-0.457 3.4032,-1.2001 4.9564,-2.1611 -14.1256,8.9533 -6.1361,3.4249 -3.2403,0.5839 1.2504,-1.3349 2.1667,-2.9358 2.5916,-4.715 0.1958,-1.8524 -0.6427,-3.2701 -1.7669,-4.6531 -1.7058,-1.9258 -3.8416,-3.0252 -6.2795,-3.7125 -1.3571,-0.303 -2.7728,-0.4406 -4.1556,-0.2064 -3.0987,0.5247 -9.4652,4.7392 4.1219,-2.8955 -1.6556,1.0931 -2.6872,2.6838 -3.7362,4.3133 0,0 -8.6949,3.8495 -8.6949,3.8495 l 0,0 c 0.9783,-1.7181 1.9577,-3.407 3.4859,-4.7126 6.8881,-3.9441 9.7301,-7.4922 16.9402,-5.7771 2.5551,0.8491 4.8227,2.122 6.6239,4.1692 1.3,1.6041 2.2251,3.2358 2.2043,5.3641 -0.2538,1.9496 -1.1822,3.7275 -2.4012,5.2569 -3.6965,4.0457 -8.3648,6.628 -13.2266,9.2337 -1.6473,0.8789 -3.3827,1.6243 -5.252,1.8575 -1.3126,0.03 -2.6373,-0.038 -3.8658,-0.5498 -1.3617,-0.6378 -2.6398,-1.4503 -3.7918,-2.4184 -1.178,-1.0339 -2.3504,-2.1476 -3.0736,-3.5578 -0.4933,-1.3256 -0.7804,-2.6912 -0.6418,-4.1139 1.3375,-4.5375 5.6492,-5.7974 10.3109,-7.7077 1.6165,-0.5135 3.2947,-0.5278 4.9792,-0.5139 0,0 -7.9064,5.7443 -7.9064,5.7443 z"
         id="path4305"
         style="opacity:1;fill:#000000;stroke:none;stroke-width:2;stroke-miterlimit:5;stroke-dasharray:none;stroke-dashoffset:6.16003132" />
    </g>
  </g>
</svg>
