<?xml version="1.0" ?><!DOCTYPE svg  PUBLIC '-//W3C//DTD SVG 1.1//EN'  'http://www.w3.org/Graphics/SVG/1.1/DTD/svg11.dtd'><svg height="420.000" viewBox="-202.000 -215.000 422.000 420.000" width="422.000" xmlns="http://www.w3.org/2000/svg"><line fill="none" stroke="none" stroke-linecap="round" stroke-width="2.0" x1="0.0" x2="0.0" y1="0.0" y2="0.0"/><polygon fill="none" fill-rule="evenodd" points="0.0,0.0 0.0,0.0 0.0,0.0" stroke-linejoin="round"/><polyline fill="none" points="0.0,-0.0 10.0,-0.0 17.071067811865476,7.071067811865475 17.07106781186548,17.071067811865476 10.000000000000005,24.14213562373095 5.329070518200751e-15,24.142135623730955 -7.071067811865473,17.071067811865483 -7.071067811865477,7.071067811865483 -6.217248937900877e-15,3.552713678800501e-15 3.0901699437494745,9.510565162951536 -1.4497350536459859,18.420630404835215 -10.960300216597519,21.5108003485847 -19.870365458481203,16.970895351189238 -22.960535402230686,7.460330188237705 -18.42063040483523,-1.4497350536459788 -8.910065241883697,-4.539904997395464 -1.2434497875801753e-14,-6.217248937900877e-15 -8.090169943749478,5.877852522924736 -17.967053349700855,4.313507872522443 -23.8449058726256,-3.7766620712270207 -22.28056122222331,-13.6535454771784 -14.190391278473847,-19.531398000103145 -4.313507872522468,-17.967053349700855 1.564344650402278,-9.876883405951393 -1.1102230246251565e-14,-1.4210854715202004e-14 -8.090169943749496,-5.8778525229247265 -9.654514594151825,-15.754735928876098 -3.776662071227114,-23.84490587262558 6.1002213347242575,-25.40925052302791 14.190391278473744,-19.531398000103202 15.754735928876077,-9.654514594151832 9.876883405951368,-1.5643446504023455 -3.552713678800501e-15,-1.1546319456101628e-14 3.0901699437494443,-9.51056516295155 12.000235185633107,-14.050470160347041 21.510800348584645,-10.960300216597595 26.050705345980138,-2.0502349747139323 22.960535402230693,7.460330188237609 14.05047016034703,12.000235185633102 4.539904997395487,8.910065241883657 -7.993605777301127e-15,-5.329070518200751e-15 14.99999999999999,-5.445643935786393e-14 25.606601717798235,10.60660171779812" stroke="#000" stroke-linecap="round" stroke-linejoin="round"/><polyline fill="none" points="25.606601717798235,10.60660171779812 25.606601717798288,25.606601717798117 15.000000000000114,36.21320343559637 1.1723955140041653e-13,36.21320343559643 -10.606601717798133,25.606601717798256 -10.60660171779819,10.60660171779826 -1.9539925233402755e-14,7.105427357601002e-15 4.635254915624248,14.265847744427289 -2.174602580468898,27.63094560725283 -16.44045032489618,32.2662005228771 -29.80554818772172,25.456343026783955 -34.440803103345985,11.190495282356675 -27.63094560725284,-2.174602580468868 -13.36509786282556,-6.80985749609314 -1.5987211554602254e-14,8.881784197001252e-16 -12.135254915624186,8.81677878438715 -26.950580024551257,6.470261808783755 -35.76735880893841,-5.664993106840411 -33.42084183333502,-20.480318215767483 -21.28558691771085,-29.297097000154636 -6.47026180878378,-26.950580024551247 2.3465169756033735,-14.815325108927084 -1.509903313490213e-14,-1.2434497875801753e-14 -12.135254915624266,-8.816778784387044 -14.481771891227806,-23.63210389331409 -5.664993106840779,-35.76735880893834 9.150332002086266,-38.11387578454188 21.285586917710518,-29.297097000154857 23.632103893314063,-14.481771891227813 14.815325108927041,-2.346516975603558 -1.7763568394002505e-15,-1.0658141036401503e-14 4.635254915624123,-14.265847744427333 18.000352778449592,-21.075705240520612 32.266200522876915,-16.440450324896492 39.076058018970194,-3.0753524620710255 34.44080310334608,11.190495282356297 21.075705240520612,18.00035277844958 6.80985749609329,13.365097862825468 5.329070518200751e-15,7.105427357601002e-15 19.999999999999986,-1.2723155862204294e-13 34.14213562373102,14.142135623730713 34.142135623731164,34.142135623730695 20.000000000000327,48.28427124746173" stroke="#000" stroke-linecap="round" stroke-linejoin="round"/><polyline fill="none" points="20.000000000000327,48.28427124746173 3.446132268436486e-13,48.284271247461874 -14.142135623730693,34.142135623731036 -14.142135623730837,14.142135623731058 -3.552713678800501e-15,1.7763568394002505e-14 6.180339887499079,19.021130325903023 -2.899470107291714,36.84126080967043 -21.920600433194714,43.02160069716952 -39.74073091696212,33.941790702378725 -45.92107080446121,14.920660376475723 -36.841260809670416,-2.899470107291684 -17.820130483767414,-9.079809994790775 -7.105427357601002e-15,1.0658141036401503e-14 -16.180339887498846,11.755705045849588 -35.93410669940161,8.627015745045131 -47.68981174525119,-7.553324142453707 -44.56112244444674,-27.307090954356468 -28.3807825569479,-39.06279600020605 -8.627015745045135,-35.934106699401596 3.128689300804453,-19.75376681190276 4.884981308350689e-15,3.552713678800501e-15 -16.18033988749903,-11.755705045849307 -19.309029188303818,-31.509471857752015 -7.55332414245451,-47.68981174525105 12.200442669448194,-50.818501046055836 28.380782556947228,-39.06279600020653 31.50947185775202,-19.309029188303832 19.753766811902718,-3.128689300804794 1.7763568394002505e-14,1.7763568394002505e-15 6.18033988749878,-19.02113032590311 24.000470371266033,-28.100940320694203 43.02160069716914,-21.920600433195446 52.10141069196024,-4.100469949428195 45.92107080446148,14.920660376474917 28.10094032069423,24.000470371266015 9.079809994791123,17.82013048376726 2.1316282072803006e-14,1.7763568394002505e-14 24.99999999999999,-2.348121697082206e-13 42.67766952966383,17.677669529663252 42.67766952966409,42.67766952966322 25.000000000000604,60.355339059327065 6.359357485052897e-13,60.35533905932733 -17.677669529663213,42.677669529663845" stroke="#000" stroke-linecap="round" stroke-linejoin="round"/><polyline fill="none" points="-17.677669529663213,42.677669529663845 -17.677669529663476,17.677669529663877 3.552713678800501e-15,2.4868995751603507e-14 7.725424859373934,23.776412907378752 -3.624337634114479,46.05157601208804 -27.400750541493203,53.77700087146198 -49.675913646202495,42.427238377973566 -57.40133850557643,18.650825470594842 -46.05157601208803,-3.624337634114454 -22.275163104709303,-11.349762493488399 -3.552713678800501e-15,7.105427357601002e-15 -20.225424859373497,14.694631307312049 -44.91763337425196,10.783769681306566 -59.612264681564014,-9.441655178066927 -55.701403055558536,-34.13386369294539 -35.475978196185046,-48.82849500025744 -10.783769681306584,-44.91763337425196 3.9108616260054685,-24.692208514878477 0.0,-1.4210854715202004e-14 -20.22542485937384,-14.694631307311578 -24.136286485379912,-39.38683982218994 -9.44165517806835,-59.612264681563786 15.250553336810016,-63.52312630756986 35.47597819618387,-48.8284950002583 39.38683982218994,-24.136286485379934 24.692208514878384,-3.910861626006085 1.7763568394002505e-14,-1.7763568394002505e-15 7.725424859373388,-23.776412907378912 30.000587964082413,-35.12617540086786 53.777000871461325,-27.400750541494496 65.12676336495028,-5.125587436785473 57.401338505576916,18.650825470593446 35.12617540086789,30.000587964082403 11.349762493488974,22.275163104709044 1.7763568394002505e-14,2.4868995751603507e-14 29.999999999999986,-3.831379657981415e-13 51.21320343559668,21.213203435595727 51.213203435597094,51.213203435595695 30.000000000000988,72.4264068711924 1.0196288258157438e-12,72.42640687119282 -21.21320343559568,51.213203435596725 -21.213203435596107,21.213203435596757 -7.105427357601002e-15,5.3290705182007514e-14" stroke="#000" stroke-linecap="round" stroke-linejoin="round"/><polyline fill="none" points="-7.105427357601002e-15,5.3290705182007514e-14 9.270509831248813,28.531695488854492 -4.3492051609371885,55.26189121450569 -32.88090064979163,64.53240104575451 -59.61109637544283,50.912686053568514 -68.88160620669166,22.38099056471408 -55.26189121450566,-4.3492051609371245 -26.730195725651225,-13.619714992185958 -1.7763568394002505e-14,3.197442310920451e-14 -24.270509831248148,17.633557568774567 -53.901160049102316,12.94052361756809 -71.53471761787685,-11.32998621368004 -66.84168366667038,-40.96063643153421 -42.57117383542224,-58.59419400030876 -12.940523617568068,-53.901160049102295 4.693033951206484,-29.630650217854164 2.1316282072803006e-14,1.4210854715202004e-14 -24.270509831248656,-17.63355756877378 -28.96354378245605,-47.26420778662781 -11.329986213682261,-71.53471761787648 18.300664004171765,-76.22775156908388 42.57117383542045,-58.5941940003101 47.26420778662786,-28.96354378245607 29.630650217854075,-4.693033951207383 4.973799150320701e-14,2.4868995751603507e-14 9.270509831247994,-28.53169548885471 36.00070555689878,-42.151410481041545 64.53240104575352,-32.8809006497936 78.15211603794036,-6.150704924142822 68.88160620669242,22.380990564711915 42.15141048104165,36.00070555689876 13.619714992186914,26.73019572565083 6.927791673660977e-14,5.684341886080802e-14 35.000000000000036,-5.473954622914334e-13 59.748737341529605,24.74873734152816 59.748737341530216,59.74873734152813 35.00000000000151,84.4974746830577 1.5489831639570184e-12,84.49747468305831 -24.748737341528024,59.74873734152962 -24.748737341528646,24.748737341529655 4.973799150320701e-14,7.815970093361102e-14 10.815594803123796,33.28697807033022 -5.074072687759758,64.47220641692334" stroke="#000" stroke-linecap="round" stroke-linejoin="round"/><polyline fill="none" points="-5.074072687759758,64.47220641692334 -38.361050758089895,75.2878012200471 -69.54627910468302,59.39813372916355 -80.36187390780678,26.11115565883341 -64.47220641692323,-5.07407268775972 -31.185228346593092,-15.889667490883484 4.263256414560601e-14,5.684341886080802e-14 -28.3155948031227,20.572483830237122 -62.88468672395258,15.097277553829697 -83.45717055418966,-13.218317249293046 -77.98196427778224,-47.787409170122935 -49.6663694746595,-68.35989300036002 -15.097277553829606,-62.884686723952605 5.475206276407473,-34.56909192082986 6.217248937900877e-14,2.842170943040401e-14 -28.315594803123467,-20.572483830235964 -33.79080107953221,-55.141575751065645 -13.21831724929622,-83.45717055418918 21.350774671533458,-88.93237683059792 49.66636947465699,-68.35989300036194 55.141575751065744,-33.79080107953226 34.56909192082976,-5.4752062764087235 8.526512829121202e-14,3.375077994860476e-14 10.815594803122574,-33.28697807033052 42.0008231497151,-49.17664556121526 75.28780122004565,-38.36105075809277 91.1774687109304,-7.175822411500249 80.36187390780792,26.111155658830306 49.176645561215395,42.00082314971506 15.88966749088484,31.185228346592588 8.526512829121202e-14,7.105427357601002e-14 40.000000000000036,-7.438494264988549e-13 68.28427124746248,28.28427124746054 68.28427124746331,68.28427124746048 40.00000000000203,96.56854249492292 2.0889956431346945e-12,96.56854249492375 -28.284271247460364,68.28427124746247 -28.2842712474612,28.28427124746252 7.460698725481052e-14,6.394884621840902e-14 12.360679774998756,38.0422606518059 -5.798940214582336,73.68252161934095 -43.841200866388164,86.04320139433963 -79.48146183392322,67.88358140475854" stroke="#000" stroke-linecap="round" stroke-linejoin="round"/><polyline fill="none" points="-79.48146183392322,67.88358140475854 -91.8421416089219,29.84132075295272 -73.68252161934082,-5.7989402145823306 -35.64026096753499,-18.159619989581017 5.684341886080802e-14,7.105427357601002e-14 -32.360679774997294,23.511410091699652 -71.86821339880288,17.254031490091272 -95.37962349050247,-15.106648284906079 -89.1222448888941,-54.61418190871167 -56.76156511389676,-78.12559200041126 -17.254031490091165,-71.8682133988029 6.25737860160843,-39.50753362380556 6.927791673660977e-14,3.552713678800501e-14 -32.360679774998296,-23.511410091698146 -38.61805837660839,-63.018943715503454 -15.106648284910218,-95.37962349050181 24.40088533889509,-101.63700209211191 56.761565113893454,-78.12559200041375 63.01894371550356,-38.61805837660844 39.5075336238054,-6.257378601610064 9.237055564881302e-14,5.1514348342607263e-14 12.36067977499711,-38.04226065180631 48.00094074253135,-56.201880641388954 86.0432013943377,-43.841200866391944 104.20282138392035,-8.200939898857705 91.84214160892334,29.841320752948654 56.2018806413891,48.000940742531306 18.159619989582744,35.6402609675343 8.881784197001252e-14,7.105427357601002e-14 45.000000000000014,-9.681144774731365e-13 76.81980515339534,31.819805153392878 76.81980515339639,76.81980515339279 45.000000000002544,108.63961030678811 2.6219026949547697e-12,108.63961030678917 -31.819805153392704,76.81980515339532 -31.81980515339375,31.8198051533954 8.881784197001252e-14,7.460698725481052e-14 13.905764746873697,42.79754323328159 -6.523807741404934,82.89283682175855 -49.32135097468644,96.79860156863217 -89.4166445631634,76.36902908035354 -103.32240931003702,33.57148584707204 -82.89283682175841,-6.523807741404923" stroke="#000" stroke-linecap="round" stroke-linejoin="round"/><polyline fill="none" points="-82.89283682175841,-6.523807741404923 -40.095293588476906,-20.429572488278545 5.684341886080802e-14,7.105427357601002e-14 -36.40576474687187,26.450336353162182 -80.85174007365315,19.410785426352877 -107.30207642681526,-16.994979320519047 -100.26252550000596,-61.44095464730033 -63.85676075313404,-87.89129100046246 -19.410785426352753,-80.85174007365316 7.039550926809376,-44.44597532678124 8.970602038971265e-14,4.973799150320701e-14 -36.405764746873125,-26.450336353160296 -43.4453156736846,-70.89631167994123 -16.994979320524255,-107.30207642681445 27.450996006256684,-114.34162735362594 63.856760753129905,-87.8912910004656 70.89631167994139,-43.44531567368466 44.44597532678106,-7.039550926811437 1.2079226507921703e-13,5.062616992290714e-14 13.905764746871657,-42.797543233282134 54.00105833534762,-63.22711572156271 96.7986015686298,-49.32135097469118 117.22817405691039,-9.22605738621521 103.32240931003886,33.57148584706698 63.2271157215629,54.001058335347565 20.42957248828072,40.09529358847605 1.2789769243681803e-13,9.947598300641403e-14 50.00000000000003,-1.1856071679972047e-12 85.35533905932824,35.3553390593252 85.35533905932954,85.3553390593251 50.000000000003155,120.71067811865333 3.26139115713886e-12,120.71067811865464 -35.35533905932497,85.35533905932826 -35.35533905932628,35.35533905932836 9.237055564881302e-14,1.2789769243681803e-13 15.450849718748692,47.5528258147573 -7.248675268227412,92.1031520241762 -54.80150108298457,107.55400174292481 -99.35182729240348,84.85447675594871 -114.8026770111521,37.30165094119155 -92.10315202417601,-7.248675268227373 -44.55032620941884,-22.699524986976 7.815970093361102e-14,8.526512829121202e-14" stroke="#000" stroke-linecap="round" stroke-linejoin="round"/><polyline fill="none" points="7.815970093361102e-14,8.526512829121202e-14 -40.45084971874641,29.389262614624787 -89.83526674850341,21.567539362614607 -119.22452936312811,-18.883310356131876 -111.40280611111794,-68.26772738588888 -70.95195639237147,-97.65699000051359 -21.56753936261447,-89.83526674850343 7.821723252010248,-49.38441702975695 9.059419880941277e-14,4.973799150320701e-14 -40.45084971874801,-29.389262614622417 -48.27257297076092,-78.77367964437897 -18.883310356138455,-119.22452936312708 30.5011066736181,-127.04625261513998 70.9519563923662,-97.65699000051752 78.77367964437911,-48.272572970760976 49.384417029756676,-7.821723252012873 1.3500311979441904e-13,5.1514348342607263e-14 15.450849718746111,-47.55282581475795 60.00117592816375,-70.25235080173651 107.55400174292174,-54.80150108299055 130.2535267299003,-10.251174873572921 114.80267701115434,37.30165094118508 70.25235080173672,60.00117592816365 22.699524986978723,44.5503262094177 1.4921397450962104e-13,8.526512829121202e-14 55.0,-1.520672476829077e-12 93.89087296526114,38.890872965257344 93.89087296526274,93.89087296525719 55.00000000000389,132.78174593051833 4.04298816647497e-12,132.78174593051995 -38.89087296525711,93.8908729652611 -38.890872965258744,38.89087296526125 9.947598300641403e-14,9.237055564881302e-14 16.995934690623724,52.308108396232875 -7.973542795049802,101.31346722659372 -60.28165119128258,118.30940191721734 -109.28701002164343,93.33992443154382 -126.28294471226707,41.031816035311046 -101.31346722659356,-7.973542795049795 -49.00535883036079,-24.96947748567344 4.973799150320701e-14,6.039613253960852e-14 -44.49593469062093,32.32818887608734 -98.81879342335358,23.724293298876333" stroke="#000" stroke-linecap="round" stroke-linejoin="round"/><polyline fill="none" points="-98.81879342335358,23.724293298876333 -131.14698229944088,-20.771641391744637 -122.54308672222987,-75.09450012447729 -78.0471520316089,-107.42268900056459 -23.72429329887624,-98.8187934233536 8.603895577211055,-54.32285873273264 7.815970093361102e-14,1.4210854715202004e-14 -44.49593469062289,-32.3281888760845 -53.09983026783726,-86.65104760881661 -20.771641391752752,-131.14698229943957 33.551217340979356,-139.75087787665396 78.04715203160232,-107.42268900056946 86.65104760881671,-53.09983026783736 54.32285873273223,-8.603895577214395 1.4210854715202004e-13,1.7763568394002505e-15 16.995934690620505,-52.30810839623379 66.00129352097974,-77.27758588191034 118.30940191721353,-60.28165119128998 143.27887940289008,-11.276292360930746 126.28294471226974,41.031816035303045 77.27758588191051,66.00129352097962 24.969477485676713,49.005358830359285 1.3145040611561853e-13,5.684341886080802e-14 59.9999999999999,-1.9115820037995945e-12 102.42640687119399,42.42640687118938 102.42640687119597,102.42640687118913 60.00000000000468,144.8528137423832 4.924061158817494e-12,144.8528137423852 -42.42640687118917,102.42640687119392 -42.42640687119117,42.42640687119416 9.947598300641403e-14,5.684341886080802e-14 18.541019662498783,57.06339097770842 -8.698410321872124,110.52378242901119 -65.7618012995805,129.06480209150988 -119.22219275088327,101.82537210713897 -137.76321241338195,44.76198112943061 -110.52378242901105,-8.698410321872174 -53.460391451302684,-27.239429984370872 9.947598300641403e-14,2.1316282072803006e-14 -48.54101966249536,35.26711513754992 -107.80232009820371,25.88104723513813 -143.06943523575362,-22.659972427357314 -133.68336733334183,-81.92127286306567" stroke="#000" stroke-linecap="round" stroke-linejoin="round"/><polyline fill="none" points="-133.68336733334183,-81.92127286306567 -85.14234767084639,-117.18838800061559 -25.88104723513804,-107.80232009820382 9.386067902411881,-59.26130043570839 1.1546319456101628e-13,-4.263256414560601e-14 -48.54101966249775,-35.2671151375466 -57.92708756491363,-94.52841557325428 -22.65997242736708,-143.06943523575214 36.6013280083406,-152.455503138168 85.14234767083846,-117.18838800062147 94.52841557325435,-57.9270875649138 59.26130043570782,-9.386067902415924 1.4210854715202004e-13,-2.4868995751603507e-14 18.54101966249489,-57.063390977709645 72.00141111379577,-84.30282096208423 129.06480209150538,-65.76180129958948 156.30423207587998,-12.301409848288614 137.76321241338525,44.761981129421 84.30282096208438,72.0014111137956 27.239429984374766,53.460391451300865 1.7053025658242404e-13,7.105427357601002e-15 64.99999999999987,-2.327416037672947e-12 110.9619407771269,45.961940777121384 110.96194077712924,110.96194077712109 65.00000000000554,156.9238815542481 5.8548721426632255e-12,156.92388155425047 -45.961940777121185,110.96194077712677 -45.96194077712356,45.96194077712707 1.3500311979441904e-13,2.1316282072803006e-14 20.086104634373886,61.81867355918398 -9.42327784869439,119.73409763142868 -71.24195140787833,139.82020226580244 -129.15737548012305,110.31081978273417 -149.24348011449683,48.49214622355023 -119.73409763142857,-9.42327784869449 -57.91542407224463,-29.50938248306826 7.815970093361102e-14,-1.7763568394002505e-14 -52.58610463436982,38.20604139901249 -116.78584677305382,28.037801171399927 -154.99188817206633,-24.54830346296996 -144.82364794445377,-88.74804560165396 -92.23754331008388,-126.95408700066648 -28.037801171399877,-116.78584677305393" stroke="#000" stroke-linecap="round" stroke-linejoin="round"/><polyline fill="none" points="-28.037801171399877,-116.78584677305393 10.16824022761265,-64.19974213868406 1.1013412404281553e-13,-5.684341886080802e-14 -52.586104634372646,-38.206041399008626 -62.754344861990035,-102.40578353769186 -24.548303462981472,-154.99188817206462 39.65143867570176,-165.160128399682 92.23754331007453,-126.95408700067345 102.40578353769193,-62.75434486199022 64.19974213868338,-10.168240227617446 1.4210854715202004e-13,-2.6645352591003757e-14 20.08610463436925,-61.81867355918546 78.00152870661174,-91.32805604225808 139.82020226579718,-71.24195140788899 169.3295847488698,-13.326527335646517 149.2434801145007,48.49214622353892 91.32805604225823,78.00152870661154 29.50938248307279,57.91542407224246 1.5987211554602254e-13,-0.0 69.99999999999977,-2.7317037520901977e-12 119.49747468305976,49.49747468305338 119.4974746830625,119.497474683053 70.0000000000064,168.994949366113 6.778577699151356e-12,168.99494936611575 -49.49747468305323,119.49747468305965 -49.49747468305599,49.497474683060034 9.947598300641403e-14,1.4210854715202004e-14 21.63118960624894,66.57395614065953 -10.148145375516673,128.9444128338462 -76.72210151617618,150.57560244009505 -139.09255820936283,118.79626745832945 -160.7237478156117,52.22231131766995 -128.9444128338461,-10.14814537551672 -62.37045669318658,-31.77933498176559 9.237055564881302e-14,-3.552713678800501e-15 -56.63118960624424,41.144967660475174 -125.76937344790394,30.194555107661877 -166.91434110837912,-26.436634498582457 -155.96392855556584,-95.57481834024216 -99.33273894932151,-136.71978600071736 -30.1945551076618,-125.76937344790409 10.950412552813411,-69.13818384165977 1.474376176702208e-13,-5.684341886080802e-14" stroke="#000" stroke-linecap="round" stroke-linejoin="round"/><polyline fill="none" points="1.474376176702208e-13,-5.684341886080802e-14 -56.63118960624754,-41.14496766047061 -67.58160215906648,-110.28315150212941 -26.43663449859593,-166.9143411083771 42.70154934306286,-177.86475366119606 99.33273894931054,-136.71978600072552 110.2831515021295,-67.58160215906673 69.13818384165896,-10.950412552819039 1.7053025658242404e-13,-7.460698725481052e-14 21.6311896062436,-66.57395614066134 84.00164629942766,-98.35329112243203 150.57560244008891,-76.72210151618862 182.3549374218596,-14.351644823004555 160.7237478156162,52.22231131765671 98.35329112243215,84.00164629942742 31.779334981770887,62.37045669318403 1.6697754290362354e-13,-7.105427357601002e-15 74.99999999999972,-3.1878943929086745e-12 128.03300858899271,53.033008588985304 128.0330085889959,128.03300858898484 75.00000000000742,181.06601717797784 7.87281351222191e-12,181.06601717798105 -53.03300858898514,128.03300858899257 -53.03300858898835,53.03300858899303 1.2079226507921703e-13,-0.0 23.17627457812411,71.32923872213509 -10.873012902338811,138.15472803626375 -82.2022516244739,161.33100261438776 -149.02774093860256,127.28171513392485 -172.20401551672657,55.95247641178976 -138.15472803626366,-10.873012902338914 -66.82548931412857,-34.04928748046294 1.1368683772161603e-13,-3.552713678800501e-14 -60.676274578118665,44.083893921937836 -134.75290012275406,32.351309043923834 -178.83679404469194,-28.324965534194938 -167.10420916667795,-102.40159107883034 -106.4279345885592,-146.48548500076822 -32.35130904392379,-134.75290012275423 11.732584878014102,-74.07662554463548 1.2789769243681803e-13,-8.526512829121202e-14 -60.6762745781225,-44.08389392193261 -72.40885945614303,-118.16051946656697" stroke="#000" stroke-linecap="round" stroke-linejoin="round"/><polyline fill="none" points="-72.40885945614303,-118.16051946656697 -28.324965534210527,-178.8367940446896 45.75166001042381,-190.56937892271014 106.42793458854646,-146.48548500077766 118.16051946656701,-72.40885945614332 74.07662554463452,-11.732584878020667 1.8474111129762605e-13,-1.0302869668521453e-13 23.176274578117884,-71.3292387221372 90.00176389224352,-105.37852620260601 161.33100261438062,-82.20225162448833 195.38029009484944,-15.376762310362707 172.20401551673177,55.95247641177441 105.37852620260615,90.00176389224325 34.04928748046903,66.82548931412558 1.9895196601282805e-13,-2.842170943040401e-14 79.99999999999969,-3.683275906496419e-12 136.56854249492574,56.568542494917175 136.5685424949294,136.56854249491667 80.00000000000855,193.13708498984272 9.066525308298878e-12,193.13708498984641 -56.56854249491698,136.56854249492557 -56.568542494920685,56.568542494926064 1.3500311979441904e-13,-7.105427357601002e-15 24.72135954999931,76.08452130361064 -11.597880429160885,147.36504323868132 -87.68240173277152,172.08640278868052 -158.96292366784218,135.76716280952033 -183.68428321784137,59.682641505909686 -147.36504323868118,-11.597880429160995 -71.28052193507054,-36.31923997916019 1.4210854715202004e-13,-7.105427357601002e-15 -64.72135954999304,47.02282018340059 -143.73642679760417,34.50806298018591 -190.75924698100476,-30.21329656980727 -178.24448977779008,-109.22836381741838 -113.52313022779691,-156.251184000819 -34.5080629801858,-143.73642679760434 12.514757203214828,-79.01506724761119 1.8829382497642655e-13,-7.105427357601002e-14 -64.72135954999743,-47.02282018339454 -77.23611675321959,-126.03788743100446 -30.213296569825125,-190.7592469810021 48.801770677784795,-203.27400418422425" stroke="#000" stroke-linecap="round" stroke-linejoin="round"/><polyline fill="none" points="48.801770677784795,-203.27400418422425 113.52313022778242,-156.2511840008298 126.03788743100459,-77.23611675321987 79.01506724761015,-12.514757203222231 2.2737367544323206e-13,-4.263256414560601e-14 24.721359549992194,-76.08452130361303 96.00188148505941,-112.40376128277998 172.0864027886724,-87.68240173278802 208.40564276783937,-16.40187979772081 183.68428321784742,59.68264150589218 112.40376128278022,96.00188148505914 36.31923997916722,71.28052193506721 2.3447910280083306e-13,1.4210854715202004e-14 10.00000000000017,-4.737321646075543e-13 10.000000000000659,9.999999999999462 7.229772336359019e-13,9.99999999999995 2.3319724411442464e-13,1.4210854715202004e-14" stroke="#000" stroke-linecap="round" stroke-linejoin="round"/></svg>